<svg width="120" height="120" viewBox="0 0 120 120" fill="none" xmlns="http://www.w3.org/2000/svg">
<g clip-path="url(#clip0)">
<path d="M119.972 111.489L110.544 59.5488C110.45 59.0303 110.129 58.5813 109.668 58.3251L85.9394 45.1274C85.6315 44.9558 85.2862 44.8876 84.9471 44.9139L89.264 100.603L89.1194 100.668L117.517 113.408C117.748 113.511 117.994 113.562 118.238 113.562C118.625 113.562 119.009 113.435 119.324 113.188C119.839 112.786 120.088 112.132 119.972 111.489Z" fill="#28A248"/>
<path d="M60.0002 57.7442L35.7318 45.1041C35.4409 44.9525 35.1184 44.8906 34.8008 44.9119C34.885 44.9068 34.9696 44.9072 35.0535 44.9138L30.7365 100.603L59.279 113.408C59.5094 113.511 59.7552 113.563 60.0002 113.563V57.7442Z" fill="#32BD56"/>
<path d="M35.0532 44.9141C34.714 44.8879 34.3688 44.9561 34.0608 45.1274L10.3319 58.3251C9.87116 58.5813 9.5496 59.0301 9.45562 59.5488L0.0283307 111.489C-0.0883882 112.132 0.160987 112.786 0.67591 113.189C0.991614 113.435 1.37482 113.563 1.76154 113.563C2.00599 113.563 2.25185 113.512 2.48271 113.408L30.7259 100.738L35.0532 44.9141Z" fill="#56D777"/>
<path d="M84.9468 44.913C84.7134 44.931 84.4825 44.9931 84.2685 45.1047L60.0001 57.7446V113.563C60.0001 113.563 60.0001 113.563 60.0004 113.563C60.2453 113.563 60.4914 113.512 60.7215 113.408L89.264 100.604L84.9468 44.913Z" fill="#2FB652"/>
<path d="M6.59855 75.2891L4.68347 85.8405L33.0415 70.8625L33.6999 62.3689L33.8091 60.9603L6.59855 75.2891Z" fill="#FFDB56"/>
<path d="M33.2967 67.5691L33.0415 70.8625L4.6835 85.8405L0.0283307 111.489C-0.0883882 112.132 0.160987 112.786 0.67591 113.189C0.991614 113.435 1.37482 113.563 1.76154 113.563C2.00599 113.563 2.25185 113.512 2.48271 113.408L30.7259 100.738L33.2967 67.5691Z" fill="#A8EEFC"/>
<path d="M60.0071 64.7064L33.8091 60.9603L33.0415 70.8625L60.0001 111.803V96.9159L43.9133 71.585L60.0071 73.51V64.7064Z" fill="#FEB618"/>
<path d="M107.8 57.2863L96.4012 50.9462L85.6101 53.4676L85.7451 55.2104L86.2781 62.0856L107.8 57.2863Z" fill="#FEB618"/>
<path d="M87.235 74.4321L86.2131 61.2487L85.6101 53.4677L60.0071 64.7064V73.51L76.7312 66.2374L87.235 74.4321Z" fill="#FFDB56"/>
<path d="M119.972 111.489L117.604 98.4421L86.278 62.0856L87.2352 74.432L119.361 113.156C119.849 112.751 120.086 112.115 119.972 111.489Z" fill="#FEB618"/>
<path d="M60.1129 6.43713C46.5278 6.43713 35.4753 17.4804 35.4753 31.0545C35.4753 39.4513 39.4618 48.4663 47.3244 57.8488C53.0992 64.7401 58.7955 69.1724 59.0352 69.3578C59.3526 69.6032 59.7327 69.7258 60.1131 69.7258C60.4933 69.7258 60.8737 69.6032 61.191 69.3578C61.4305 69.1724 67.127 64.7401 72.9018 57.8488C80.7644 48.4663 84.7509 39.4515 84.7509 31.0545C84.7504 17.4804 73.698 6.43713 60.1129 6.43713ZM69.2371 31.0543C69.2371 36.0891 65.152 40.171 60.1129 40.171C55.0738 40.171 50.9887 36.0894 50.9887 31.0543C50.9887 26.0192 55.0738 21.9375 60.1129 21.9375C65.152 21.9375 69.2371 26.0194 69.2371 31.0543Z" fill="#FF4415"/>
<path d="M60.1128 6.43713C59.0361 6.43713 57.9756 6.50698 56.9349 6.64151C69.0247 8.20409 78.3948 18.5562 78.3948 31.0545C78.3948 39.4513 74.4083 48.4663 66.5457 57.8488C62.8321 62.2804 59.1535 65.6926 56.9352 67.615C58.1666 68.6819 58.9499 69.2917 59.0352 69.3578C59.3525 69.6032 59.7327 69.7258 60.1131 69.7258C60.4932 69.7258 60.8736 69.6032 61.191 69.3578C61.4305 69.1724 67.127 64.7401 72.9018 57.8488C80.7644 48.4663 84.7508 39.4515 84.7508 31.0545C84.7504 17.4804 73.6979 6.43713 60.1128 6.43713Z" fill="#E13E15"/>
<path d="M60.7215 113.408L71.3352 108.647L60.0001 96.9159V113.563C60.0001 113.563 60.0001 113.563 60.0004 113.563C60.2453 113.563 60.4911 113.512 60.7215 113.408Z" fill="#FFBF33"/>
<path d="M110.544 59.5487C110.45 59.0302 110.129 58.5812 109.668 58.325L107.8 57.286L86.2778 62.0853L117.604 98.4419L110.544 59.5487Z" fill="#1EA4E9"/>
<path d="M59.9998 113.563C60.0001 113.563 60.0001 113.563 59.9998 113.563V111.803L33.0415 70.8624L30.736 100.603L59.2784 113.408C59.5088 113.512 59.7547 113.563 59.9998 113.563Z" fill="#1EA4E9"/>
</g>
<defs>
<clipPath id="clip0">
<rect width="120" height="120" fill="white"/>
</clipPath>
</defs>
</svg>
