<svg width="463" height="255" viewBox="0 0 463 255" fill="none" xmlns="http://www.w3.org/2000/svg">
<path d="M8.15914 206.42C11.8899 201.685 12.4638 198.468 12.2845 197.452C32.4323 197.273 73.876 196.914 78.4676 196.914C78.4676 205.882 87.9341 211.98 89.4084 218.078C93.3549 234.4 80.2611 249.646 52.8193 253.413C25.3774 257.179 4.03362 242.113 0.984586 230.813C-2.35504 218.437 3.49591 212.339 8.15914 206.42Z" fill="#FF4415"/>
<path d="M78.4675 196.914C78.4675 205.882 87.9341 211.98 89.4084 218.078C90.3336 221.905 90.322 225.673 89.4084 229.248C18.5851 259.369 27.5052 220.435 40.8179 197.203C58.2993 197.054 75.595 196.914 78.4675 196.914Z" fill="#FF6842"/>
<path d="M78.4669 196.914C78.4669 205.882 87.9334 211.98 89.4077 218.078C90.333 221.905 90.3214 225.673 89.4077 229.248C84.9559 233.37 72.1344 239.141 56.4636 229.248C40.7928 219.354 56.751 203.621 66.6891 196.991C72.7511 196.944 77.1424 196.914 78.4669 196.914Z" fill="#FF7F60"/>
<path d="M82.4304 206.42C78.6997 201.684 78.337 198.032 78.5163 197.016C77.4924 197.007 74.7678 197.462 73.6417 197.452C73.6417 199.095 75.8799 204.267 81.3541 210.724C86.8284 217.181 87.273 230.243 74.7178 240.384C68.6196 245.309 44.0476 260.358 7.63763 240.384C13.842 246.74 23.9994 251.522 37.7703 253.411C65.2124 257.177 86.556 242.113 89.6052 230.812C92.9448 218.437 87.0938 212.338 82.4304 206.42Z" fill="#C93612"/>
<path opacity="0.5" d="M52.8186 253.413C25.3767 257.179 4.03292 242.113 0.983887 230.813C16.9236 244.936 56.9238 264.396 89.4079 229.248C86.4248 240.919 73.8261 250.53 52.8186 253.413Z" fill="url(#paint0_linear)"/>
<path d="M82.4135 192.789C82.4135 198.633 65.7108 203.371 45.1068 203.371C24.503 203.371 7.80023 198.633 7.80023 192.789C7.80023 186.945 24.503 182.207 45.1068 182.207C65.7108 182.207 82.4135 186.945 82.4135 192.789Z" fill="#201815"/>
<path d="M67.8861 197.273C67.7154 199.962 55.2165 201.392 40.2392 200.441C25.2617 199.489 11.4649 196.539 11.6357 193.85C11.8066 191.162 25.88 189.754 40.8575 190.705C55.835 191.656 68.0568 194.585 67.8861 197.273Z" fill="#FEB618"/>
<path d="M55.4006 197.904C55.2783 199.829 46.4857 200.837 35.7615 200.156C25.0374 199.475 16.4427 197.362 16.5651 195.437C16.6874 193.512 25.4802 192.504 36.2044 193.185C46.9284 193.867 55.523 195.979 55.4006 197.904Z" fill="#FFCC5E"/>
<path d="M32.7324 188.304C29.6615 188.304 27.1722 190.793 27.1722 193.864C27.1722 194.296 27.2215 194.716 27.3146 195.119C28.9061 196.016 33.3012 197.272 38.1501 195.119C38.2433 194.716 38.2924 194.296 38.2924 193.864C38.2924 190.793 35.803 188.304 32.7324 188.304Z" fill="#FEBC2A"/>
<path d="M38.2913 193.864C38.2913 190.793 35.8019 188.304 32.7311 188.304C31.2968 188.304 29.9894 188.847 29.0032 189.739C29.4932 191.532 32.0086 195.119 38.1489 195.119C38.242 194.716 38.2913 194.296 38.2913 193.864Z" fill="#FEBC2A"/>
<path d="M32.7316 188.304C32.2999 188.304 31.8797 188.353 31.4761 188.446C30.1235 188.758 27.8892 190.847 36.1396 192.788C37.5742 193.125 38.5979 190.756 35.4221 188.997C34.6248 188.555 33.7076 188.304 32.7316 188.304Z" fill="#FFD476"/>
<path fill-rule="evenodd" clip-rule="evenodd" d="M38.8911 195.764C37.9956 196.424 36.251 196.992 33.0917 197.136C29.9301 197.28 27.8885 196.771 26.6205 196.072C25.3531 195.374 24.8571 194.484 24.7955 193.868L24.8829 193.859C24.941 194.439 25.4134 195.307 26.6631 195.995C27.9121 196.684 29.936 197.191 33.0877 197.048C36.242 196.905 37.9649 196.337 38.839 195.693C39.2752 195.372 39.4984 195.033 39.585 194.719C39.6716 194.406 39.6224 194.113 39.5073 193.883L39.586 193.844C39.7101 194.092 39.7626 194.406 39.6698 194.743C39.577 195.079 39.3398 195.434 38.8911 195.764Z" fill="#DAA01F"/>
<path fill-rule="evenodd" clip-rule="evenodd" d="M24.8574 196.319C23.4268 195.205 23.0632 193.938 23.0023 193.33L23.0899 193.321C23.1485 193.908 23.5023 195.152 24.9115 196.25C26.3213 197.348 28.7916 198.303 33.0901 198.303C36.2441 198.303 38.2823 197.602 39.4709 196.786C40.0653 196.379 40.4462 195.943 40.6489 195.553C40.8526 195.161 40.8739 194.822 40.7632 194.6L40.842 194.561C40.9703 194.818 40.9372 195.189 40.7271 195.593C40.5162 195.999 40.1241 196.445 39.5205 196.859C38.3133 197.687 36.2562 198.391 33.0901 198.391C28.7795 198.391 26.2877 197.433 24.8574 196.319Z" fill="#D39E29"/>
<path d="M53.1014 187.945C50.6672 187.945 48.6939 189.918 48.6939 192.352C48.6939 192.694 48.733 193.027 48.8067 193.347C50.0682 194.058 53.5522 195.053 57.3959 193.347C57.4698 193.027 57.5087 192.694 57.5087 192.352C57.5087 189.918 55.5355 187.945 53.1014 187.945Z" fill="#FEC13B"/>
<path d="M57.5088 192.352C57.5088 189.918 55.5356 187.945 53.1015 187.945C51.9645 187.945 50.9281 188.375 50.1463 189.082C50.5349 190.504 52.5288 193.347 57.396 193.347C57.4699 193.027 57.5088 192.694 57.5088 192.352Z" fill="#FEBC2A"/>
<path d="M53.1017 187.945C52.7594 187.945 52.4262 187.984 52.1064 188.058C51.0341 188.305 49.2631 189.96 55.803 191.499C56.9402 191.767 57.7517 189.889 55.2343 188.494C54.6024 188.144 53.8753 187.945 53.1017 187.945Z" fill="#FFDA8B"/>
<path d="M47.3179 194.402C45.8985 194.402 44.7479 195.552 44.7479 196.972C44.7479 197.171 44.7706 197.365 44.8138 197.552C45.5493 197.966 47.5806 198.546 49.8218 197.552C49.8649 197.365 49.8876 197.171 49.8876 196.972C49.8876 195.552 48.737 194.402 47.3179 194.402Z" fill="#FEC13B"/>
<path d="M49.8872 196.972C49.8872 195.552 48.7366 194.402 47.3173 194.402C46.6544 194.402 46.0502 194.653 45.5943 195.065C45.8208 195.894 46.9834 197.552 49.8214 197.552C49.8645 197.365 49.8872 197.171 49.8872 196.972Z" fill="#FECA59"/>
<path d="M47.3178 194.402C47.1182 194.402 46.9239 194.424 46.7375 194.467C46.1121 194.612 45.0796 195.577 48.8927 196.474C49.5559 196.63 50.0291 195.535 48.5611 194.722C48.1928 194.518 47.7687 194.402 47.3178 194.402Z" fill="#FFDA8B"/>
<path fill-rule="evenodd" clip-rule="evenodd" d="M44.0351 197.711C43.8457 197.576 43.7045 197.434 43.6327 197.29L43.7114 197.251C43.774 197.376 43.9018 197.508 44.0861 197.639C44.2695 197.77 44.5054 197.896 44.7792 198.012C45.3272 198.243 46.0236 198.427 46.7483 198.505C48.2021 198.661 49.747 198.39 50.4501 197.247L50.5251 197.294C49.7934 198.483 48.1995 198.75 46.7388 198.592C46.0062 198.513 45.3015 198.327 44.7451 198.093C44.467 197.976 44.225 197.846 44.0351 197.711Z" fill="#DCAF4C"/>
<path fill-rule="evenodd" clip-rule="evenodd" d="M46.944 199.289C45.4996 199.244 44.0963 198.657 43.2792 197.658L43.3474 197.603C44.1447 198.577 45.5214 199.156 46.9468 199.201C48.3712 199.245 49.8369 198.756 50.8129 197.602L50.8801 197.659C49.883 198.837 48.3892 199.334 46.944 199.289Z" fill="#D7A63A"/>
<path d="M64.8954 192.967C63.476 192.967 62.3254 194.117 62.3254 195.537C62.3254 195.736 62.3481 195.93 62.3913 196.117C63.1268 196.531 65.1582 197.112 67.3995 196.117C67.4424 195.93 67.4651 195.736 67.4651 195.537C67.4651 194.117 66.3146 192.967 64.8954 192.967Z" fill="#FEC13B"/>
<path d="M67.4655 195.537C67.4655 194.117 66.3149 192.967 64.8955 192.967C64.2327 192.967 63.6282 193.218 63.1725 193.63C63.3991 194.459 64.5616 196.117 67.3996 196.117C67.4427 195.93 67.4655 195.736 67.4655 195.537Z" fill="#FEC13B"/>
<path d="M64.8959 192.967C64.6965 192.967 64.5021 192.99 64.3157 193.033C63.6904 193.177 62.6579 194.142 66.471 195.039C67.134 195.195 67.6073 194.1 66.1394 193.287C65.771 193.083 65.347 192.967 64.8959 192.967Z" fill="#FFDA8B"/>
<path fill-rule="evenodd" clip-rule="evenodd" d="M63.6933 197.084C62.4753 196.318 61.5654 195.05 61.5654 193.863H61.6534C61.6534 195.009 62.5368 196.252 63.7402 197.01C64.9423 197.767 66.4477 198.029 67.684 197.234L67.7317 197.308C66.4564 198.128 64.9126 197.852 63.6933 197.084Z" fill="#FEBC2A"/>
<path fill-rule="evenodd" clip-rule="evenodd" d="M62.6129 197.418C61.3498 196.448 60.574 194.953 60.848 193.675L60.9341 193.693C60.6699 194.926 61.4186 196.39 62.6665 197.348C63.9122 198.305 65.6434 198.747 67.3291 197.949L67.3667 198.028C65.6446 198.844 63.8784 198.39 62.6129 197.418Z" fill="#FEBC2A"/>
<path d="M7.80023 192.789C7.80023 198.634 24.503 203.371 45.1068 203.371C52.2755 203.371 58.972 202.798 64.657 201.804C46.3624 201.804 13.5398 198.431 12.643 194.582C12.643 191.175 23.5838 192.789 23.5838 184.145C14.0345 186.061 7.80023 189.219 7.80023 192.789Z" fill="#FF4415"/>
<path d="M45.1068 203.371C65.7108 203.371 82.4136 198.633 82.4136 192.789C82.4136 191.391 81.4583 190.057 79.7232 188.835C82.294 192.963 74.5218 201.039 33.6279 201.039C31.0451 201.039 26.4536 201.418 24.4807 201.608C30.3888 202.722 37.4806 203.371 45.1068 203.371Z" fill="#EF1C17"/>
<path d="M82.4142 192.789C82.4142 191.391 81.459 190.057 79.7237 188.835C80.4684 190.031 80.5258 191.57 79.1856 193.149C78.7553 195.16 77.4519 197.454 76.854 198.349C80.3793 196.734 82.4142 194.828 82.4142 192.789Z" fill="#F95451"/>
<path fill-rule="evenodd" clip-rule="evenodd" d="M15.886 155.054C10.4502 164.786 8.97597 176.72 8.97597 185.488H8.44794C8.44794 176.677 9.92661 164.641 15.425 154.797C20.934 144.934 30.4753 137.283 46.5434 137.283C61.1083 137.283 70.147 145.631 75.4151 155.991C80.6773 166.339 82.1945 178.718 81.733 186.885L81.2059 186.856C81.6633 178.76 80.1556 166.478 74.9445 156.23C69.739 145.993 60.8553 137.811 46.5434 137.811C30.6855 137.811 21.3112 145.341 15.886 155.054Z" fill="white"/>
<path d="M10.6766 186.407C10.6766 187.935 9.79216 189.173 8.70107 189.173C7.60998 189.173 6.72552 187.935 6.72552 186.407C6.72552 184.88 7.60998 183.642 8.70107 183.642C9.79216 183.642 10.6766 184.88 10.6766 186.407Z" fill="#FF4415"/>
<path d="M7.91077 187.988H9.49117V192.729H7.91077V187.988Z" fill="#F95451"/>
<path d="M83.5171 186.288C83.5171 187.816 82.6326 189.054 81.5415 189.054C80.4504 189.054 79.566 187.816 79.566 186.288C79.566 184.761 80.4504 183.522 81.5415 183.522C82.6326 183.522 83.5171 184.761 83.5171 186.288Z" fill="#FF4415"/>
<path d="M80.7518 187.868H82.3322V192.609H80.7518V187.868Z" fill="#F95451"/>
<path opacity="0.08" d="M23.5386 161.666C7.03177 175.671 10.0923 194.527 13.7373 195.735C43.8205 205.708 73.1321 199.52 79.3842 192.61C81.8332 187.972 81.0936 180.142 76.2165 175.89C70.1202 170.576 74.4971 164.948 76.2165 163.385C91.2234 151.193 98.4134 137.124 91.2234 118.679C84.0323 100.234 49.6429 96.326 45.7351 93.5123C41.8272 90.6986 43.0777 84.7585 44.172 83.6643C47.9235 79.7565 50.1118 81.6323 52.613 82.8828C55.1141 84.1334 55.4267 82.4139 54.4887 81.1633C42.2961 66.626 26.3997 81.1635 28.6968 90.386C30.9937 99.6084 33.8548 100.818 28.6968 103.36C23.5386 105.902 14.8933 115.824 31.9794 121.18C49.0655 126.536 44.1722 144.158 23.5386 161.666Z" fill="white"/>
<path opacity="0.08" d="M58.0841 175.891C48.08 191.522 62.4609 199.126 63.7115 198.876C57.4145 200.196 49.1506 200.975 39.3262 200.217C22.6004 186.715 30.6357 172.295 35.2621 168.075C69.0261 137.273 48.3925 118.21 43.7031 115.709C39.0136 113.208 29.6205 96.4825 35.5747 84.6027C41.529 72.7227 51.9877 80.5384 53.2383 82.4142C45.8914 77.5685 42.6088 79.6006 41.202 81.1637C30.8853 97.4205 48.7051 113.834 56.052 118.679C83.4071 138.531 68.0883 160.259 58.0841 175.891Z" fill="#FDFDFD"/>
<path opacity="0.08" d="M58.0839 175.89C48.0796 191.522 62.4605 199.126 63.7111 198.876C56.083 200.507 47.2981 200.593 43.859 200.432C40.8369 193.971 38.6067 178.266 54.4883 163.385C60.1156 158.696 67.7748 138.218 54.4883 122.899C41.5065 107.932 37.1775 105.499 38.0802 90.8149C38.0941 90.4644 38.1181 90.1129 38.1524 89.7604C38.1255 90.1189 38.1014 90.4702 38.0802 90.8149C37.576 103.506 50.1701 114.799 56.0516 118.679C83.4069 138.531 68.088 160.259 58.0839 175.89Z" fill="#FDFDFD"/>
<path d="M270.884 133.825L260.558 131.058L251.058 166.514L261.383 169.281C270.569 171.742 280.02 166.243 282.498 156.996L283.026 155.027C285.505 145.774 280.069 136.286 270.884 133.825ZM276.627 154.947C275.251 160.082 269.996 163.14 264.893 161.773L259.154 160.235L264.431 140.538L270.171 142.076C275.274 143.443 278.296 148.718 276.92 153.854L276.627 154.947Z" fill="white"/>
<path d="M283.588 148.118C283.513 148.474 283.436 148.835 283.34 149.192L282.806 151.187C280.295 160.557 270.816 166.157 261.631 163.696L252.47 161.241L251.057 166.514L261.383 169.281C270.569 171.742 280.047 166.143 282.558 156.772L283.093 154.777C283.693 152.538 283.837 150.283 283.588 148.118Z" fill="#D9D9D9"/>
<path d="M264.474 140.188L270.195 141.721C273.653 142.648 276.143 145.407 276.94 148.71L277.126 148.017C278.516 142.828 275.52 137.512 270.434 136.149L264.716 134.617L259.382 154.522L260.543 154.833L264.468 140.186L264.474 140.188Z" fill="#D9D9D9"/>
<path d="M125.236 112.748L124.708 114.716C122.231 123.963 127.666 133.451 136.852 135.913L147.177 138.679L156.678 103.223L146.358 100.458C137.171 98.003 127.713 103.501 125.236 112.748ZM131.109 114.791C132.485 109.655 137.741 106.598 142.842 107.965L148.581 109.502L143.303 129.199L137.565 127.662C132.463 126.295 129.44 121.019 130.816 115.883L131.109 114.791Z" fill="white"/>
<path d="M128.197 106.481C128.084 106.827 127.97 107.178 127.875 107.535L127.34 109.53C124.829 118.9 130.24 128.49 139.428 130.951L148.59 133.406L147.177 138.679L136.856 135.914C127.668 133.452 122.257 123.863 124.768 114.493L125.303 112.497C125.897 110.257 126.9 108.232 128.197 106.481Z" fill="#D9D9D9"/>
<path d="M148.728 109.174L143.008 107.641C139.549 106.715 136.013 107.86 133.665 110.319L133.85 109.627C135.241 104.437 140.493 101.331 145.578 102.694L151.298 104.226L145.964 124.132L144.803 123.82L148.728 109.174Z" fill="#D9D9D9"/>
<path d="M264.102 155.602C263.358 152.87 262.724 150.121 263.645 147.355C265 143.292 270.353 134.388 273.655 131.901L207.311 124.362C207.311 124.362 146.254 97.9839 146.193 97.9674C147.413 98.3805 147.032 110.43 147.101 111.588C147.477 117.634 143.631 121.709 139.879 126.076C135.136 131.584 133.944 136.823 136.678 143.834C140.1 152.616 147.735 160.234 155.675 165.074C166.967 171.959 179.765 176.301 192.474 179.707C211.48 184.8 250.983 194.138 263.343 171.108C265.374 167.327 265.886 163.152 264.977 158.969C264.732 157.844 264.408 156.724 264.102 155.602Z" fill="white"/>
<path d="M196.387 167.437C183.677 164.032 170.878 159.69 159.586 152.806C151.646 147.967 144.01 140.351 140.586 131.572C139.927 129.883 139.5 128.297 139.292 126.788C135.042 132.045 134.052 137.13 136.672 143.842C140.097 152.621 147.733 160.237 155.673 165.076C166.965 171.959 179.764 176.301 192.474 179.707C211.48 184.8 250.985 194.139 263.342 171.12C264.908 168.202 265.567 165.047 265.369 161.837C251.286 181.015 214.512 172.294 196.387 167.437Z" fill="#D9D9D9"/>
<path d="M263.895 147.335C264.53 145.436 266.05 142.468 267.815 139.606C267.839 139.565 267.863 139.526 267.887 139.486C268.296 138.82 268.725 138.165 269.155 137.531C270.794 135.113 272.507 132.985 273.873 131.959L269.408 131.446C268.687 132.85 268.119 134.124 267.787 135.116C267.733 135.267 267.691 135.422 267.65 135.576C266.231 133.97 264.358 132.301 262.053 130.602L207.593 124.377C207.593 124.377 174.128 109.947 156.74 102.45C154.552 102.699 152.598 103.064 150.889 103.541C151.189 102.468 151.352 101.338 151.344 100.129C148.34 98.8332 146.516 98.0459 146.51 98.0443C147.139 98.2527 147.344 101.53 147.406 104.822C147.466 107.928 147.395 111.046 147.431 111.606C147.558 113.589 147.217 115.355 146.58 116.988C154.617 125.659 176.058 135.973 202.383 143.027C228.614 150.055 252.265 151.851 263.606 148.411C263.688 148.055 263.778 147.694 263.895 147.335Z" fill="#541210"/>
<path d="M269.42 131.449C268.7 132.853 268.132 134.127 267.799 135.118C267.745 135.269 267.704 135.424 267.663 135.578C267.365 135.247 267.05 134.911 266.717 134.569C266.126 135.757 265.648 136.842 265.363 137.707C265.241 138.065 265.149 138.432 265.079 138.791C253.738 142.229 230.086 140.433 203.854 133.404C177.528 126.35 156.086 116.037 148.048 107.367C148.685 105.734 149.019 103.967 148.898 101.986C148.877 101.668 148.89 100.552 148.894 99.0741C147.379 98.4232 146.514 98.052 146.508 98.0503C147.137 98.2587 147.343 101.536 147.405 104.827C147.465 107.932 147.394 111.05 147.43 111.609C147.557 113.592 147.217 115.358 146.58 116.99C154.618 125.661 176.06 135.974 202.386 143.028C228.618 150.057 252.27 151.853 263.612 148.415C263.682 148.056 263.772 147.695 263.896 147.331C264.531 145.433 266.051 142.466 267.815 139.604C267.839 139.564 267.863 139.524 267.887 139.484C268.297 138.818 268.726 138.164 269.155 137.53C270.792 135.111 272.507 132.985 273.873 131.959L269.42 131.449Z" fill="#3F100D"/>
<path d="M270.178 133.713C269.748 134.347 269.318 135.008 268.91 135.668C268.886 135.707 268.862 135.747 268.838 135.788C267.067 138.647 265.547 141.615 264.918 143.514C264.796 143.873 264.704 144.24 264.635 144.598C253.293 148.036 229.641 146.24 203.408 139.211C177.083 132.157 155.64 121.844 147.603 113.174C148.24 111.541 148.573 109.774 148.453 107.793C148.417 107.233 148.487 104.116 148.428 101.011C148.412 100.277 148.389 99.542 148.357 98.8442C147.176 98.3354 146.514 98.052 146.508 98.0503C147.137 98.2587 147.343 101.536 147.405 104.827C147.465 107.932 147.394 111.05 147.43 111.609C147.557 113.592 147.217 115.358 146.58 116.99C154.618 125.661 176.06 135.974 202.386 143.028C228.618 150.057 252.27 151.853 263.612 148.415C263.682 148.056 263.772 147.695 263.896 147.331C264.531 145.433 266.051 142.466 267.815 139.604C267.839 139.564 267.863 139.524 267.887 139.484C268.297 138.818 268.726 138.164 269.155 137.53C270.792 135.111 272.507 132.985 273.873 131.959L271.616 131.699C271.139 132.334 270.652 133.005 270.178 133.713Z" fill="#541210"/>
<path d="M205.717 131.698C240.873 141.117 271.387 141.234 273.873 131.959C276.358 122.683 249.873 107.527 214.718 98.1076C179.562 88.6877 149.048 88.5706 146.563 97.8462C144.077 107.122 170.562 122.278 205.717 131.698Z" fill="#F1F1F1"/>
<path d="M207.14 127.634C238.803 136.118 265.976 137.379 267.832 130.451C269.688 123.523 245.525 111.029 213.862 102.545C182.199 94.0611 155.026 92.7997 153.17 99.7277C151.314 106.656 175.477 119.15 207.14 127.634Z" fill="#FF4415"/>
<path d="M155.897 105.014C165.439 102.634 187.124 104.941 211.472 111.465C235.82 117.989 255.753 126.833 262.826 133.666C265.692 132.947 267.467 131.812 267.888 130.242C269.713 123.43 245.522 111.028 213.862 102.545C182.203 94.062 155.051 92.7064 153.226 99.5187C152.798 101.093 153.768 102.964 155.897 105.014Z" fill="#B3B3B3"/>
<path opacity="0.2" d="M191.283 103.197C191.283 103.197 170.585 101.199 179.496 79.8228C188.406 58.4525 208.202 74.395 217.705 52.1162C223.273 39.0698 217.033 26.1427 210.904 17.6687C209.871 16.2383 211.685 14.4824 213.059 15.5804C225.34 25.3773 242.502 42.9684 232.51 58.9154C217.677 82.6051 186.803 69.7225 191.283 103.197Z" fill="#FEDCA2"/>
<path opacity="0.2" d="M217.016 108.378C217.016 108.378 203.318 107.045 209.2 92.9662C215.082 78.8875 228.189 89.4108 234.464 74.7383C238.143 66.1417 233.996 57.6195 229.937 52.0309C229.255 51.0888 230.454 49.9318 231.36 50.6604C239.498 57.1225 250.87 68.7335 244.27 79.2365C234.469 94.8293 214.027 86.3157 217.016 108.378Z" fill="#FEDCA2"/>
<path d="M198.571 111.45C197.31 111.092 196.068 110.663 194.869 110.153C191.714 108.822 186.083 106.737 180.332 107.132C172.29 107.691 196.22 114.887 187.789 113.845C179.359 112.798 160.335 105.207 161.91 108.485C163.485 111.763 200.667 124.369 206.22 124.639C211.771 124.915 184.548 117.478 188.773 116.253C193.003 115.029 213.822 119.966 207.084 115.66C202.826 112.94 200.04 111.869 198.571 111.45Z" fill="#FF633C"/>
<path d="M217.535 125.951C217.535 125.951 205.306 122.864 205.467 120.227C205.629 117.59 229.149 117.473 237.568 123.272C245.988 129.071 217.058 118.927 223.34 123.578C223.34 123.578 230.05 129.683 217.535 125.951Z" fill="#CF3B16"/>
<path d="M233.728 129.492C233.728 129.492 226.626 128.525 226.048 125.644C225.472 122.756 255.543 131.412 246.771 131.196C237.992 130.978 233.728 129.492 233.728 129.492Z" fill="#CF3B16"/>
<path opacity="0.28" d="M255.772 132.334C255.698 132.585 255.49 132.768 255.27 132.895C255.045 133.02 254.796 133.106 254.553 133.173C254.054 133.304 253.541 133.365 253.032 133.409C252.004 133.491 250.98 133.481 249.949 133.444C247.891 133.362 245.848 133.153 243.801 132.903C239.716 132.398 235.653 131.74 231.61 130.981C223.517 129.489 215.476 127.705 207.492 125.685C199.509 123.659 191.572 121.439 183.735 118.868C179.827 117.557 175.93 116.181 172.1 114.598C170.188 113.801 168.287 112.96 166.427 111.991C165.497 111.504 164.574 110.991 163.666 110.377C163.214 110.063 162.766 109.732 162.329 109.31C162.109 109.092 161.894 108.855 161.692 108.523C161.505 108.208 161.277 107.696 161.429 107.055C161.613 106.421 162.071 106.094 162.391 105.914C162.732 105.727 163.037 105.63 163.336 105.551C163.925 105.404 164.479 105.34 165.028 105.295C166.115 105.216 167.171 105.234 168.226 105.278C170.325 105.377 172.386 105.598 174.443 105.857C178.552 106.395 182.613 107.159 186.653 107.976C194.729 109.656 202.717 111.71 210.636 113.952C218.559 116.201 226.416 118.67 234.17 121.43C238.05 122.795 241.898 124.256 245.687 125.861C247.579 126.666 249.46 127.508 251.283 128.467C252.194 128.95 253.091 129.455 253.935 130.039C254.36 130.332 254.766 130.646 255.134 131.003C255.318 131.185 255.484 131.382 255.616 131.603C255.745 131.816 255.833 132.079 255.772 132.334ZM255.772 132.334C255.833 132.079 255.745 131.816 255.61 131.601C255.477 131.38 255.304 131.188 255.127 131.007C254.759 130.651 254.344 130.341 253.92 130.048C253.068 129.469 252.168 128.97 251.262 128.495C249.436 127.548 247.559 126.714 245.657 125.926C241.859 124.352 237.979 122.988 234.083 121.678C226.272 119.109 218.352 116.9 210.387 114.879C202.422 112.864 194.399 111.085 186.331 109.599C182.301 108.844 178.256 108.191 174.204 107.688C172.178 107.437 170.151 107.238 168.139 107.156C167.136 107.119 166.13 107.114 165.17 107.189C164.695 107.228 164.221 107.292 163.816 107.396C163.616 107.448 163.438 107.52 163.322 107.581C163.198 107.648 163.235 107.684 163.271 107.548C163.302 107.411 163.252 107.423 163.325 107.542C163.389 107.653 163.514 107.805 163.661 107.95C163.96 108.242 164.338 108.537 164.73 108.807C165.522 109.357 166.397 109.85 167.285 110.32C169.068 111.255 170.923 112.096 172.803 112.891C176.561 114.488 180.393 115.939 184.261 117.3C191.991 120.047 199.829 122.512 207.734 124.756C215.642 126.987 223.606 129.035 231.655 130.715C235.683 131.529 239.726 132.288 243.803 132.823C245.839 133.084 247.887 133.301 249.942 133.395C250.971 133.439 251.999 133.456 253.02 133.379C253.535 133.337 254.042 133.275 254.546 133.152C254.795 133.085 255.035 133.004 255.261 132.879C255.49 132.768 255.698 132.585 255.772 132.334Z" fill="#D4918E"/>
<path opacity="0.28" d="M184.859 113.334C184.955 113.076 185.246 112.982 185.486 112.908C185.742 112.845 186.004 112.81 186.269 112.788C186.799 112.746 187.325 112.748 187.858 112.772C188.912 112.81 189.968 112.915 191.018 113.045C193.117 113.304 195.204 113.659 197.282 114.051C201.439 114.822 205.577 115.745 209.684 116.78C213.788 117.827 217.869 118.96 221.899 120.284C223.906 120.96 225.91 121.675 227.876 122.485C228.858 122.893 229.841 123.322 230.799 123.817C231.278 124.064 231.755 124.323 232.222 124.639C232.453 124.793 232.684 124.975 232.909 125.18C233.022 125.302 233.133 125.411 233.239 125.585C233.339 125.736 233.445 126.009 233.38 126.328C233.277 126.637 233.054 126.821 232.886 126.902C232.706 127.005 232.555 127.044 232.398 127.087C232.099 127.159 231.81 127.193 231.533 127.212C230.97 127.252 230.428 127.239 229.889 127.213C228.812 127.162 227.752 127.043 226.692 126.904C224.579 126.621 222.492 126.24 220.415 125.822C216.261 124.96 212.154 123.899 208.083 122.755C204.009 121.598 199.97 120.33 195.978 118.918C193.983 118.219 191.998 117.482 190.05 116.657C189.076 116.244 188.109 115.807 187.177 115.313C186.709 115.069 186.247 114.807 185.809 114.505C185.591 114.354 185.381 114.192 185.19 114.009C185.013 113.83 184.813 113.605 184.859 113.334ZM184.859 113.334C184.819 113.606 185.02 113.825 185.196 114.011C185.389 114.187 185.598 114.349 185.817 114.5C186.257 114.797 186.714 115.051 187.189 115.29C188.131 115.773 189.095 116.196 190.072 116.597C192.025 117.404 194.017 118.116 196.018 118.79C200.034 120.117 204.109 121.248 208.202 122.286C212.297 123.317 216.421 124.238 220.567 125.006C222.638 125.396 224.718 125.755 226.799 126.009C227.835 126.135 228.886 126.238 229.92 126.278C230.434 126.297 230.951 126.304 231.449 126.259C231.694 126.239 231.929 126.203 232.148 126.157C232.244 126.122 232.344 126.097 232.392 126.064C232.468 126.031 232.426 126.013 232.422 126.078C232.393 126.136 232.432 126.14 232.389 126.076C232.364 126.023 232.285 125.943 232.224 125.873C232.064 125.725 231.878 125.576 231.67 125.435C231.265 125.154 230.816 124.896 230.355 124.653C229.44 124.171 228.485 123.737 227.518 123.326C225.588 122.506 223.61 121.771 221.619 121.08C217.645 119.672 213.613 118.407 209.551 117.252C205.485 116.11 201.393 115.046 197.252 114.188C195.181 113.771 193.1 113.392 191.005 113.114C189.957 112.978 188.906 112.855 187.855 112.804C187.331 112.776 186.801 112.766 186.272 112.802C186.009 112.817 185.746 112.853 185.49 112.915C185.244 112.988 184.955 113.076 184.859 113.334Z" fill="#D4918E"/>
<path d="M209.851 121.249C209.851 121.249 213.241 108.005 231.935 108.499C231.935 108.499 227.408 125.097 209.851 121.249Z" fill="#FEC460"/>
<path d="M231.108 108.495C229.291 112.681 223.717 121.899 210.557 119.428C210.039 120.522 209.851 121.249 209.851 121.249C227.408 125.097 231.934 108.499 231.934 108.499C231.645 108.494 231.379 108.495 231.108 108.495Z" fill="#E2AD51"/>
<path d="M210.887 121.527C210.887 121.527 214.572 108.361 198.344 99.4984C198.35 99.5 193.965 116.136 210.887 121.527Z" fill="#FEC460"/>
<path d="M199.053 99.9057C198.525 104.438 198.71 115.198 211.189 119.597C211.088 120.803 210.887 121.527 210.887 121.527C193.965 116.136 198.344 99.4984 198.344 99.4984C198.59 99.6299 198.821 99.771 199.053 99.9057Z" fill="#E2AD51"/>
<path d="M191.409 110.454C191.409 110.454 190.177 107.134 185.657 107.868C185.657 107.868 190.178 108.684 190.225 110.212L191.409 110.454Z" fill="#6CAA62"/>
<path d="M210.509 125.426C210.509 125.426 209.634 122.29 204.925 122.214C204.925 122.214 209.452 123.658 209.326 125.021L210.509 125.426Z" fill="#6CAA62"/>
<path d="M233.314 122.425C233.314 122.425 232.439 119.289 227.73 119.213C227.73 119.213 232.258 120.657 232.131 122.02L233.314 122.425Z" fill="#6CAA62"/>
<path d="M228.471 125.572C228.471 125.572 228.232 128.614 232.407 129.96C232.407 129.96 228.839 127.436 229.39 126.253L228.471 125.572Z" fill="#6CAA62"/>
<path d="M165.764 109.955C165.764 109.955 164.961 104.468 160.189 106.709C160.189 106.709 164.739 107.154 164.578 109.785L165.764 109.955Z" fill="#6CAA62"/>
<path d="M164.576 109.784L165.761 109.963C165.761 109.963 165.727 109.75 165.63 109.427L165 109.331C165.095 107.437 162.452 106.703 161.21 106.469C160.881 106.545 160.531 106.656 160.159 106.821C160.147 106.817 164.695 107.311 164.576 109.784Z" fill="#52804B"/>
<path d="M180.751 112.118C180.751 112.118 178.961 117.005 184.362 117.676C184.362 117.676 180.393 114.935 181.76 112.878L180.751 112.118Z" fill="#6CAA62"/>
<path d="M250.813 128.447C250.813 128.447 250.649 131.303 255.011 132.683C255.011 132.683 251.246 130.21 251.784 129.113L250.813 128.447Z" fill="#6CAA62"/>
<path d="M179.654 101.249C179.654 101.249 176.44 97.776 171.053 99.6343C167.083 101.004 168.496 105.499 168.884 106.806C169.271 108.113 171.622 111.326 177.101 109.609C182.573 107.89 179.654 101.249 179.654 101.249Z" fill="#D3BC8A"/>
<path d="M170.174 103.952C170.15 102.573 170.972 101.317 172.216 100.799C173.547 100.243 175.687 99.6906 177.947 100.502C181.684 101.84 181.753 107.13 179.512 109.138C177.271 111.146 172.275 109.752 171.621 108.637C171.172 107.857 170.212 105.871 170.174 103.952Z" fill="#F4E0B0"/>
<path d="M174.045 103.099C174 103.27 173.822 103.373 173.651 103.327C173.48 103.281 173.377 103.103 173.423 102.932C173.469 102.761 173.647 102.659 173.818 102.705C173.993 102.752 174.091 102.928 174.045 103.099Z" fill="#D3BC8A"/>
<path d="M179.27 105.166C179.224 105.337 178.952 105.414 178.668 105.338C178.383 105.261 178.187 105.059 178.233 104.888C178.279 104.717 178.55 104.639 178.835 104.716C179.125 104.798 179.316 104.995 179.27 105.166Z" fill="#D3BC8A"/>
<path d="M174.573 107.352C174.744 107.398 174.958 107.156 175.05 106.813C175.142 106.47 175.078 106.154 174.906 106.108C174.734 106.062 174.52 106.303 174.428 106.646C174.336 106.99 174.401 107.306 174.573 107.352Z" fill="#D3BC8A"/>
<path d="M177.406 102.999C177.749 103.091 178.102 102.887 178.194 102.544C178.286 102.201 178.082 101.847 177.739 101.755C177.396 101.663 177.042 101.867 176.95 102.211C176.858 102.554 177.062 102.907 177.406 102.999Z" fill="#D3BC8A"/>
<path d="M178.553 109.085C178.725 109.131 178.901 109.029 178.947 108.857C178.993 108.685 178.891 108.509 178.72 108.463C178.548 108.417 178.371 108.519 178.325 108.69C178.279 108.862 178.381 109.039 178.553 109.085Z" fill="#D3BC8A"/>
<path d="M167.926 109.349C167.926 109.349 169.721 106.224 172.853 106.505C175.986 106.786 175.553 110.128 178.42 108.326C181.288 106.525 183.484 113.491 183.484 113.491L167.926 109.349Z" fill="#CF3B16"/>
<path opacity="0.28" d="M169.337 109.06C169.803 108.714 170.316 108.428 170.858 108.181C171.127 108.064 171.416 107.97 171.717 107.904C172.016 107.843 172.336 107.8 172.675 107.879C173.329 108.054 173.79 108.49 174.254 108.847C174.713 109.221 175.16 109.592 175.661 109.836C176.156 110.098 176.709 110.215 177.247 110.151C177.79 110.094 178.241 109.78 178.786 109.498C178.921 109.423 179.084 109.369 179.258 109.343C179.435 109.329 179.629 109.35 179.78 109.434C180.091 109.59 180.29 109.809 180.513 110.01C180.931 110.44 181.318 110.893 181.597 111.408C181.232 110.949 180.816 110.532 180.36 110.17C180.131 109.993 179.898 109.784 179.672 109.692C179.435 109.592 179.205 109.659 178.969 109.797C178.512 110.086 177.979 110.469 177.328 110.57C176.686 110.662 176.018 110.519 175.459 110.229C174.894 109.937 174.428 109.542 173.978 109.159C173.534 108.776 173.094 108.377 172.593 108.206C172.093 108.059 171.487 108.21 170.951 108.384C170.392 108.553 169.858 108.795 169.337 109.06Z" fill="#D4918E"/>
<path d="M190.044 118.602C190.044 118.602 192.232 119.452 194.34 117.324C195.894 115.757 194.336 114.017 193.891 113.501C193.446 112.986 191.715 112.055 189.536 114.137C187.352 116.217 190.044 118.602 190.044 118.602Z" fill="#D3BC8A"/>
<path d="M194.089 115.331C194.429 115.973 194.307 116.744 193.81 117.274C193.276 117.836 192.338 118.577 191.019 118.698C188.844 118.911 187.573 116.434 188.217 114.986C188.861 113.539 191.68 113.072 192.275 113.455C192.674 113.715 193.618 114.436 194.089 115.331Z" fill="#F4E0B0"/>
<path d="M190.768 117.948C190.733 117.772 190.85 117.609 191.025 117.573C191.201 117.536 191.362 117.654 191.398 117.83C191.434 118.006 191.317 118.169 191.141 118.205C190.968 118.233 190.796 118.122 190.768 117.948Z" fill="#D3BC8A"/>
<path d="M186.356 117.702C186.356 117.702 188.89 115.111 190.204 116.057C191.514 116.993 192.322 117.732 193.319 117.149C194.316 116.565 195.747 120.803 195.747 120.803L186.356 117.702Z" fill="#CF3B16"/>
<path opacity="0.28" d="M188.442 116.549C188.836 116.404 189.4 116.384 189.923 116.59C190.194 116.685 190.405 116.852 190.585 116.944C190.774 117.047 190.983 117.147 191.199 117.226C191.627 117.394 192.09 117.531 192.528 117.591C192.637 117.603 192.746 117.61 192.821 117.6C192.938 117.578 193.13 117.577 193.266 117.632C193.544 117.749 193.702 117.919 193.808 118.088C193.628 117.951 193.414 117.816 193.213 117.779C193.114 117.761 193.058 117.773 192.964 117.805C192.827 117.847 192.696 117.847 192.558 117.845C192.031 117.827 191.516 117.689 191.032 117.507C190.79 117.406 190.556 117.296 190.342 117.164C190.112 117.014 189.968 116.892 189.782 116.799C189.404 116.614 188.915 116.527 188.442 116.549Z" fill="#D4918E"/>
<path d="M236.803 130.458C236.803 130.458 241.41 132.191 245.71 128.237C248.879 125.323 245.526 121.915 244.57 120.91C243.614 119.905 239.946 118.031 235.502 121.907C231.053 125.773 236.803 130.458 236.803 130.458Z" fill="#D3BC8A"/>
<path d="M244.84 124.395C245.446 125.601 245.221 127.061 244.299 128.053C243.309 129.12 241.58 130.521 239.166 130.782C235.176 131.207 232.88 126.574 234.089 123.843C235.299 121.112 240.464 120.194 241.542 120.9C242.276 121.38 244.001 122.724 244.84 124.395Z" fill="#F4E0B0"/>
<path d="M241.218 126.351C241.11 126.157 241.29 126.008 241.625 126.018C241.952 126.026 242.303 126.19 242.409 126.388C242.517 126.581 242.337 126.73 242.001 126.72C241.665 126.71 241.317 126.541 241.218 126.351Z" fill="#D3BC8A"/>
<path d="M235.988 126.791C235.866 126.649 236.031 126.561 236.359 126.596C236.679 126.628 237.036 126.771 237.156 126.916C237.278 127.058 237.114 127.146 236.785 127.111C236.456 127.076 236.11 126.933 235.988 126.791Z" fill="#D3BC8A"/>
<path d="M238.981 123.086C238.873 122.892 239.054 122.743 239.389 122.752C239.716 122.76 240.067 122.924 240.173 123.122C240.281 123.316 240.1 123.466 239.765 123.456C239.43 123.442 239.08 123.278 238.981 123.086Z" fill="#D3BC8A"/>
<path d="M238.197 128.46C238.155 128.12 238.363 127.781 238.665 127.702C238.961 127.622 239.233 127.835 239.272 128.184C239.315 128.524 239.106 128.863 238.804 128.941C238.508 129.022 238.236 128.808 238.197 128.46Z" fill="#D3BC8A"/>
<path d="M234.143 123.6C234.152 123.271 234.316 122.919 234.514 122.812C234.707 122.703 234.856 122.885 234.846 123.222C234.837 123.549 234.673 123.901 234.475 124.009C234.284 124.108 234.131 123.926 234.143 123.6Z" fill="#D3BC8A"/>
<path d="M231.421 127.003C231.421 127.003 234.07 123.488 238.227 126.04C242.384 128.591 239.918 129.01 244.254 130.172C248.59 131.334 235.201 132.727 231.421 127.003Z" fill="#CF3B16"/>
<path opacity="0.49" d="M232.659 127.36C233.165 126.937 233.854 126.682 234.581 126.569C235.309 126.452 236.087 126.512 236.83 126.7C237.568 126.909 238.256 127.236 238.861 127.65C239.168 127.854 239.431 128.099 239.707 128.322C239.955 128.575 240.197 128.831 240.415 129.099C240.098 128.909 239.81 128.711 239.52 128.513C239.211 128.342 238.921 128.149 238.608 127.989C237.992 127.665 237.355 127.395 236.693 127.212C235.372 126.869 233.962 126.903 232.659 127.36Z" fill="#D4918E"/>
<path d="M220.109 126.657C220.109 126.657 222.297 127.508 224.405 125.38C225.959 123.813 224.401 122.073 223.956 121.557C223.511 121.041 221.78 120.111 219.601 122.193C217.415 124.279 220.109 126.657 220.109 126.657Z" fill="#D3BC8A"/>
<path d="M224.198 123.398C224.489 124.028 224.359 124.796 223.896 125.335C223.398 125.908 222.532 126.667 221.337 126.822C219.366 127.09 218.283 124.663 218.902 123.208C219.521 121.754 222.08 121.218 222.607 121.582C222.961 121.83 223.796 122.522 224.198 123.398Z" fill="#F4E0B0"/>
<path d="M219.757 125.046C219.721 124.87 219.838 124.709 220.013 124.673C220.189 124.637 220.35 124.754 220.386 124.929C220.422 125.105 220.305 125.266 220.13 125.302C219.954 125.338 219.784 125.219 219.757 125.046Z" fill="#D3BC8A"/>
<path d="M220.823 125.998C220.813 125.83 220.907 125.662 221.031 125.612C221.155 125.563 221.257 125.663 221.267 125.832C221.277 126.001 221.183 126.168 221.059 126.218C220.935 126.268 220.834 126.167 220.823 125.998Z" fill="#D3BC8A"/>
<path d="M215.03 125.97C215.03 125.97 217.535 123.469 218.849 124.396C220.157 125.315 220.967 126.039 221.955 125.478C222.943 124.918 224.701 128.031 224.701 128.031L215.03 125.97Z" fill="#CF3B16"/>
<path opacity="0.49" d="M216.3 125.378C216.44 125.128 216.657 124.91 216.962 124.768C217.261 124.622 217.729 124.629 218.068 124.82C218.675 125.17 219.119 125.539 219.635 125.821C219.885 125.97 220.137 126.081 220.371 126.125C220.56 126.176 220.932 126.106 221.26 126.151C221.594 126.172 221.925 126.235 222.25 126.341C222.407 126.401 222.571 126.464 222.713 126.558C222.853 126.652 222.982 126.793 222.993 126.94C222.807 126.69 222.481 126.665 222.194 126.632C221.898 126.603 221.593 126.609 221.298 126.63C221.15 126.641 221.009 126.659 220.867 126.677C220.753 126.697 220.5 126.723 220.318 126.699C219.927 126.65 219.592 126.498 219.297 126.331C218.722 125.996 218.225 125.556 217.798 125.21C217.425 124.904 216.793 125.048 216.3 125.378Z" fill="#D4918E"/>
<path d="M207.932 116.28C207.932 116.28 211.176 117.52 214.255 114.539C216.53 112.342 214.192 109.843 213.526 109.108C212.861 108.374 210.285 107.022 207.095 109.94C203.911 112.86 207.932 116.28 207.932 116.28Z" fill="#D3BC8A"/>
<path d="M213.628 111.442C214.077 112.372 213.901 113.499 213.199 114.272C212.449 115.101 211.134 116.197 209.304 116.408C206.288 116.76 204.577 113.184 205.501 111.063C206.425 108.942 210.341 108.206 211.146 108.744C211.705 109.121 212.997 110.154 213.628 111.442Z" fill="#F4E0B0"/>
<path d="M211.363 113.24C211.329 113.063 211.449 112.895 211.624 112.867C211.8 112.834 211.966 112.953 211.994 113.129C212.027 113.306 211.907 113.473 211.733 113.501C211.563 113.53 211.396 113.416 211.363 113.24Z" fill="#D3BC8A"/>
<path d="M207.186 113.899C207.153 113.722 207.272 113.554 207.447 113.526C207.623 113.493 207.789 113.612 207.817 113.787C207.85 113.965 207.731 114.132 207.556 114.16C207.386 114.19 207.221 114.07 207.186 113.899Z" fill="#D3BC8A"/>
<path d="M209.257 111.146C209.265 110.813 209.434 110.462 209.627 110.365C209.824 110.256 209.971 110.445 209.957 110.776C209.949 111.109 209.78 111.46 209.587 111.557C209.396 111.667 209.248 111.479 209.257 111.146Z" fill="#D3BC8A"/>
<path d="M208.885 115.02C208.852 114.843 208.972 114.676 209.146 114.648C209.323 114.615 209.489 114.734 209.516 114.909C209.55 115.086 209.43 115.254 209.255 115.281C209.086 115.311 208.919 115.197 208.885 115.02Z" fill="#D3BC8A"/>
<path d="M206.138 111.174C206.105 110.997 206.225 110.829 206.399 110.801C206.576 110.768 206.742 110.887 206.769 111.062C206.803 111.24 206.683 111.407 206.508 111.435C206.339 111.465 206.173 111.345 206.138 111.174Z" fill="#D3BC8A"/>
<path d="M247.732 132.066C248.247 132.204 248.74 132.037 248.832 131.694C248.924 131.35 248.58 130.96 248.065 130.822C247.55 130.684 247.057 130.85 246.965 131.194C246.873 131.537 247.217 131.928 247.732 132.066Z" fill="#E29E25"/>
<path d="M185.332 111.568C185.24 111.914 184.889 112.116 184.544 112.023C184.198 111.931 183.995 111.581 184.088 111.235C184.181 110.89 184.532 110.687 184.877 110.779C185.219 110.863 185.425 111.223 185.332 111.568Z" fill="#E29E25"/>
<path d="M170.37 112.67C170.277 113.016 169.787 113.181 169.27 113.042C168.752 112.904 168.411 112.516 168.504 112.17C168.596 111.825 169.086 111.66 169.603 111.798C170.123 111.93 170.462 112.325 170.37 112.67Z" fill="#E29E25"/>
<path d="M200.727 118.804C200.635 119.15 200.284 119.352 199.939 119.26C199.593 119.167 199.391 118.817 199.483 118.471C199.576 118.126 199.927 117.923 200.272 118.016C200.619 118.101 200.82 118.459 200.727 118.804Z" fill="#E29E25"/>
<path d="M227.221 130.237C227.175 130.41 226.907 130.486 226.619 130.409C226.331 130.332 226.138 130.132 226.184 129.959C226.231 129.786 226.498 129.71 226.786 129.787C227.07 129.863 227.267 130.064 227.221 130.237Z" fill="#E29E25"/>
<path d="M195.319 109.132C195.776 109.255 196.185 109.215 196.231 109.044C196.277 108.872 195.943 108.633 195.485 108.51C195.027 108.388 194.619 108.428 194.573 108.599C194.527 108.771 194.861 109.01 195.319 109.132Z" fill="#E29E25"/>
<path d="M413.981 232.107C414.627 240.235 399.044 248.116 379.172 249.716C359.301 251.312 342.667 246.017 342.019 237.895C341.372 229.767 356.956 221.881 376.827 220.285C396.699 218.685 413.333 223.979 413.981 232.107Z" fill="#2BAA4C"/>
<path d="M379.665 241.629C350.27 245.082 323.645 224.052 320.193 194.659L319 184.498L425.435 172L426.629 182.161C430.08 211.555 409.051 238.181 379.665 241.629Z" fill="#FFCE62"/>
<path d="M392 176L319 184.591L320.201 194.836C321.623 206.973 326.954 217.689 334.792 225.887C337.984 226.09 341.241 226.027 344.528 225.641C370.624 222.569 390.146 201.309 392 176Z" fill="#FDB518"/>
<path d="M414.527 173.29C417.491 202.355 396.719 228.53 367.776 231.95C355.954 233.346 344.579 230.725 335 225.177C346.159 237.067 362.571 243.682 379.956 241.63C409.171 238.177 430.063 211.556 426.631 182.161L425.445 172L414.527 173.29Z" fill="#E09A00"/>
<path d="M373.663 193.688C402.92 190.246 425.892 181.104 424.973 173.268C424.055 165.433 399.593 161.87 370.337 165.312C341.081 168.753 318.108 177.895 319.027 185.731C319.945 193.567 344.407 197.13 373.663 193.688Z" fill="#FAF4E4"/>
<path d="M373.239 189.584C399.74 186.464 420.668 179.195 419.984 173.35C419.299 167.505 397.261 165.296 370.76 168.416C344.26 171.536 323.332 178.805 324.016 184.65C324.701 190.495 346.739 192.704 373.239 189.584Z" fill="#F5E2B8"/>
<path d="M373.266 189.242C397.839 186.479 417.416 181.445 416.993 177.997C416.572 174.55 396.308 173.995 371.735 176.758C347.162 179.521 327.584 184.556 328.007 188.003C328.429 191.451 348.692 192.005 373.266 189.242Z" fill="#FF4415"/>
<path d="M367.043 184C367.043 184 365.498 171.798 380.945 166C380.945 166 382.654 181.382 367.043 184Z" fill="#FEC460"/>
<path d="M380.268 166.278C380.152 170.383 378.592 179.944 367.026 182.247C366.958 183.335 367.044 184 367.044 184C382.646 181.383 380.946 166 380.946 166C380.717 166.093 380.497 166.185 380.268 166.278Z" fill="#E2AD51"/>
<path d="M349 187.928C349 187.928 351.519 190.874 355 187C355 187 350.826 189.109 350.102 187.418L349 187.928Z" fill="#6CAA62"/>
<path d="M379 186.553C379 186.553 376.658 182.872 373 186.845C373 186.845 377.25 184.971 377.885 187L379 186.553Z" fill="#6CAA62"/>
<path d="M363 180.776C363 180.776 360.658 178.936 357 180.922C357 180.922 361.25 179.986 361.884 181L363 180.776Z" fill="#6CAA62"/>
<path d="M399 182.295C399 182.295 401.684 184.547 405 181C405 181 400.905 183.132 400.093 181.767L399 182.295Z" fill="#6CAA62"/>
<path d="M385 177.295C385 177.295 387.684 179.547 391 176C391 176 386.905 178.132 386.093 176.766L385 177.295Z" fill="#6CAA62"/>
<path d="M363.953 178.219C363.953 178.219 346.051 181.466 344.101 183.404C342.144 185.352 369.248 183.083 365.516 184.8C361.784 186.517 347.46 186.768 353.155 188.585C358.849 190.402 396.735 185.826 397.927 183.003C399.119 180.18 385.262 184.249 386.853 181.055C388.445 177.871 388.153 175.432 363.953 178.219Z" fill="#FF6038"/>
<path d="M389.997 178.789C389.997 178.789 395.718 177.126 398.543 178.628C401.368 180.129 390.209 181.71 389.283 180.66C388.358 179.598 389.997 178.789 389.997 178.789Z" fill="#C33F1D"/>
<path d="M335.897 186.526C335.897 186.526 341.046 185.418 343.589 186.418C346.131 187.419 336.088 188.473 335.255 187.773C334.422 187.073 335.897 186.526 335.897 186.526Z" fill="#C43F1D"/>
<path opacity="0.57" d="M335 187.824C338.141 188.474 341.34 188.603 344.53 188.662C347.719 188.7 350.911 188.607 354.096 188.435C360.467 188.119 366.822 187.493 373.156 186.668C379.487 185.813 385.794 184.84 392.044 183.521C395.164 182.862 398.277 182.133 401.355 181.268C404.413 180.394 407.491 179.438 410.316 178.018L410.419 178.954C407.361 178.274 404.157 178.096 400.989 177.983C397.814 177.893 394.627 177.945 391.437 178.067C385.067 178.312 378.709 178.908 372.372 179.623C366.03 180.368 359.709 181.312 353.442 182.563C350.307 183.174 347.179 183.854 344.087 184.681C340.997 185.518 337.913 186.424 335 187.824ZM335 187.824C337.876 186.348 340.951 185.362 344.023 184.447C347.107 183.55 350.216 182.782 353.351 182.09C359.617 180.739 365.936 179.703 372.288 178.866C378.63 178.03 385.011 177.461 391.403 177.164C394.6 177.02 397.806 176.956 401.008 177.033C404.212 177.13 407.422 177.277 410.628 177.98C410.882 178.039 411.045 178.301 410.989 178.571C410.958 178.726 410.859 178.859 410.732 178.925C407.777 180.381 404.679 181.32 401.583 182.198C398.485 183.056 395.352 183.777 392.211 184.418C385.928 185.701 379.595 186.698 373.242 187.435C366.887 188.161 360.504 188.71 354.112 188.927C350.919 189.02 347.718 189.033 344.52 188.915C341.328 188.756 338.121 188.547 335 187.824Z" fill="#D4918E"/>
<path opacity="0.57" d="M394 180.595C392.27 180.265 390.496 180.208 388.735 180.176C386.975 180.153 385.205 180.205 383.45 180.292C379.925 180.44 376.41 180.743 372.917 181.153C369.415 181.565 365.935 182.075 362.473 182.739C360.747 183.07 359.026 183.438 357.332 183.876C355.639 184.314 353.941 184.799 352.387 185.515L352.329 185.044C354.023 185.386 355.791 185.481 357.536 185.533C359.289 185.585 361.053 185.561 362.813 185.501C366.331 185.381 369.85 185.106 373.356 184.73C376.862 184.346 380.355 183.862 383.81 183.226C385.539 182.922 387.273 182.58 388.98 182.168C390.685 181.747 392.386 181.29 394 180.595ZM394 180.595C392.411 181.333 390.714 181.826 389.013 182.284C387.311 182.732 385.592 183.117 383.859 183.468C380.398 184.142 376.898 184.645 373.396 185.056C369.884 185.46 366.368 185.763 362.834 185.912C361.066 185.982 359.296 186.025 357.524 185.985C355.753 185.945 353.977 185.869 352.205 185.517C352.067 185.486 351.974 185.359 352.006 185.227C352.025 185.151 352.084 185.081 352.148 185.055C353.788 184.329 355.497 183.862 357.209 183.422C358.924 183 360.656 182.64 362.393 182.317C365.867 181.679 369.37 181.193 372.875 180.809C376.39 180.433 379.909 180.157 383.437 180.036C385.208 179.993 386.973 179.979 388.738 180.047C390.496 180.125 392.275 180.228 394 180.595Z" fill="#D4918E"/>
<path d="M364 188.664C364 188.664 362.385 187.904 360.871 188.01C359.357 188.116 359.603 188.55 358.625 188.447C357.648 188.343 357 189 357 189L364 188.664Z" fill="#C33F1D"/>
<path opacity="0.57" d="M358 188.968C358.256 188.739 358.64 188.59 359.07 188.648C359.267 188.706 359.52 188.453 359.839 188.288C360.157 188.115 360.552 187.98 360.95 188.002C361.348 188.017 361.705 188.136 362 188.325C361.637 188.3 361.292 188.272 360.976 188.328C360.66 188.384 360.378 188.491 360.103 188.644L359.65 188.886C359.566 188.925 359.464 188.967 359.341 188.987C359.27 188.995 359.209 189.009 359.135 188.993C359.052 188.978 358.996 188.96 358.977 188.954C358.706 188.873 358.349 188.893 358 188.968Z" fill="#D4918E"/>
<path d="M361.802 184.241C361.802 184.241 359.771 183.346 357.694 185.005C356.168 186.22 357.575 187.827 357.979 188.302C358.383 188.777 359.985 189.702 362.126 188.091C364.267 186.481 361.802 184.241 361.802 184.241Z" fill="#D3BC8A"/>
<path d="M358.114 186.385C357.88 185.89 358.013 185.314 358.443 184.946C358.905 184.55 359.702 184.034 360.768 184.002C362.531 183.936 363.414 185.847 362.811 186.902C362.209 187.958 359.918 188.18 359.465 187.874C359.159 187.659 358.437 187.076 358.114 186.385Z" fill="#F4E0B0"/>
<path d="M359.997 185.442C360.029 185.713 359.829 185.965 359.558 185.997C359.288 186.029 359.035 185.83 359.003 185.559C358.972 185.287 359.171 185.035 359.442 185.003C359.712 184.971 359.965 185.171 359.997 185.442Z" fill="#D3BC8A"/>
<path d="M346.01 179.432C346.01 179.432 342.62 177.826 339.157 180.807C336.612 183.002 338.96 185.895 339.635 186.744C340.3 187.594 342.976 189.267 346.542 186.363C350.108 183.458 346.01 179.432 346.01 179.432Z" fill="#D3BC8A"/>
<path d="M339.205 184.184C338.784 183.312 339.026 182.311 339.803 181.665C340.631 180.97 342.065 180.075 343.98 180.003C347.146 179.893 348.743 183.226 347.664 185.076C346.586 186.927 342.471 187.316 341.653 186.777C341.087 186.408 339.785 185.39 339.205 184.184Z" fill="#F4E0B0"/>
<path d="M341.558 182.997C341.832 182.965 342.029 182.716 341.997 182.442C341.964 182.167 341.716 181.971 341.442 182.003C341.168 182.035 340.971 182.284 341.003 182.558C341.036 182.833 341.284 183.029 341.558 182.997Z" fill="#D3BC8A"/>
<path d="M343.997 185.442C344.029 185.716 343.833 185.964 343.558 185.997C343.284 186.029 343.036 185.833 343.003 185.558C342.971 185.284 343.167 185.036 343.442 185.003C343.716 184.971 343.964 185.167 343.997 185.442Z" fill="#D3BC8A"/>
<path d="M350 184.7C350 184.7 349.632 183.312 345.899 184.445C342.167 185.579 341.551 187.414 340.162 187.679C338.782 187.943 346.6 189.051 350 184.7Z" fill="#C43F1D"/>
<path opacity="0.57" d="M349 185.007C347.756 185.258 346.567 185.52 345.401 185.857C344.821 186.015 344.246 186.2 343.682 186.385C343.107 186.57 342.571 186.794 342 187C342.847 186.338 343.975 185.843 345.181 185.503C345.791 185.336 346.416 185.196 347.051 185.118C347.696 185.032 348.346 184.981 349 185.007Z" fill="#D4918E"/>
<path d="M391.803 180.241C391.803 180.241 389.771 179.346 387.694 181.005C386.168 182.22 387.575 183.827 387.979 184.302C388.383 184.777 389.985 185.702 392.126 184.091C394.266 182.472 391.803 180.241 391.803 180.241Z" fill="#D3BC8A"/>
<path d="M388.114 182.981C387.88 182.362 388.014 181.643 388.443 181.182C388.905 180.687 389.702 180.043 390.768 180.002C392.531 179.919 393.414 182.308 392.811 183.627C392.209 184.947 389.917 185.225 389.465 184.842C389.158 184.563 388.445 183.834 388.114 182.981Z" fill="#F4E0B0"/>
<path d="M392.997 183.441C393.029 183.713 392.83 183.965 392.559 183.997C392.287 184.029 392.035 183.829 392.003 183.559C391.971 183.287 392.171 183.035 392.442 183.003C392.713 182.971 392.966 183.171 392.997 183.441Z" fill="#D3BC8A"/>
<path d="M386 186C386 186 387.097 183.352 389.371 183.052C391.654 182.751 391.597 183.859 392.422 183.567C393.245 183.265 395 184.522 395 184.522L386 186Z" fill="#C33F1D"/>
<path opacity="0.57" d="M387 185C387.257 184.674 387.657 184.4 388.167 184.204C388.417 184.104 388.711 184.037 389.011 184.008C389.333 183.989 389.604 184.006 389.894 184.028C390.458 184.078 391.01 184.223 391.491 184.343C391.62 184.37 391.709 184.388 391.813 184.381C391.926 184.372 392.045 184.344 392.183 184.315C392.422 184.259 392.833 184.208 393 184.389C392.475 184.18 392.154 184.736 391.403 184.599C390.835 184.524 390.356 184.411 389.831 184.364C389.294 184.305 388.844 184.302 388.361 184.433C387.868 184.565 387.427 184.767 387 185Z" fill="#D4918E"/>
<path d="M404.009 172.384C404.009 172.384 400.62 170.956 397.157 173.606C394.612 175.557 396.96 178.129 397.635 178.883C398.3 179.639 400.976 181.127 404.542 178.545C408.108 175.963 404.009 172.384 404.009 172.384Z" fill="#D3BC8A"/>
<path d="M398.205 176.184C397.784 175.312 398.026 174.311 398.803 173.665C399.631 172.97 401.065 172.075 402.98 172.003C406.146 171.893 407.743 175.226 406.664 177.076C405.586 178.927 401.471 179.316 400.652 178.777C400.076 178.401 398.785 177.39 398.205 176.184Z" fill="#F4E0B0"/>
<path d="M405.997 177.442C406.029 177.716 405.833 177.964 405.558 177.997C405.284 178.029 405.035 177.833 405.003 177.558C404.971 177.284 405.167 177.036 405.442 177.003C405.716 176.971 405.966 177.18 405.997 177.442Z" fill="#D3BC8A"/>
<path d="M396 180.51C396 180.51 396.695 177.081 399.215 177.002C401.734 176.922 401.455 179.182 403.113 178.654C404.77 178.126 406 179.022 406 179.022C406 179.022 397.479 182.186 396 180.51Z" fill="#C33F1D"/>
<path opacity="0.57" d="M397 179.63C397.334 178.939 397.902 178.305 398.711 178.069C399.541 177.84 400.399 178.215 400.993 178.719C401.29 178.971 401.556 179.226 401.83 179.363C402.094 179.512 402.421 179.484 402.792 179.47C403.149 179.438 403.513 179.373 403.899 179.325C404.249 179.315 404.735 179.235 405 179.565C404.676 179.349 404.301 179.501 403.952 179.607C403.602 179.702 403.245 179.831 402.863 179.92C402.502 180.006 402.053 180.061 401.62 179.879C401.207 179.694 400.927 179.409 400.644 179.187C400.117 178.729 399.454 178.437 398.803 178.516C398.131 178.597 397.515 179.077 397 179.63Z" fill="#D4918E"/>
<path d="M344.013 117.074C342.52 112.616 338.92 110.9 335.303 112.111C331.68 113.324 329.845 116.86 331.338 121.318C332.829 125.77 336.425 127.494 340.048 126.281C343.664 125.07 345.506 121.532 344.013 117.074ZM341.501 117.915C342.552 121.054 341.546 123.285 339.297 124.038C337.054 124.789 334.901 123.615 333.85 120.477C332.799 117.339 333.811 115.105 336.054 114.354C338.303 113.601 340.45 114.777 341.501 117.915ZM350.163 111.18L348.014 111.899L347.741 111.084C347.471 110.276 347.656 109.712 348.566 109.408C348.95 109.279 349.302 109.259 349.524 109.252L349.385 107.201C349.032 107.199 348.28 107.257 347.438 107.538C345.64 108.141 344.55 109.651 345.249 111.739L345.576 112.716L344.048 113.228L344.679 115.113L346.208 114.601L349.04 123.06L351.478 122.244L348.646 113.785L350.794 113.066L350.163 111.18ZM357.691 108.659L355.543 109.378L355.27 108.564C354.999 107.755 355.185 107.191 356.094 106.887C356.478 106.758 356.83 106.738 357.053 106.731L356.913 104.68C356.56 104.679 355.808 104.736 354.966 105.018C353.168 105.62 352.078 107.131 352.778 109.218L353.105 110.195L351.576 110.707L352.207 112.592L353.736 112.081L356.568 120.539L359.006 119.723L356.174 111.264L358.322 110.545L357.691 108.659Z" fill="white"/>
<path d="M327.262 87.916C327.367 87.8779 327.441 87.8361 327.484 87.7907C327.518 87.719 327.578 87.6377 327.664 87.5469C327.82 87.4012 327.998 87.277 328.199 87.1744C328.4 87.0717 328.592 86.9428 328.773 86.7875C328.869 86.723 328.947 86.6502 329.007 86.5689C329.067 86.4876 329.158 86.41 329.28 86.336C329.34 86.2547 329.409 86.1998 329.488 86.1712C329.593 86.133 329.681 86.0865 329.75 86.0315C329.846 85.9671 329.928 85.9074 329.998 85.8524C330.094 85.7879 330.176 85.7282 330.246 85.6733C330.368 85.5993 330.486 85.5564 330.601 85.5445C330.706 85.5064 330.82 85.4503 330.942 85.3763C331.081 85.2664 331.224 85.1697 331.373 85.0861C331.521 85.0026 331.674 84.9322 331.832 84.8749C332.114 84.8322 332.282 84.8013 332.335 84.7822C332.404 84.7273 332.465 84.6902 332.518 84.6712C332.807 84.5662 333.091 84.5677 333.368 84.6757C333.636 84.7573 333.917 84.8341 334.211 84.9062C334.495 84.9519 334.762 84.9892 335.011 85.0182C335.276 85.0113 335.538 85.0355 335.796 85.0908C335.976 85.1747 336.088 85.2382 336.133 85.2813C336.169 85.2981 336.227 85.2922 336.306 85.2635C336.719 85.5008 337.093 85.7523 337.428 86.0181C337.753 86.2577 338.05 86.6263 338.32 87.1241C338.468 87.3682 338.598 87.6039 338.71 87.8312C338.813 88.0323 338.917 88.2775 339.021 88.567C339.098 88.7776 339.148 88.9977 339.171 89.2273C339.221 89.4474 339.285 89.6627 339.361 89.8733C339.504 90.2681 339.571 90.6162 339.561 90.9175C339.532 91.1662 339.511 91.397 339.499 91.6099C339.504 91.7869 339.505 91.9949 339.502 92.2341C339.513 92.6766 339.503 93.1418 339.472 93.6297C339.457 94.0817 339.411 94.5301 339.334 94.9749C339.252 95.2427 339.216 95.3897 339.226 95.4161C339.262 95.4328 339.276 95.4723 339.269 95.5345L339.042 96.0186C338.987 96.2768 338.932 96.5351 338.876 96.7933C338.812 97.0253 338.711 97.2404 338.574 97.4388C338.572 97.678 338.481 97.9194 338.301 98.1632C338.148 98.3974 338.039 98.6305 337.974 98.8624C337.95 98.9605 337.917 99.0765 337.877 99.2103C337.826 99.3179 337.771 99.4123 337.711 99.4936C337.678 99.5653 337.626 99.6286 337.557 99.6836C337.478 99.7122 337.422 99.7624 337.388 99.8341C337.419 100.002 337.396 100.144 337.319 100.261C337.243 100.378 337.189 100.517 337.157 100.677C336.726 101.131 336.341 101.464 336.001 101.677C335.661 101.889 335.326 102.115 334.996 102.354C334.692 102.583 334.401 102.807 334.123 103.027C333.882 103.264 333.627 103.505 333.358 103.751C333.107 103.961 332.841 104.132 332.562 104.263C332.43 104.311 332.294 104.346 332.152 104.367C332.047 104.405 331.933 104.461 331.811 104.535C331.577 104.71 331.428 104.793 331.366 104.786C331.304 104.779 331.242 104.771 331.18 104.764C330.969 104.84 330.772 104.912 330.588 104.979C330.413 105.072 330.21 105.086 329.978 105.021C329.686 105.038 329.395 105.098 329.106 105.203C328.826 105.334 328.517 105.387 328.18 105.36C328.055 105.346 327.859 105.298 327.592 105.216C327.422 105.158 327.244 105.119 327.057 105.097C326.897 105.066 326.758 105.012 326.641 104.935C326.235 104.636 325.929 104.449 325.723 104.374C325.535 104.264 325.354 104.136 325.182 103.99C324.957 103.863 324.749 103.7 324.558 103.501C324.393 103.293 324.216 103.09 324.024 102.891C323.943 102.831 323.875 102.766 323.82 102.697C323.756 102.601 323.678 102.51 323.587 102.424C323.535 102.116 323.443 101.821 323.312 101.541C323.181 101.261 323.128 100.953 323.155 100.615C323.337 100.46 323.465 100.28 323.539 100.074C323.631 99.8327 323.762 99.6212 323.935 99.4396C324.262 99.4399 324.606 99.524 324.964 99.6918C325.115 99.6967 325.236 99.7423 325.326 99.8285C325.417 99.9147 325.539 100.005 325.692 100.098C326.062 100.381 326.324 100.569 326.477 100.662C326.656 100.746 326.827 100.848 326.99 100.968C327.303 101.092 327.651 101.189 328.033 101.259C328.203 101.317 328.365 101.392 328.518 101.486C328.687 101.543 328.852 101.588 329.013 101.619C329.331 101.593 329.512 101.602 329.558 101.645C329.62 101.652 329.682 101.659 329.744 101.666C330.008 101.571 330.144 101.537 330.153 101.563C330.18 101.553 330.224 101.552 330.286 101.559C330.463 101.555 330.679 101.492 330.932 101.37C331.212 101.239 331.4 101.141 331.496 101.076C331.953 100.941 332.314 100.705 332.58 100.371C332.872 100.027 333.161 99.7136 333.446 99.4317C333.608 99.2238 333.75 99.0386 333.87 98.876C333.989 98.7135 334.109 98.551 334.229 98.3885C334.365 98.1901 334.484 97.9834 334.585 97.7682C334.685 97.5531 334.786 97.3379 334.887 97.1228C334.997 96.9339 335.089 96.7367 335.164 96.5311C335.255 96.2896 335.355 96.0745 335.466 95.8856C335.576 95.6968 335.686 95.508 335.796 95.3191C335.906 95.1303 335.986 94.9379 336.034 94.7418C336.048 94.6174 336.058 94.4799 336.063 94.3292C336.068 94.1786 336.073 94.0279 336.078 93.8772C336.08 93.638 336.084 93.4431 336.089 93.2924C336.111 93.1059 336.11 92.8978 336.086 92.6682C336.168 92.0727 336.157 91.4664 336.052 90.8492C335.974 90.2225 335.75 89.604 335.38 88.9937C334.87 88.821 334.349 88.6972 333.816 88.6225C333.282 88.5478 332.714 88.5006 332.112 88.4808C331.813 88.5594 331.52 88.6954 331.232 88.8889C330.962 89.0464 330.678 89.2088 330.382 89.3759C330.181 89.4785 330.045 89.5573 329.976 89.6122C329.907 89.6672 329.837 89.7221 329.768 89.7771C329.725 89.8225 329.655 89.8774 329.559 89.9419C329.48 89.9705 329.406 90.0123 329.337 90.0672C328.913 90.459 328.535 90.8939 328.202 91.3719C327.895 91.8404 327.556 92.2609 327.185 92.6337C327.135 92.7412 327.071 92.8536 326.995 92.9707C326.908 93.0615 326.809 93.1571 326.697 93.2574C326.443 93.3791 326.187 93.4123 325.929 93.357C325.725 93.6989 325.424 93.8528 325.024 93.8189C324.766 93.7636 324.618 93.6833 324.58 93.5781C324.558 93.4369 324.432 93.3339 324.2 93.2691C323.903 93.1086 323.667 92.8667 323.49 92.5437C323.304 92.1943 323.206 91.8426 323.197 91.4886C323.36 91.2807 323.433 91.0308 323.417 90.739C323.417 90.4113 323.409 90.1016 323.392 89.8098C323.422 89.2334 323.456 88.6702 323.495 88.1201C323.524 87.5437 323.509 86.9685 323.45 86.3944C323.474 85.9687 323.503 85.5562 323.537 85.1568C323.597 84.7478 323.653 84.3258 323.704 83.8905C323.805 83.3477 323.863 82.8503 323.877 82.3982C323.883 81.9199 323.978 81.4835 324.162 81.089C324.222 81.0078 324.295 80.9218 324.381 80.831C324.458 80.7139 324.522 80.6015 324.572 80.4939C324.699 80.2692 324.725 80.0959 324.651 79.9738C324.594 79.8159 324.621 79.6425 324.731 79.4537C324.784 79.1069 324.837 78.7602 324.89 78.4134C324.969 78.0572 325.021 77.6662 325.045 77.2404C325.05 77.0898 325.046 76.9128 325.031 76.7095C325.017 76.5061 325.008 76.316 325.003 76.139C325.011 75.7491 324.997 75.382 324.961 75.0375C324.926 74.6931 324.971 74.3643 325.095 74.0511C325.155 73.9698 325.22 73.9017 325.289 73.8468C325.359 73.7919 325.454 73.7274 325.576 73.6534C326.015 73.1372 326.55 72.7647 327.181 72.5357C327.803 72.2805 328.43 72.0384 329.062 71.8094C329.141 71.7808 329.215 71.739 329.285 71.6841C329.354 71.6292 329.441 71.5826 329.547 71.5444C329.951 71.4277 330.359 71.2798 330.77 71.1009C331.182 70.9219 331.564 70.7836 331.915 70.6859C332.394 70.3635 332.892 70.0938 333.409 69.8767C333.916 69.6333 334.379 69.391 334.798 69.1499C335.226 68.9351 335.632 68.6987 336.015 68.4408C336.388 68.1566 336.803 67.9465 337.26 67.8107C337.418 67.7535 337.581 67.7094 337.748 67.6785C337.933 67.6117 338.072 67.5018 338.165 67.3488C338.376 67.2725 338.599 67.1915 338.836 67.1056C339.063 66.9934 339.27 66.9482 339.457 66.9699C339.574 67.0466 339.691 67.1232 339.808 67.1999C339.952 67.267 340.048 67.4106 340.098 67.6307C339.868 68.3097 339.558 68.8093 339.168 69.1294C338.777 69.4495 338.446 69.8079 338.173 70.2046C338.031 70.5537 337.869 70.8058 337.688 70.9611C337.522 71.0805 337.354 71.231 337.181 71.4126C337.069 71.5129 336.974 71.6217 336.897 71.7388C336.847 71.8464 336.774 71.9324 336.678 71.9969L335.917 72.362C335.506 72.5409 335.231 72.6853 335.092 72.7952C334.943 72.8788 334.79 72.9492 334.632 73.0064C334.51 73.0804 334.366 73.1329 334.198 73.1638C334.057 73.1852 333.904 73.2556 333.739 73.375C333.459 73.5062 333.293 73.6257 333.243 73.7332C332.884 73.8931 332.548 74.0745 332.234 74.2775C331.911 74.4541 331.575 74.6355 331.226 74.8217C330.955 74.9793 330.69 75.15 330.429 75.3339C330.158 75.4915 329.879 75.667 329.592 75.8604C329.401 75.9894 329.196 76.1231 328.978 76.2616C328.787 76.3905 328.582 76.5243 328.364 76.6628C328.268 77.0549 328.19 77.4554 328.13 77.8644C328.096 78.2638 328.044 78.6548 327.974 79.0374C327.948 79.3746 327.898 79.6902 327.826 79.9843C327.771 80.2426 327.725 80.5272 327.689 80.8381C327.662 81.1753 327.657 81.4898 327.674 81.7816C327.69 82.0734 327.68 82.3747 327.644 82.6856C327.516 83.5657 327.402 84.4409 327.301 85.3114C327.216 86.1461 327.203 87.0143 327.262 87.916ZM353.671 63.426C353.875 63.4119 354.035 63.4431 354.152 63.5198C354.295 63.5869 354.457 63.6624 354.636 63.7463C354.815 63.8302 354.995 63.9141 355.174 63.998C355.37 64.0461 355.562 64.1252 355.751 64.2354C356.074 64.3865 356.375 64.5602 356.655 64.7566C356.951 64.9172 357.232 65.1578 357.497 65.4786C357.753 65.7731 357.988 66.1345 358.203 66.5628C358.434 66.9553 358.636 67.3884 358.808 67.8622C358.979 68.3359 359.138 68.8144 359.283 69.2977C359.455 69.7715 359.599 70.2105 359.716 70.6149C359.775 71.1889 359.848 71.7583 359.933 72.3228C360.035 72.8515 360.077 73.4172 360.057 74.0199C360.052 74.1706 360.056 74.3476 360.071 74.5509C360.102 74.7183 360.119 74.8905 360.124 75.0675C360.15 75.3857 360.189 75.699 360.241 76.0076C360.294 76.3162 360.333 76.6296 360.359 76.9477C360.411 77.2563 360.424 77.5792 360.397 77.9164C360.387 78.2178 360.395 78.5275 360.421 78.8456C360.287 79.4602 360.193 80.1047 360.139 80.7791C360.103 81.4176 360.048 82.0478 359.976 82.6696C359.954 82.8561 359.919 83.0474 359.871 83.2435C359.823 83.4396 359.775 83.6356 359.727 83.8317C359.705 84.0183 359.684 84.2048 359.662 84.3913C359.64 84.5779 359.605 84.7692 359.557 84.9652C359.456 85.5081 359.329 86.0604 359.175 86.6223C359.022 87.1842 358.881 87.7413 358.754 88.2937C358.306 89.1112 357.817 89.8988 357.288 90.6564C356.784 91.4045 356.394 92.2161 356.115 93.0912C355.84 93.3994 355.626 93.6707 355.472 93.9049C355.391 94.1727 355.316 94.3783 355.249 94.5217C354.967 94.8922 354.757 95.1766 354.621 95.3749C354.51 95.5638 354.395 95.7394 354.276 95.9019C353.833 96.2411 353.517 96.5194 353.328 96.7369C353.148 96.9806 352.926 97.1502 352.663 97.2456C352.312 97.3433 351.941 97.3883 351.551 97.3808C351.197 97.3899 350.861 97.4075 350.543 97.4335C350.232 97.3973 350.063 97.384 350.037 97.3935C350.047 97.4198 350.025 97.4425 349.972 97.4616C349.42 97.3343 348.884 97.171 348.366 96.972C347.837 96.7466 347.339 96.4806 346.87 96.1739C346.598 95.9154 346.338 95.6077 346.089 95.2511L345.348 94.3139C345.219 94.1225 345.094 93.9442 344.975 93.779C344.872 93.578 344.757 93.3817 344.628 93.1903C344.363 92.8695 344.124 92.5392 343.911 92.1993C343.715 91.8236 343.507 91.4527 343.285 91.0865C343.211 90.9644 343.133 90.8735 343.052 90.8136C342.97 90.7537 342.889 90.6938 342.808 90.6339C342.667 90.3276 342.556 90.1446 342.475 90.0847C342.42 90.0153 342.37 89.959 342.324 89.9159C342.269 89.8465 342.223 89.7591 342.185 89.6538C342.146 89.5486 342.095 89.4481 342.031 89.3523C341.823 88.8618 341.712 88.351 341.699 87.8201C341.615 87.6717 341.549 87.5317 341.502 87.4001C341.471 87.2326 341.44 87.0652 341.409 86.8977C341.414 86.747 341.411 86.6143 341.399 86.4995C341.413 86.3751 341.423 86.2376 341.428 86.0869C341.433 85.9363 341.416 85.8083 341.378 85.703C341.366 85.5882 341.367 85.4686 341.382 85.3442C341.447 84.7846 341.498 84.3494 341.534 84.0385C341.561 83.7013 341.597 83.3904 341.643 83.1058C341.557 82.5413 341.543 82.0103 341.601 81.5129C341.686 81.0059 341.792 80.5205 341.922 80.0566C342.042 79.5665 342.167 79.0894 342.297 78.6256C342.453 78.1522 342.573 77.662 342.657 77.155C342.859 76.397 343.058 75.7144 343.255 75.1071C343.452 74.4998 343.644 73.8794 343.831 73.2457C344.028 72.6384 344.278 72.0563 344.582 71.4994C344.877 70.9161 345.195 70.3543 345.535 69.8142C345.645 69.6253 345.742 69.4413 345.826 69.262C345.936 69.0732 346.047 68.8843 346.157 68.6955C346.267 68.5067 346.377 68.3178 346.487 68.129C346.598 67.9402 346.726 67.7597 346.872 67.5877C346.975 67.461 347.091 67.3296 347.22 67.1934C347.376 67.0477 347.505 66.9115 347.608 66.7848C347.754 66.6128 347.922 66.418 348.111 66.2006C348.3 65.9831 348.486 65.7967 348.668 65.6415C348.807 65.5316 348.959 65.417 349.124 65.2975C349.289 65.1781 349.427 65.024 349.537 64.8352C349.668 64.7875 349.79 64.7135 349.903 64.6131C350.042 64.5033 350.172 64.4113 350.294 64.3373C350.433 64.2274 350.582 64.1439 350.739 64.0866C350.914 63.9935 351.089 63.9004 351.264 63.8073C351.448 63.7406 351.624 63.6917 351.791 63.6608C351.949 63.6036 352.125 63.5547 352.319 63.5143C352.46 63.4929 352.675 63.4297 352.965 63.3248C353.28 63.2103 353.516 63.2441 353.671 63.426ZM356.17 72.1681C356.158 72.0533 356.125 71.9612 356.07 71.8918C356.031 71.7865 356.024 71.6849 356.048 71.5868C355.802 71.3187 355.657 70.9992 355.612 70.6285C355.583 70.2218 355.538 69.8511 355.477 69.5161C355.295 69.3437 355.153 69.157 355.05 68.956C354.948 68.755 354.81 68.5815 354.638 68.4354C354.163 68.1909 353.839 67.9956 353.667 67.8496C353.485 67.6772 353.303 67.5048 353.122 67.3324C352.89 67.2675 352.629 67.2876 352.34 67.3925C352.076 67.4879 351.853 67.569 351.669 67.6358C351.307 67.7072 351.084 67.7882 350.997 67.879C350.937 67.9603 350.855 68.02 350.75 68.0582C350.506 68.2062 350.261 68.3542 350.017 68.5022C349.79 68.6144 349.581 68.735 349.389 68.8639C349.228 69.1603 349.081 69.452 348.947 69.7388C348.803 69.9994 348.664 70.2731 348.53 70.56C348.472 70.7297 348.415 70.8995 348.357 71.0692C348.29 71.2127 348.214 71.374 348.131 71.5533C348.047 71.7326 347.968 71.9251 347.893 72.1307C347.836 72.3004 347.765 72.475 347.681 72.6543C347.525 73.1277 347.374 73.6142 347.227 74.1139C347.071 74.5874 346.92 75.0739 346.774 75.5736C346.606 76.2599 346.397 76.9162 346.147 77.5426C345.888 78.1426 345.693 78.7942 345.561 79.4972C345.464 79.8894 345.378 80.3078 345.301 80.7526C345.241 81.1616 345.167 81.5753 345.081 81.9937C345.047 82.0654 345.032 82.1455 345.034 82.234C345.063 82.313 345.065 82.4015 345.041 82.4995C345.026 82.6239 344.994 82.7399 344.944 82.8474C344.92 82.9455 344.896 83.0435 344.871 83.1415C344.847 83.2396 344.85 83.3281 344.878 83.407C344.907 83.486 344.909 83.5745 344.885 83.6725C344.861 83.7706 344.837 83.8686 344.813 83.9666C344.78 84.0384 344.759 84.1053 344.752 84.1675C344.745 84.2297 344.755 84.3002 344.784 84.3792C344.839 84.4486 344.868 84.5276 344.87 84.6161C344.881 85.0585 344.934 85.3671 345.027 85.5418C345.11 85.6902 345.159 85.8661 345.173 86.0694C345.173 86.397 345.201 86.6398 345.259 86.7978C345.333 86.9198 345.385 87.0646 345.416 87.232C345.631 87.988 345.832 88.7488 346.02 89.5144C346.199 90.2536 346.463 90.9021 346.814 91.4597C347.003 91.57 347.149 91.7256 347.252 91.9266C347.381 92.1181 347.518 92.2916 347.664 92.4472C347.826 92.567 347.953 92.67 348.044 92.7562C348.271 92.9717 348.474 93.1214 348.653 93.2053C348.849 93.2533 349.086 93.3313 349.363 93.4392C349.741 93.6597 349.987 93.764 350.102 93.7521C350.233 93.7044 350.404 93.6424 350.615 93.5661C350.773 93.5089 350.936 93.4648 351.103 93.4339C351.261 93.3766 351.409 93.2931 351.548 93.1832C351.74 93.0543 351.913 92.9169 352.069 92.7712C352.215 92.5991 352.361 92.4271 352.507 92.255C352.929 91.7747 353.345 91.2813 353.757 90.7747C354.195 90.2585 354.612 89.765 355.007 89.2943C355.051 88.9212 355.117 88.5697 355.206 88.2397C355.321 87.9002 355.428 87.5786 355.526 87.275C355.593 87.1316 355.639 87.0108 355.663 86.9128C355.703 86.7789 355.754 86.6713 355.814 86.5901C355.917 86.1357 356.061 85.7114 356.246 85.3169C356.421 84.8961 356.55 84.4323 356.635 83.9253C356.764 83.4615 356.848 82.9545 356.887 82.4044C356.933 82.1199 356.957 81.858 356.96 81.6188C356.989 81.3701 356.987 81.1178 356.953 80.8618C357.016 80.5414 357.037 80.3106 357.015 80.1695C357.02 80.0188 357.025 79.8681 357.03 79.7174C357.035 79.5668 357.023 79.4519 356.995 79.373C356.983 79.2582 356.979 79.1254 356.984 78.9747C357.013 78.726 357 78.567 356.945 78.4976C356.917 78.4186 356.906 78.348 356.913 78.2858C356.923 77.9845 356.925 77.7011 356.918 77.4356C356.901 77.1438 356.872 76.8567 356.829 76.5745C356.836 76.1846 356.826 75.7864 356.798 75.3797C356.76 74.9468 356.74 74.5222 356.738 74.1061C356.451 73.9718 356.294 73.7014 356.265 73.2948C356.264 72.8786 356.232 72.5031 356.17 72.1681ZM378.651 54.4618C378.773 54.0601 378.956 53.7853 379.2 53.6372C379.445 53.4892 379.702 53.3364 379.972 53.1788C380.195 53.2173 380.369 53.2881 380.496 53.391C380.577 53.4509 380.637 53.5335 380.675 53.6388C380.73 53.7082 380.798 53.7729 380.879 53.8327C381.078 53.9693 381.28 54.0747 381.485 54.1491C381.717 54.2139 381.856 54.4317 381.901 54.8025C381.903 54.891 381.906 55.0237 381.911 55.2007C381.906 55.3514 381.878 55.4805 381.828 55.5881C381.814 55.7124 381.755 55.838 381.652 55.9646C381.549 56.0913 381.469 56.2395 381.411 56.4092C381.277 56.6961 381.134 57.0009 380.983 57.3236C380.849 57.6105 380.705 57.871 380.552 58.1053C380.453 58.4089 380.346 58.6862 380.228 58.9373C380.101 59.1619 379.979 59.3998 379.861 59.6508C379.775 60.0693 379.625 60.4362 379.412 60.7517C379.153 61.3518 378.921 61.9866 378.717 62.656C378.53 63.2897 378.294 63.9113 378.009 64.5209C377.812 65.4558 377.586 66.3118 377.331 67.0889C376.864 67.8538 376.506 68.7132 376.256 69.6673C376.033 70.6118 375.769 71.5263 375.464 72.411C375.406 72.5807 375.349 72.7505 375.291 72.9202C375.224 73.0637 375.184 73.2418 375.172 73.4547C375.055 73.7057 374.95 73.9519 374.859 74.1934C374.768 74.4349 374.677 74.6763 374.586 74.9178C374.485 75.1329 374.371 75.3529 374.244 75.5776C374.144 75.7927 374.048 76.021 373.957 76.2625L373.554 77.1231C373.479 77.3287 373.392 77.5391 373.291 77.7542C373.217 77.9599 373.134 78.1834 373.043 78.4249C372.509 79.3332 372.047 80.3193 371.659 81.3832C371.584 81.5888 371.533 81.816 371.504 82.0647C371.501 82.3039 371.467 82.5394 371.402 82.7714C371.249 83.0056 371.132 83.2566 371.05 83.5244C370.985 83.7563 370.871 83.9762 370.709 84.1842C370.54 84.8704 370.313 85.4741 370.025 85.9952C369.864 86.2916 369.686 86.5796 369.49 86.8592C369.319 87.1293 369.167 87.4078 369.033 87.6947C368.842 87.8236 368.678 87.9873 368.541 88.1857C368.431 88.3745 368.28 88.5334 368.088 88.6623C368.031 88.8321 367.947 89.0114 367.837 89.2002C367.743 89.3532 367.655 89.5193 367.571 89.6986C367.53 89.8325 367.507 89.9748 367.502 90.1255C367.514 90.2403 367.482 90.3563 367.405 90.4734C367.302 90.6 367.173 90.7362 367.017 90.882C366.888 91.0181 366.775 91.1185 366.679 91.183C366.452 91.2951 366.254 91.3224 366.084 91.2648C365.914 91.2073 365.736 91.1676 365.549 91.1459C365.475 91.0238 365.397 90.8886 365.313 90.7402C365.229 90.5919 365.154 90.4256 365.087 90.2413C365.14 89.8946 365.24 89.6352 365.386 89.4631C365.547 88.839 365.749 88.2449 365.991 87.6807C366.25 87.0806 366.513 86.4937 366.782 85.92C367.086 85.363 367.341 84.7941 367.548 84.2131C367.745 83.6058 368 83.0368 368.314 82.5062C368.462 82.095 368.603 81.7017 368.735 81.3263C368.883 80.9151 369.055 80.5254 369.249 80.1573C369.314 79.9253 369.383 79.7066 369.458 79.501C369.549 79.2595 369.627 79.0228 369.692 78.7909C369.766 78.5852 369.836 78.3665 369.901 78.1345C369.965 77.9026 370.035 77.6838 370.109 77.4782C370.213 76.6962 370.407 76.0004 370.693 75.3908C370.995 74.7454 371.274 74.0784 371.531 73.3898C371.761 72.7108 372.009 72.0402 372.276 71.3779C372.532 70.6894 372.762 70.0104 372.967 69.3409C373.125 68.956 373.27 68.5759 373.402 68.2005C373.551 67.7893 373.678 67.4007 373.783 67.0349C374.1 66.2651 374.353 65.6076 374.542 65.0625C374.732 64.5174 374.935 63.9675 375.15 63.4128C375.328 62.7529 375.55 62.0918 375.816 61.4296C376.109 60.7578 376.339 60.0788 376.507 59.3925C376.589 59.1247 376.706 58.8737 376.86 58.6395C377.039 58.3957 377.17 58.14 377.252 57.8722C376.912 58.0847 376.572 58.2972 376.232 58.5097C375.892 58.7222 375.562 58.961 375.241 59.2262C375.095 59.3982 374.969 59.5033 374.864 59.5415C374.795 59.5964 374.704 59.6741 374.591 59.7744C374.505 59.8652 374.396 59.9344 374.264 59.9821C374.08 60.0489 373.877 60.063 373.654 60.0245C373.432 59.986 373.241 59.9511 373.081 59.9199C372.746 59.9817 372.567 60.1059 372.546 60.2924C372.541 60.4431 372.523 60.5986 372.491 60.7588C372.414 61.2036 372.34 61.573 372.268 61.8671C372.196 62.1612 372.137 62.4506 372.091 62.7351C372.086 62.8858 372.081 63.0365 372.076 63.1872C372.062 63.3115 372.052 63.449 372.047 63.5997C371.984 63.9201 371.891 64.2369 371.766 64.5501C371.632 64.837 371.533 65.1407 371.471 65.4611C371.286 65.8555 371.146 66.2488 371.05 66.641C370.944 67.0068 370.799 67.3869 370.615 67.7814C370.538 67.8985 370.457 68.0024 370.37 68.0932C370.31 68.1745 370.255 68.2689 370.205 68.3765C370.078 68.6012 369.956 68.839 369.838 69.09C369.747 69.3315 369.643 69.5778 369.525 69.8288C369.26 70.1633 369.007 70.4931 368.767 70.8182C368.554 71.1336 368.297 71.4503 367.995 71.7681C367.892 71.8947 367.789 72.0214 367.686 72.148C367.6 72.2388 367.491 72.3081 367.359 72.3558C367.23 72.492 367.11 72.6545 367 72.8433C366.88 73.0058 366.73 73.1647 366.548 73.32C366.151 73.3746 365.722 73.4255 365.263 73.4729C364.804 73.5202 364.391 73.4911 364.025 73.3855C363.234 72.9278 362.584 72.2849 362.076 71.4569C361.966 70.9903 361.87 70.5191 361.787 70.043C361.703 69.567 361.678 69.085 361.709 68.5971C361.714 68.4464 361.724 68.3089 361.738 68.1846C361.753 68.0602 361.763 67.9227 361.768 67.772C361.792 67.3463 361.821 66.9338 361.855 66.5344C361.906 66.0991 362.01 65.6891 362.168 65.3042C362.406 64.563 362.697 63.8469 363.042 63.1561C363.414 62.4557 363.831 61.7984 364.293 61.1842C364.456 60.9763 364.606 60.7732 364.742 60.5748C364.879 60.3764 365.028 60.1733 365.191 59.9654C365.553 59.5663 365.919 59.1804 366.29 58.8077C366.532 58.5712 366.779 58.3478 367.03 58.1376C367.272 57.9011 367.518 57.6777 367.77 57.4675C368.078 57.4152 368.357 57.2397 368.606 56.941C368.882 56.6328 369.222 56.4203 369.626 56.3035C370.241 56.1104 370.803 56.1002 371.312 56.273C371.518 56.3473 371.715 56.4396 371.904 56.5499C372.109 56.6242 372.277 56.7571 372.406 56.9486C372.638 57.0134 372.871 57.1225 373.105 57.2758C373.33 57.4028 373.566 57.4808 373.815 57.5098C374.054 57.5124 374.279 57.4756 374.49 57.3993C374.691 57.2966 374.931 57.1797 375.211 57.0484C375.534 56.8718 375.875 56.7035 376.234 56.5437C376.593 56.3838 376.911 56.194 377.189 55.9742C377.517 55.6469 377.789 55.3698 378.004 55.1428C378.236 54.8799 378.452 54.6529 378.651 54.4618ZM369.993 58.6717C369.514 58.9941 369.102 59.3369 368.758 59.7001C368.403 60.0369 368.063 60.4133 367.738 60.8291C367.395 61.2808 367.026 61.742 366.631 62.2127C366.236 62.6835 365.89 63.1663 365.593 63.6611C365.406 63.967 365.241 64.2502 365.097 64.5108C364.943 64.745 364.813 65.0008 364.705 65.2781C364.597 65.5555 364.508 65.8854 364.438 66.268C364.369 66.6506 364.281 67.0249 364.175 67.3907C364.101 67.5963 364.036 67.8282 363.981 68.0865C363.942 68.3089 363.94 68.5481 363.973 68.804C364.013 68.9978 364.1 69.2789 364.234 69.6474C364.358 69.9895 364.487 70.181 364.621 70.2218C364.745 70.2363 364.847 70.2292 364.926 70.2006C365.021 70.1361 365.135 70.08 365.267 70.0323C365.496 70.0087 365.703 69.9634 365.888 69.8967C366.115 69.7845 366.297 69.6292 366.433 69.4309C366.596 69.2229 366.759 69.015 366.922 68.8071C367.137 68.5801 367.347 68.2957 367.551 67.9539C367.747 67.6743 367.952 67.3767 368.165 67.0613C368.378 66.7458 368.552 66.4446 368.686 66.1577C368.77 65.9784 368.846 65.8171 368.913 65.6736C368.997 65.4943 369.081 65.315 369.164 65.1358C369.325 64.8393 369.477 64.5609 369.621 64.3003C369.765 64.0398 369.891 63.7708 369.999 63.4935C370.049 63.0583 370.093 62.6852 370.129 62.3743C370.165 62.0634 370.223 61.7298 370.302 61.3735C370.314 61.1607 370.331 60.961 370.353 60.7744C370.401 60.5784 370.428 60.405 370.432 60.2543C370.409 60.0247 370.368 59.8309 370.311 59.673C370.254 59.5151 370.21 59.3524 370.179 59.1849C370.15 59.106 370.135 59.0223 370.133 58.9338C370.121 58.8189 370.074 58.7316 369.993 58.6717ZM385.099 76.6904C384.981 77.2691 384.872 77.8299 384.771 78.3727C384.687 78.8797 384.559 79.432 384.389 80.0298C384.317 80.3239 384.214 80.6144 384.08 80.9012C383.998 81.169 383.925 81.4189 383.86 81.6508C383.812 81.8469 383.734 82.0836 383.626 82.3609C383.533 82.5139 383.426 82.6717 383.306 82.8342C383.213 82.9871 383.124 83.1533 383.04 83.3326C382.896 83.5931 382.753 83.8537 382.609 84.1142C382.482 84.3389 382.302 84.5827 382.07 84.8455C381.984 84.9363 381.884 85.0319 381.772 85.1322C381.686 85.223 381.586 85.3186 381.474 85.4189C381.129 85.7821 380.765 86.0926 380.382 86.3505C380.26 86.4246 380.125 86.5033 379.976 86.5869C379.854 86.6609 379.696 86.7182 379.503 86.7586C379.079 86.8227 378.807 86.8918 378.685 86.9658C378.598 87.0566 378.485 87.1127 378.344 87.1341C377.798 87.2722 377.342 87.2885 376.977 87.1829C376.637 87.0677 376.33 86.8366 376.055 86.4895C375.914 86.1832 375.765 85.8948 375.608 85.6244C375.467 85.3181 375.335 84.9939 375.211 84.6517C374.984 84.1085 374.865 83.4519 374.854 82.6817C374.869 81.902 374.895 81.1929 374.931 80.5543C374.958 80.2171 374.985 79.8799 375.011 79.5427C375.064 79.196 375.158 78.8792 375.292 78.5923C375.386 78.4393 375.458 78.309 375.508 78.2015C375.575 78.058 375.642 77.9146 375.709 77.7712C375.803 77.6182 375.87 77.4747 375.911 77.3409C375.968 77.1711 376.035 77.0277 376.112 76.9105C376.17 76.7408 376.263 76.5878 376.392 76.4516C376.522 76.3154 376.628 76.1577 376.712 75.9784C376.806 75.8254 376.917 75.6808 377.046 75.5446C377.192 75.3726 377.312 75.2101 377.406 75.0571C377.619 74.7416 377.814 74.4177 377.991 74.0855C378.169 73.7532 378.374 73.4557 378.606 73.1928C378.855 72.8941 379.123 72.648 379.41 72.4546C379.714 72.2253 379.973 71.9529 380.186 71.6374C380.559 71.3532 380.863 71.1239 381.098 70.9496C381.323 70.7489 381.571 70.5698 381.841 70.4122C381.937 70.3477 382.033 70.2833 382.128 70.2188C382.215 70.128 382.333 70.0851 382.484 70.09C382.687 70.0759 382.865 70.1155 383.018 70.209C383.162 70.2761 383.31 70.3564 383.463 70.4498C383.561 70.4738 383.659 70.4979 383.757 70.5219C383.845 70.5196 383.94 70.5747 384.04 70.6872C384.167 70.7902 384.277 70.929 384.37 71.1037C384.453 71.2521 384.555 71.4089 384.674 71.574C384.794 71.7392 384.9 71.9091 384.993 72.0838C385.112 72.249 385.197 72.4416 385.247 72.6617C385.397 73.322 385.45 74.0025 385.406 74.7032C385.379 75.3681 385.277 76.0305 385.099 76.6904ZM382.693 72.5155C382.607 72.6063 382.52 72.6971 382.434 72.7879C382.374 72.8691 382.306 72.9683 382.229 73.0854C381.89 73.2979 381.587 73.5715 381.321 73.906C381.165 74.0518 381.028 74.2059 380.908 74.3684C380.779 74.5046 380.636 74.6456 380.48 74.7913C380.394 74.8821 380.303 74.9597 380.208 75.0242C380.112 75.0887 380.008 75.1711 379.895 75.2714C379.663 75.5343 379.458 75.8318 379.281 76.1641C379.13 76.4868 378.983 76.8227 378.842 77.1717C378.676 77.6188 378.558 77.9894 378.486 78.2835C378.404 78.5513 378.31 78.8681 378.205 79.234C378.14 79.4659 378.075 79.6978 378.01 79.9298C377.962 80.1258 377.924 80.3482 377.895 80.5969C377.868 80.9341 377.89 81.2834 377.962 81.6446C378.024 81.9795 378.064 82.3371 378.083 82.7174C378.085 83.1336 378.154 83.4063 378.29 83.5356C378.452 83.6554 378.626 83.8457 378.81 84.1066C378.91 84.2191 378.989 84.3543 379.046 84.5123C379.12 84.6343 379.207 84.7516 379.307 84.8641C379.473 84.7447 379.664 84.6158 379.882 84.4773C380.09 84.3125 380.304 84.2051 380.524 84.1551C380.766 83.9185 380.941 83.6616 381.049 83.3843C381.183 83.0974 381.34 82.8321 381.52 82.5883C381.683 82.3804 381.811 82.2 381.904 82.047C381.998 81.894 382.108 81.7052 382.235 81.4805C382.369 81.1936 382.472 80.9031 382.544 80.609C382.643 80.3054 382.759 80.0101 382.893 79.7232C382.963 79.3406 383.072 78.9437 383.221 78.5325C383.37 78.1213 383.501 77.7017 383.613 77.2737C383.741 76.7213 383.827 76.139 383.874 75.5268C383.91 74.8882 383.868 74.2782 383.746 73.6969C383.514 73.6321 383.324 73.4776 383.176 73.2335C383.045 72.9535 382.884 72.7142 382.693 72.5155Z" fill="white"/>
<path d="M449.251 92.8953C447.335 91.7715 445.201 91.0696 442.992 90.8367C440.783 90.6038 438.55 90.8451 436.441 91.5447C434.333 92.2442 432.398 93.3858 430.767 94.8931C429.135 96.4004 427.844 98.2387 426.98 100.285C426.116 102.331 425.698 104.539 425.756 106.759C425.813 108.98 426.344 111.162 427.313 113.161C428.282 115.16 429.666 116.929 431.373 118.35C433.081 119.771 435.072 120.811 437.213 121.401L438.964 115.042C437.728 114.701 436.578 114.101 435.593 113.281C434.607 112.46 433.808 111.439 433.249 110.285C432.689 109.131 432.383 107.871 432.35 106.589C432.317 105.307 432.557 104.032 433.056 102.851C433.555 101.67 434.301 100.608 435.243 99.7382C436.185 98.868 437.301 98.2089 438.519 97.8051C439.736 97.4012 441.025 97.2619 442.3 97.3963C443.576 97.5308 444.808 97.936 445.914 98.5848L449.251 92.8953Z" fill="#FEB618"/>
<path d="M81.447 62.0156C82.2582 63.4205 83.3599 64.6361 84.6786 65.5811C85.9973 66.526 87.5025 67.1786 89.0937 67.4951C90.6848 67.8116 92.3252 67.7847 93.9051 67.4163C95.485 67.048 96.9681 66.3465 98.2552 65.3589C99.5423 64.3713 100.604 63.1203 101.368 61.6896C102.133 60.2588 102.584 58.6813 102.69 57.0624C102.796 55.4436 102.555 53.8208 101.984 52.3024C101.412 50.7841 100.523 49.4053 99.376 48.2581L95.9697 51.6645C96.632 52.3268 97.1452 53.1228 97.4751 53.9993C97.805 54.8759 97.944 55.8128 97.8827 56.7474C97.8215 57.682 97.5614 58.5927 97.1199 59.4187C96.6784 60.2447 96.0656 60.9669 95.3226 61.5371C94.5795 62.1073 93.7233 62.5122 92.8112 62.7249C91.8991 62.9376 90.9521 62.9531 90.0335 62.7703C89.1149 62.5876 88.2459 62.2109 87.4846 61.6654C86.7233 61.1198 86.0872 60.418 85.6189 59.6069L81.447 62.0156Z" fill="#9ED0AB"/>
<defs>
<linearGradient id="paint0_linear" x1="37.7374" y1="260.957" x2="70.6312" y2="233.73" gradientUnits="userSpaceOnUse">
<stop stop-color="#F92B21"/>
<stop offset="1" stop-color="#EF5A06"/>
</linearGradient>
</defs>
</svg>
