<svg width="102" height="108" viewBox="0 0 102 108" fill="none" xmlns="http://www.w3.org/2000/svg">
<circle cx="51" cy="47" r="47" fill="#F6F7FB"/>
<g filter="url(#filter0_d)">
<circle cx="51" cy="47" r="36" fill="white"/>
</g>
<mask id="path-3-inside-1" fill="white">
<path d="M87 47C87 40.6807 85.3366 34.4727 82.1769 29C79.0173 23.5273 74.4727 18.9827 69 15.8231C63.5273 12.6634 57.3193 11 51 11C44.6807 11 38.4727 12.6634 33 15.8231L36.709 22.2473C41.054 19.7387 45.9828 18.418 51 18.418C56.0172 18.418 60.946 19.7387 65.291 22.2473C69.636 24.7559 73.2441 28.364 75.7527 32.709C78.2613 37.054 79.582 41.9828 79.582 47H87Z"/>
</mask>
<path d="M87 47C87 40.6807 85.3366 34.4727 82.1769 29C79.0173 23.5273 74.4727 18.9827 69 15.8231C63.5273 12.6634 57.3193 11 51 11C44.6807 11 38.4727 12.6634 33 15.8231L36.709 22.2473C41.054 19.7387 45.9828 18.418 51 18.418C56.0172 18.418 60.946 19.7387 65.291 22.2473C69.636 24.7559 73.2441 28.364 75.7527 32.709C78.2613 37.054 79.582 41.9828 79.582 47H87Z" fill="white" stroke="#46C366" stroke-width="12" mask="url(#path-3-inside-1)"/>
<path d="M36.473 39H33.2934L29.3324 41.5078V44.5078L32.9965 42.2109H33.0902V55H36.473V39ZM46.6592 55.3516C50.6827 55.3516 53.1123 52.2891 53.1202 47.0156C53.128 41.7812 50.667 38.7812 46.6592 38.7812C42.6436 38.7812 40.2061 41.7734 40.1983 47.0156C40.1827 52.2734 42.628 55.3438 46.6592 55.3516ZM46.6592 52.5469C44.8233 52.5469 43.6358 50.7031 43.6436 47.0156C43.6514 43.3828 44.8311 41.5547 46.6592 41.5547C48.4795 41.5547 49.667 43.3828 49.667 47.0156C49.6748 50.7031 48.4873 52.5469 46.6592 52.5469ZM55.3113 55H57.7318V49.7614C57.7318 48.7955 58.3454 48.1534 59.1522 48.1534C59.9477 48.1534 60.4818 48.6989 60.4818 49.5568V55H62.8283V49.6705C62.8283 48.767 63.3454 48.1534 64.2261 48.1534C64.9988 48.1534 65.5783 48.6364 65.5783 49.608V55H67.9931V49.1307C67.9931 47.2386 66.8681 46.1591 65.2431 46.1591C63.9647 46.1591 62.9704 46.8125 62.6124 47.8125H62.5215C62.2431 46.8011 61.3511 46.1591 60.1522 46.1591C58.9761 46.1591 58.084 46.7841 57.7204 47.8125H57.6181V46.2727H55.3113V55ZM71.3998 55.1477C72.1271 55.1477 72.7578 54.5398 72.7635 53.7841C72.7578 53.0398 72.1271 52.4318 71.3998 52.4318C70.6498 52.4318 70.0305 53.0398 70.0362 53.7841C70.0305 54.5398 70.6498 55.1477 71.3998 55.1477Z" fill="#46C366"/>
<defs>
<filter id="filter0_d" x="0" y="6" width="102" height="102" filterUnits="userSpaceOnUse" color-interpolation-filters="sRGB">
<feFlood flood-opacity="0" result="BackgroundImageFix"/>
<feColorMatrix in="SourceAlpha" type="matrix" values="0 0 0 0 0 0 0 0 0 0 0 0 0 0 0 0 0 0 127 0"/>
<feMorphology radius="6" operator="erode" in="SourceAlpha" result="effect1_dropShadow"/>
<feOffset dy="10"/>
<feGaussianBlur stdDeviation="10.5"/>
<feColorMatrix type="matrix" values="0 0 0 0 0 0 0 0 0 0 0 0 0 0 0 0 0 0 0.1 0"/>
<feBlend mode="normal" in2="BackgroundImageFix" result="effect1_dropShadow"/>
<feBlend mode="normal" in="SourceGraphic" in2="effect1_dropShadow" result="shape"/>
</filter>
</defs>
</svg>
