<svg width="120" height="120" viewBox="0 0 120 120" fill="none" xmlns="http://www.w3.org/2000/svg">
<g clip-path="url(#clip0)">
<path d="M31.4821 91.1504V103.724C31.4821 106.207 33.4953 108.22 35.9783 108.22C38.4612 108.22 40.4744 106.207 40.4744 103.724V72.3975L51.2978 79.7731V94.9141C51.2978 97.397 53.3111 99.4094 55.794 99.4094C58.2769 99.4094 60.2893 97.397 60.2893 94.9141V85.9007L83.2352 101.536V113.097C83.2352 115.581 85.2485 117.594 87.7314 117.594C90.2143 117.594 92.2267 115.58 92.2267 113.097V107.664L106.907 117.666V18.3821C72.811 18.3821 42.7303 35.5703 24.8536 61.7536L31.4821 66.2699V72.3984" fill="#FEB618"/>
<path d="M106.907 18.382V7.04865C106.907 4.37347 104.677 2.23479 102.004 2.34831C84.8814 3.07433 68.1116 7.59705 52.923 15.6107C37.7371 23.6225 24.547 34.9064 14.2976 48.6193C12.6936 50.7644 13.2036 53.8149 15.4173 55.3228L24.8546 61.7535C42.7304 35.5702 72.8111 18.382 106.907 18.382Z" fill="#FF4415"/>
<path d="M63.9945 53.3416C61.7249 48.0663 55.6092 45.63 50.3339 47.8996C45.0586 50.1692 42.6223 56.285 44.8919 61.5603C47.1606 66.8356 53.2773 69.2718 58.5526 67.0022C63.8279 64.7335 66.2641 58.6169 63.9945 53.3416Z" fill="#FF4415"/>
<path d="M98.7133 58.1454C96.4446 52.8701 90.3279 50.4339 85.0526 52.7035C79.7773 54.9731 77.3411 61.0888 79.6107 66.3641C81.8803 71.6394 87.9961 74.0766 93.2713 71.807C98.5466 69.5374 100.983 63.4207 98.7133 58.1454Z" fill="#FF4415"/>
<path d="M104.592 82.1754C99.3175 84.445 96.8804 90.5608 99.15 95.8361C100.588 99.1796 103.572 101.381 106.907 101.967V81.4851C106.127 81.6224 105.351 81.8486 104.592 82.1754Z" fill="#FF5A5A"/>
<path d="M85.5653 88.01C83.2957 82.7356 77.1799 80.2985 71.9046 82.5681C68.7644 83.9194 66.6312 86.633 65.896 89.7202L81.9489 100.659C85.9297 97.8987 87.5538 92.6316 85.5653 88.01Z" fill="#FF4415"/>
<path d="M90.5669 19.7233C84.9556 20.6525 79.5036 22.0524 74.2521 23.8807C73.2725 26.3499 73.2322 29.1926 74.3656 31.8248C76.6352 37.1001 82.751 39.5372 88.0263 37.2676C93.3016 34.998 95.7378 28.8813 93.4682 23.606C92.7971 22.0469 91.7891 20.7386 90.5669 19.7233Z" fill="#FF4415"/>
<path d="M107.079 1.96019C105.68 0.618023 103.842 -0.0750348 101.905 0.00644737C84.5252 0.744366 67.2089 5.42273 51.8289 13.538C36.4516 21.6514 22.8239 33.297 12.4198 47.2158C11.258 48.7695 10.7938 50.6802 11.1133 52.5946C11.4338 54.5099 12.493 56.167 14.0971 57.2601L23.5344 63.6908L23.5353 63.6917L29.1383 67.5095V72.3994C29.1383 73.6939 30.1875 74.7431 31.4821 74.7431C32.7766 74.7431 33.8258 73.6939 33.8258 72.3994V66.2708C33.8258 65.4953 33.4422 64.7702 32.8023 64.3335L28.1386 61.1557C30.2058 58.2782 32.4306 55.5206 34.7954 52.8821C37.2261 50.1693 39.8152 47.5857 42.5481 45.1751C45.1784 42.8552 47.9177 40.6634 50.7778 38.6318C53.7496 36.5215 56.8405 34.5916 60.0247 32.8182C63.2144 31.0402 66.5231 29.46 69.8996 28.0684C70.3226 27.8945 70.7474 27.7223 71.1731 27.553C71.1502 29.3181 71.4945 31.0823 72.2122 32.7514C73.5572 35.8779 76.0392 38.294 79.2014 39.5528C80.7276 40.1617 82.3243 40.4647 83.9192 40.4647C85.6284 40.4647 87.3359 40.1159 88.9527 39.421C92.0793 38.0752 94.4945 35.5932 95.7542 32.4318C97.014 29.2696 96.9664 25.807 95.6215 22.6805C95.442 22.2621 95.2379 21.8556 95.0154 21.4592C98.184 21.0673 101.372 20.8339 104.563 20.757V79.6806C100.758 80.9861 97.7647 84.0596 96.5489 87.8956C95.2031 92.1428 96.233 96.9008 99.2012 100.22C100.649 101.838 102.51 103.068 104.563 103.771V113.233L93.5478 105.727C92.8291 105.238 91.8998 105.185 91.1317 105.591C90.3645 105.998 89.8838 106.795 89.8838 107.664V113.097C89.8838 114.285 88.918 115.25 87.7314 115.25C86.5449 115.25 85.579 114.284 85.579 113.097V101.536C85.579 101.249 85.5259 100.969 85.4279 100.708C88.7284 97.0793 89.7218 91.74 87.7186 87.0845C84.9427 80.6309 77.4326 77.6389 70.9781 80.4157C68.3093 81.5638 66.1331 83.6036 64.7818 86.125L61.6095 83.9634C60.8917 83.4745 59.9624 83.4224 59.1943 83.8279C58.4262 84.2344 57.9455 85.0319 57.9455 85.8998V94.9141C57.9455 96.1006 56.9805 97.0656 55.794 97.0656C54.6075 97.0656 53.6416 96.0997 53.6416 94.9141V79.773C53.6416 78.9976 53.258 78.2725 52.618 77.8358L41.7937 70.4612C41.0769 69.9723 40.1467 69.9192 39.3785 70.3257C38.6104 70.7313 38.1307 71.5296 38.1307 72.3975V103.724C38.1307 104.912 37.1648 105.877 35.9783 105.877C34.7917 105.877 33.8268 104.911 33.8268 103.724V91.1504C33.8268 89.8558 32.7766 88.8066 31.4821 88.8066C30.1875 88.8066 29.1383 89.8558 29.1383 91.1504V103.724C29.1383 107.496 32.2072 110.564 35.9783 110.564C39.7493 110.564 42.8182 107.496 42.8182 103.724V76.8314L48.9541 81.0118V94.9141C48.9541 98.6852 52.022 101.753 55.794 101.753C59.5651 101.753 62.634 98.6852 62.634 94.9141V90.3337L64.5749 91.6566C64.5758 91.6566 64.5758 91.6576 64.5767 91.6576L80.6296 102.596L80.8915 102.775V113.097C80.8915 116.869 83.9594 119.937 87.7314 119.937C91.5025 119.937 94.5714 116.869 94.5714 113.097V112.096L105.588 119.603C107.117 120.645 109.252 119.508 109.252 117.666V7.04963C109.251 5.10962 108.48 3.30236 107.079 1.96019ZM68.681 88.7819C69.4995 86.9682 70.9552 85.5281 72.8302 84.7215C76.9108 82.9664 81.6569 84.857 83.4129 88.9366C84.7111 91.956 84.0189 95.4305 81.8024 97.723L73.1305 91.8141L68.681 88.7819ZM15.7377 51.8237C15.6306 51.1819 15.7862 50.5429 16.1744 50.0219C26.1647 36.657 39.2504 25.4747 54.0161 17.6835C68.7863 9.89053 85.4133 5.39801 102.103 4.69031C102.137 4.68848 102.172 4.68756 102.206 4.68756C102.816 4.68756 103.392 4.91827 103.836 5.344C104.304 5.79444 104.563 6.3996 104.563 7.04872V16.0649C100.815 16.15 97.0717 16.4466 93.3574 16.9447C92.2981 17.0875 91.237 17.2368 90.1832 17.4107C84.5161 18.3491 78.8965 19.781 73.4812 21.667C69.6497 23.0009 65.9015 24.6059 62.2513 26.3738C58.547 28.1664 54.9517 30.2162 51.5066 32.4666C48.1182 34.6804 44.8635 37.0846 41.7525 39.6728C38.6141 42.2848 35.6532 45.1037 32.8481 48.0691C30.0941 50.9814 27.5306 54.0787 25.1466 57.2986C24.8481 57.7014 24.5524 58.1061 24.2604 58.5126L16.7365 53.3856C16.2 53.0203 15.8448 52.4655 15.7377 51.8237ZM91.399 30.696C90.6025 32.6946 89.0763 34.2638 87.0997 35.1143C85.1231 35.9639 82.935 35.9942 80.9363 35.1977C78.9377 34.4021 77.3685 32.8749 76.518 30.8983C75.8103 29.2522 75.672 27.4577 76.106 25.7494C79.6226 24.5702 83.2114 23.5786 86.8434 22.8242C87.8358 22.6182 88.8291 22.4214 89.8262 22.2429C90.4487 22.9112 90.9477 23.6775 91.3148 24.5326C92.1653 26.5093 92.1946 28.6974 91.399 30.696ZM101.303 94.9095C100.453 92.9338 100.423 90.7448 101.219 88.7462C101.882 87.0826 103.051 85.7176 104.563 84.8158V98.6376C103.132 97.7815 101.984 96.4907 101.303 94.9095Z" fill="#FEB618"/>
<path d="M49.7277 69.2874C51.2539 69.8953 52.8506 70.1984 54.4454 70.1984C56.1547 70.1984 57.8622 69.8505 59.479 69.1547C65.9326 66.3779 68.9246 58.8678 66.1477 52.4142C64.8028 49.2876 62.3208 46.8715 59.1586 45.6127C55.9972 44.3529 52.5338 44.3996 49.4073 45.7454C46.2807 47.0904 43.8655 49.5724 42.6058 52.7346C41.346 55.8959 41.3936 59.3594 42.7385 62.4859C44.0834 65.6125 46.5654 68.0276 49.7277 69.2874ZM46.961 54.4695C47.7565 52.4709 49.2837 50.9017 51.2603 50.0512C52.282 49.6117 53.3614 49.3911 54.4418 49.3911C55.4498 49.3911 56.4587 49.5833 57.4236 49.9679C59.4223 50.7635 60.9915 52.2906 61.842 54.2663C63.5971 58.3459 61.7056 63.0929 57.626 64.848C55.6503 65.6985 53.4612 65.7278 51.4626 64.9322C49.464 64.1357 47.8948 62.6086 47.0452 60.6329C46.1947 58.6563 46.1644 56.4672 46.961 54.4695Z" fill="#59410B"/>
<path d="M84.4466 74.0903C85.9728 74.6991 87.5694 75.0022 89.1643 75.0022C90.8736 75.0022 92.5811 74.6534 94.1979 73.9576C97.3244 72.6126 99.7396 70.1306 100.999 66.9693C102.259 63.8071 102.212 60.3445 100.867 57.2171C99.5217 54.0914 97.0397 51.6754 93.8784 50.4156C90.7161 49.1558 87.2527 49.2034 84.127 50.5483C81.0005 51.8932 78.5844 54.3753 77.3246 57.5375C76.0658 60.6997 76.1125 64.1623 77.4574 67.2888C78.8023 70.4154 81.2843 72.8315 84.4466 74.0903ZM81.6798 59.2724C82.4754 57.2738 84.0025 55.7055 85.9792 54.855C87.0009 54.4155 88.0803 54.1949 89.1606 54.1949C90.1686 54.1949 91.1776 54.3862 92.1425 54.7708C94.1411 55.5673 95.7104 57.0944 96.5609 59.0701C97.4105 61.0467 97.4407 63.2358 96.6442 65.2344C95.8477 67.2321 94.3215 68.8013 92.3449 69.6518C90.3691 70.5014 88.1801 70.5316 86.1815 69.7351C84.1829 68.9395 82.6137 67.4124 81.7631 65.4367C80.9135 63.4601 80.8842 61.271 81.6798 59.2724Z" fill="#59410B"/>
<path d="M31.4839 84.1199C32.4754 84.1199 33.3781 83.469 33.6995 82.5342C34.0217 81.5977 33.7013 80.5155 32.9103 79.914C32.1513 79.3372 31.0985 79.2795 30.2791 79.7657C29.4313 80.2683 28.9891 81.2873 29.1896 82.2513C29.4139 83.3253 30.3853 84.1199 31.4839 84.1199Z" fill="black"/>
</g>
<defs>
<clipPath id="clip0">
<rect width="120" height="120" fill="white"/>
</clipPath>
</defs>
</svg>
