<svg width="120" height="120" viewBox="0 0 120 120" fill="none" xmlns="http://www.w3.org/2000/svg">
<g clip-path="url(#clip0)">
<path d="M101.249 4.82906V115.171C101.249 117.839 99.0876 120 96.4195 120H15.1842C12.5163 120 10.3551 117.839 10.3551 115.171V4.82906C10.3551 2.16094 12.5161 0 15.1842 0H35.1665V6.99C35.1665 8.32523 36.2482 9.40453 37.5811 9.40453H74.2643C75.5972 9.40453 76.6788 8.32523 76.6788 6.99V0H96.4197C99.0874 0 101.249 2.16094 101.249 4.82906Z" fill="#FEB618"/>
<path d="M101.25 4.82906V115.171C101.25 117.839 99.0865 120 96.4207 120H91.6667C94.3322 120 96.4957 117.839 96.4957 115.171V4.82906C96.4955 2.16094 94.3322 0 91.6667 0H96.4207C99.0863 0 101.25 2.16094 101.25 4.82906Z" fill="#FB9927"/>
<path d="M101.25 27.5034V54.8015C99.1782 55.8517 96.8361 56.4433 94.354 56.4433C85.9107 56.4433 79.0632 49.5958 79.0632 41.1524C79.0632 32.7065 85.9107 25.8616 94.354 25.8616C96.8361 25.8616 99.1782 26.4531 101.25 27.5034Z" fill="#FB9927"/>
<path d="M93.4062 9.56374V110.27C93.4062 111.52 92.3921 112.534 91.1391 112.534H20.4647C19.2115 112.534 18.195 111.52 18.195 110.27V9.56374C18.195 8.31312 19.2115 7.29663 20.4647 7.29663H35.1858C35.3356 8.48702 36.3521 9.4046 37.5809 9.4046H74.2641C75.4932 9.4046 76.5096 8.48702 76.6592 7.29663H91.1389C92.3921 7.29663 93.4062 8.31312 93.4062 9.56374Z" fill="#F8F3F1"/>
<path d="M32.2605 7.29663V13.9728C32.2605 15.3057 33.3422 16.3873 34.6751 16.3873H36.0464V19.6226C36.0464 22.7157 38.5622 25.2315 41.6552 25.2315H69.9483C73.0413 25.2315 75.5571 22.7157 75.5571 19.6226V16.3871H76.9284C78.2613 16.3871 79.3429 15.3055 79.3429 13.9726V7.29663H32.2605ZM71.9353 19.6226C71.9353 20.7188 71.0444 21.6097 69.9483 21.6097H41.6552C40.559 21.6097 39.6682 20.7188 39.6682 19.6226V16.3871H71.9353V19.6226Z" fill="#EFE2DD"/>
<path d="M93.4079 9.56352V110.269C93.4079 111.52 92.3923 112.535 91.1412 112.535H85.8938C87.1449 112.535 88.1604 111.52 88.1604 110.269V9.56352C88.1604 8.31242 87.1449 7.29688 85.8938 7.29688H91.141C92.3923 7.29688 93.4079 8.31219 93.4079 9.56352Z" fill="#EFE2DD"/>
<path d="M85.0416 33.8819H26.562C25.5619 33.8819 24.7512 33.0712 24.7512 32.0712C24.7512 31.0711 25.5619 30.2604 26.562 30.2604H85.0416C86.0417 30.2604 86.8524 31.0711 86.8524 32.0712C86.8524 33.0712 86.0417 33.8819 85.0416 33.8819Z" fill="#EFE2DD"/>
<path d="M28.0842 103.883C27.1273 103.883 26.3278 103.133 26.2774 102.166C26.2254 101.168 26.9927 100.316 27.9916 100.264C29.3079 100.195 30.604 99.8836 31.8211 99.3743C31.7742 98.8978 31.7878 98.4061 31.8642 97.9092C32.3194 94.9416 33.7744 92.1513 35.9611 90.052C38.0419 88.0547 40.0017 88.4213 41.1422 89.4309C42.1901 90.3588 42.5871 91.8345 42.1535 93.1903C41.3011 95.8559 39.682 98.2083 37.5877 100.024C38.1209 99.822 38.5859 99.5295 38.7511 99.4202C39.6715 98.8111 41.0466 98.0597 42.3574 98.5659C42.7148 98.704 43.3041 99.0373 43.6556 99.7988C43.792 99.7613 43.9561 99.701 44.126 99.6124C45.1329 99.0877 46.0964 98.464 46.9903 97.759C47.8261 97.1002 48.9342 96.9874 49.8825 97.4651C50.666 97.86 51.1936 98.5795 51.3422 99.4174C52.1798 98.978 52.9638 98.441 53.6796 97.8155C54.6478 96.9692 56.0871 96.915 57.1017 97.687C60.0682 99.9429 64.7173 99.5299 68.8418 98.9658C69.8339 98.8299 70.7459 99.5236 70.8813 100.515C71.0168 101.505 70.3235 102.419 69.3326 102.554C64.7252 103.185 59.5163 103.621 55.5162 100.999C54.5067 101.804 53.4038 102.48 52.2288 103.014C51.8885 103.169 51.0914 103.532 50.1586 103.352C49.1775 103.163 48.4104 102.46 48.0279 101.488C47.3116 101.977 46.5661 102.424 45.7995 102.824C45.297 103.086 43.5359 103.887 41.9747 103.196C41.5383 103.003 41.1691 102.716 40.8834 102.353C40.841 102.38 40.7963 102.409 40.7494 102.44C37.9859 104.269 35.2034 104.319 33.4088 102.648C31.7646 103.355 29.996 103.786 28.1796 103.88C28.148 103.882 28.1159 103.883 28.0842 103.883ZM47.7638 99.8862C47.7635 99.8883 47.7635 99.8904 47.7635 99.8925C47.7635 99.8897 47.7638 99.8876 47.7638 99.8862ZM38.5172 92.6191C38.5015 92.6337 38.4853 92.6489 38.4689 92.6646C37.3188 93.7688 36.443 95.1295 35.9128 96.6103C37.0467 95.4647 37.9509 94.1067 38.5172 92.6191Z" fill="#EFE2DD"/>
<path d="M45.972 58.1128H45.727C44.727 58.1128 43.9163 57.3021 43.9163 56.302C43.9163 55.3019 44.727 54.4912 45.727 54.4912H45.972C46.972 54.4912 47.7827 55.3019 47.7827 56.302C47.7827 57.3021 46.972 58.1128 45.972 58.1128Z" fill="#EFE2DD"/>
<path d="M51.7041 58.1128H51.4591C50.4591 58.1128 49.6483 57.3021 49.6483 56.302C49.6483 55.3019 50.4591 54.4912 51.4591 54.4912H51.7041C52.7041 54.4912 53.5148 55.3019 53.5148 56.302C53.5148 57.3021 52.7041 58.1128 51.7041 58.1128Z" fill="#EFE2DD"/>
<path d="M57.436 58.1128H57.1911C56.191 58.1128 55.3803 57.3021 55.3803 56.302C55.3803 55.3019 56.191 54.4912 57.1911 54.4912H57.436C58.4361 54.4912 59.2468 55.3019 59.2468 56.302C59.2468 57.3021 58.4361 58.1128 57.436 58.1128Z" fill="#EFE2DD"/>
<path d="M63.1681 58.1128H62.9231C61.9231 58.1128 61.1124 57.3021 61.1124 56.302C61.1124 55.3019 61.9231 54.4912 62.9231 54.4912H63.1681C64.1681 54.4912 64.9789 55.3019 64.9789 56.302C64.9789 57.3021 64.1681 58.1128 63.1681 58.1128Z" fill="#EFE2DD"/>
<path d="M84.5082 51.0106H45.0709C44.0708 51.0106 43.2601 50.1999 43.2601 49.1998C43.2601 48.1997 44.0708 47.389 45.0709 47.389H84.5082C85.5083 47.389 86.319 48.1997 86.319 49.1998C86.3192 50.1999 85.5083 51.0106 84.5082 51.0106Z" fill="#EFE2DD"/>
<path d="M55.7005 44.2107H45.0709C44.0708 44.2107 43.2601 43.4 43.2601 42.3999C43.2601 41.3998 44.0708 40.5891 45.0709 40.5891H55.7005C56.7005 40.5891 57.5112 41.3998 57.5112 42.3999C57.5112 43.4 56.7005 44.2107 55.7005 44.2107Z" fill="#EFE2DD"/>
<path d="M45.972 82.3086H45.727C44.727 82.3086 43.9163 81.4979 43.9163 80.4978C43.9163 79.4977 44.727 78.687 45.727 78.687H45.972C46.972 78.687 47.7827 79.4977 47.7827 80.4978C47.783 81.4979 46.972 82.3086 45.972 82.3086Z" fill="#EFE2DD"/>
<path d="M51.7041 82.3086H51.4591C50.4591 82.3086 49.6483 81.4979 49.6483 80.4978C49.6483 79.4977 50.4591 78.687 51.4591 78.687H51.7041C52.7041 78.687 53.5148 79.4977 53.5148 80.4978C53.5148 81.4979 52.7041 82.3086 51.7041 82.3086Z" fill="#EFE2DD"/>
<path d="M57.436 82.3086H57.1911C56.191 82.3086 55.3803 81.4979 55.3803 80.4978C55.3803 79.4977 56.191 78.687 57.1911 78.687H57.436C58.4361 78.687 59.2468 79.4977 59.2468 80.4978C59.247 81.4979 58.4361 82.3086 57.436 82.3086Z" fill="#EFE2DD"/>
<path d="M63.1681 82.3086H62.9231C61.9231 82.3086 61.1124 81.4979 61.1124 80.4978C61.1124 79.4977 61.9231 78.687 62.9231 78.687H63.1681C64.1681 78.687 64.9789 79.4977 64.9789 80.4978C64.9789 81.4979 64.1681 82.3086 63.1681 82.3086Z" fill="#EFE2DD"/>
<path d="M84.5082 75.2063H45.0709C44.0708 75.2063 43.2601 74.3956 43.2601 73.3955C43.2601 72.3954 44.0708 71.5847 45.0709 71.5847H84.5082C85.5083 71.5847 86.319 72.3954 86.319 73.3955C86.3192 74.3956 85.5083 75.2063 84.5082 75.2063Z" fill="#EFE2DD"/>
<path d="M55.7005 68.4063H45.0709C44.0708 68.4063 43.2601 67.5956 43.2601 66.5956C43.2601 65.5955 44.0708 64.7848 45.0709 64.7848H55.7005C56.7005 64.7848 57.5112 65.5955 57.5112 66.5956C57.5112 67.5956 56.7005 68.4063 55.7005 68.4063Z" fill="#EFE2DD"/>
<path d="M69.9487 23.0582H41.655C38.5622 23.0582 36.0459 20.5422 36.0459 17.4492V11.316C36.0459 10.316 36.8566 9.50525 37.8567 9.50525C38.8568 9.50525 39.6675 10.316 39.6675 11.316V17.4494C39.6675 18.5451 40.5591 19.4367 41.6548 19.4367H69.9485C71.0442 19.4367 71.9358 18.5451 71.9358 17.4494V11.316C71.9358 10.316 72.7465 9.50525 73.7466 9.50525C74.7466 9.50525 75.5573 10.316 75.5573 11.316V17.4494C75.5576 20.5422 73.0413 23.0582 69.9487 23.0582Z" fill="#FCA62F"/>
<path d="M76.9286 12.7648H34.6751C33.3415 12.7648 32.2605 11.6838 32.2605 10.3502V0H79.3429V10.3502C79.3429 11.6836 78.262 12.7648 76.9286 12.7648Z" fill="#12C65A"/>
<path d="M79.343 0V10.3509C79.343 11.6838 78.2613 12.7655 76.9284 12.7655H72.1744C73.5073 12.7655 74.5889 11.6838 74.5889 10.3509V0H79.343Z" fill="#0FAD4E"/>
<path d="M40.8685 8.19334H40.6357C39.6357 8.19334 38.825 7.38264 38.825 6.38256C38.825 5.38248 39.6357 4.57178 40.6357 4.57178H40.8685C41.8685 4.57178 42.6792 5.38248 42.6792 6.38256C42.6792 7.38264 41.8685 8.19334 40.8685 8.19334Z" fill="white"/>
<path d="M70.968 8.19334H70.7353C69.7352 8.19334 68.9245 7.38264 68.9245 6.38256C68.9245 5.38248 69.7352 4.57178 70.7353 4.57178H70.968C71.9681 4.57178 72.7788 5.38248 72.7788 6.38256C72.7788 7.38264 71.9681 8.19334 70.968 8.19334Z" fill="white"/>
<path d="M94.3545 52.1906C102.799 52.1906 109.645 45.3449 109.645 36.9003C109.645 28.4556 102.799 21.6099 94.3545 21.6099C85.9098 21.6099 79.0641 28.4556 79.0641 36.9003C79.0641 45.3449 85.9098 52.1906 94.3545 52.1906Z" fill="#12C65A"/>
<path d="M109.645 36.9007C109.645 45.3441 102.8 52.1916 94.354 52.1916C93.5548 52.1916 92.7701 52.1311 92.0023 52.013C99.3303 50.8805 104.941 44.5451 104.941 36.9007C104.941 29.254 99.3303 22.9207 92.0023 21.7908C92.7701 21.6701 93.5548 21.6096 94.354 21.6096C102.8 21.6096 109.645 28.4548 109.645 36.9007Z" fill="#0FAD4E"/>
<path d="M91.019 43.5401C90.5557 43.5401 90.0921 43.3632 89.7386 43.0097L86.9217 40.1928C86.2143 39.4857 86.2143 38.3391 86.9217 37.6318C87.6288 36.9247 88.7754 36.9247 89.4827 37.6318L91.019 39.1681L99.3965 30.7906C100.104 30.0835 101.25 30.0835 101.958 30.7906C102.665 31.4977 102.665 32.6443 101.958 33.3516L92.2997 43.0095C91.9457 43.3632 91.4824 43.5401 91.019 43.5401Z" fill="white"/>
<path d="M35.8521 51.8164H28.8501C28.1834 51.8164 27.6429 51.2759 27.6429 50.6091V43.6072C27.6429 42.9404 28.1834 42.3999 28.8501 42.3999H35.8521C36.5189 42.3999 37.0594 42.9404 37.0594 43.6072V50.6091C37.0594 51.2757 36.5189 51.8164 35.8521 51.8164Z" fill="#B5CCBE"/>
<path d="M35.8521 76.0121H28.8501C28.1834 76.0121 27.6429 75.4716 27.6429 74.8048V67.8028C27.6429 67.1361 28.1834 66.5956 28.8501 66.5956H35.8521C36.5189 66.5956 37.0594 67.1361 37.0594 67.8028V74.8048C37.0594 75.4716 36.5189 76.0121 35.8521 76.0121Z" fill="#B5CCBE"/>
</g>
<defs>
<clipPath id="clip0">
<rect width="120" height="120" fill="white"/>
</clipPath>
</defs>
</svg>
