<svg width="28" height="28" viewBox="0 0 28 28" fill="none" xmlns="http://www.w3.org/2000/svg">
<path d="M4.08324 17.5303C4.08346 17.5276 4.08362 17.5248 4.08384 17.5221C4.16809 16.3539 4.38349 15.3619 4.7612 14.4039C4.76628 14.3894 4.77175 14.375 4.77771 14.3607C4.7993 14.3087 6.92214 9.12966 5.92818 6.28343C5.83847 6.02665 5.88199 5.74215 6.04425 5.52385C6.20651 5.30555 6.46608 5.18222 6.73806 5.19381C6.81094 5.19698 8.29572 5.27937 9.87065 6.66503C11.249 3.82105 11.4667 0.79966 11.4689 0.766694C11.4876 0.480934 11.6539 0.225681 11.9077 0.0931608C12.1616 -0.0394137 12.466 -0.0297918 12.7112 0.118145C14.8864 1.43208 16.5668 3.0356 17.7056 4.88427C18.6252 6.37686 19.1922 8.02554 19.391 9.78455C19.5104 10.8412 19.4821 11.8074 19.394 12.6192C19.3532 12.9953 19.7288 13.278 20.0789 13.1348L22.1899 12.2712C22.3338 12.2123 22.4912 12.1878 22.6448 12.2125C22.968 12.2646 23.2198 12.4965 23.306 12.7965C23.4976 13.4629 23.641 14.0788 23.7446 14.6794C24.1052 16.7711 23.9577 18.9134 23.3181 20.8749C22.675 22.8467 21.5654 24.5448 20.1091 25.7855C18.3881 27.2519 16.3039 27.9984 14.0311 27.9984C12.7771 27.9984 11.4655 27.7711 10.126 27.3119C8.00127 26.5837 6.31853 25.1412 5.25979 23.1405C4.37988 21.4775 3.96198 19.4851 4.08324 17.5303Z" fill="#FF641A"/>
<path d="M4.08384 17.5221C4.16809 16.3539 4.38349 15.3619 4.7612 14.4039C4.76628 14.3894 4.77175 14.375 4.77771 14.3607C4.79931 14.3087 6.92214 9.12966 5.92818 6.28343C5.83847 6.02665 5.88199 5.74215 6.04425 5.52385C6.20651 5.30555 6.46608 5.18222 6.73806 5.19381C6.80274 5.19659 7.98022 5.26187 9.3456 6.24598C9.62835 6.44979 10.0283 6.33827 10.1642 6.0173C11.2807 3.38063 11.4668 0.797145 11.4689 0.766694C11.4876 0.480934 11.6539 0.225681 11.9077 0.0931608C12.1616 -0.0394137 12.466 -0.0297918 12.7112 0.118145C13.1447 0.380014 13.5582 0.653582 13.9521 0.938084V27.9975C12.722 27.9881 11.4375 27.7614 10.1261 27.3119C8.00138 26.5837 6.31864 25.1412 5.2599 23.1405C4.37982 21.4775 3.96198 19.4851 4.08324 17.5303C4.08346 17.5276 4.08362 17.5248 4.08384 17.5221Z" fill="#FF001E"/>
<path d="M11.7802 14.2186C11.9875 13.9093 12.3771 13.7782 12.729 13.8999C13.081 14.0215 13.3069 14.3648 13.2792 14.7361C13.1814 16.0469 13.3124 19.901 15.1354 20.4009C16.6873 20.8266 17.5151 20.1077 17.5956 20.0332C17.7968 19.8138 18.0922 19.7307 18.3823 19.8002C18.6743 19.8705 18.8951 20.1049 18.973 20.395C18.9884 20.4525 19.1257 20.9669 19.1835 21.3019C19.5544 23.4535 18.8511 25.5857 17.3479 26.8663C16.4663 27.6175 15.4029 27.9999 14.2468 27.9999C13.6161 27.9999 12.9576 27.886 12.2866 27.656C11.2053 27.2853 10.2807 26.5013 9.61278 25.3885C9.05411 24.4578 8.72926 23.3718 8.72139 22.409C8.70138 19.9319 9.64471 17.4059 11.7802 14.2186Z" fill="#FFEB00"/>
<path d="M12.729 13.8999C13.081 14.0215 13.3069 14.3648 13.2791 14.7361C13.2093 15.6718 13.2564 17.9033 13.952 19.2858V27.9909C13.4119 27.961 12.8538 27.8505 12.2865 27.656C11.2052 27.2853 10.2806 26.5013 9.61272 25.3886C9.05404 24.4579 8.7292 23.3719 8.72132 22.4091C8.70131 19.9319 9.6447 17.4058 11.7801 14.2186C11.9875 13.9093 12.377 13.7782 12.729 13.8999Z" fill="#FFBB00"/>
</svg>
