<svg width="699" height="546" viewBox="0 0 699 546" fill="none" xmlns="http://www.w3.org/2000/svg">
<path d="M4 28C4 12.536 16.536 0 32 0H699V536H32C16.536 536 4 523.464 4 508V28Z" fill="#FEB618"/>
<path opacity="0.5" d="M437.304 491.379C449.604 504.939 472.035 525.193 481.712 533.624L184.849 540.164C76.7147 502.494 45.1336 446.912 46.5089 410.183C47.8842 373.454 77.8776 326.921 138.629 347.863C199.38 368.806 233.841 407.638 257.074 435.093C280.307 462.549 301.362 483.444 323.552 498.208C341.305 510.021 356.34 516.976 361.639 518.98C360.598 517.902 356.122 515.135 342.475 503.129C327.153 489.653 311.807 461.346 318.084 446.207C324.361 431.068 344.78 411.55 370.428 421.663C396.074 431.777 421.931 474.429 437.304 491.379Z" fill="#FF9000" fill-opacity="0.19"/>
<path opacity="0.5" fill-rule="evenodd" clip-rule="evenodd" d="M69.8803 356.922C85.3336 343.147 108.266 336.725 138.836 347.263C199.757 368.264 234.311 407.209 257.559 434.683C280.776 462.12 301.786 482.96 323.904 497.679C338.091 507.12 350.532 513.446 357.621 516.613C357.245 516.321 356.836 516 356.391 515.65C353.426 513.315 348.887 509.617 342.056 503.608C334.321 496.802 326.604 486.283 321.604 475.559C319.104 470.195 317.273 464.759 316.465 459.692C315.659 454.631 315.868 449.894 317.498 445.964C320.684 438.278 327.444 429.505 336.663 423.922C345.903 418.327 357.627 415.933 370.66 421.072C383.653 426.196 396.621 439.512 408.208 453.553C413.545 460.02 418.611 466.666 423.262 472.774C423.672 473.311 424.078 473.844 424.483 474.372C429.474 480.917 433.955 486.741 437.777 490.954C450.047 504.484 472.452 524.713 482.129 533.145L483.367 534.222L184.748 540.801L184.64 540.761C76.3968 503.056 44.4835 447.301 45.8742 410.159C46.5672 391.655 54.4644 370.664 69.8803 356.922ZM70.7251 357.87C55.6122 371.342 47.8254 391.982 47.1431 410.206C45.7839 446.509 77.0109 501.895 184.949 539.527L480.064 533.025C469.821 524.043 448.667 504.849 436.835 491.804C432.969 487.546 428.454 481.676 423.471 475.144C423.07 474.615 422.665 474.082 422.255 473.545C417.599 467.434 412.551 460.807 407.231 454.361C395.635 440.31 382.85 427.243 370.195 422.253C357.581 417.28 346.271 419.588 337.32 425.008C328.348 430.441 321.761 438.997 318.671 446.45C317.161 450.089 316.935 454.568 317.719 459.493C318.503 464.413 320.289 469.734 322.755 475.022C327.69 485.607 335.307 495.98 342.894 502.654C349.709 508.647 354.231 512.332 357.177 514.654C358.362 515.585 359.291 516.297 360.017 516.852C360.193 516.988 360.358 517.116 360.511 517.231C361.275 517.82 361.795 518.227 362.096 518.538L361.414 519.573C356.066 517.553 340.988 510.57 323.201 498.736C300.937 483.923 279.838 462.977 256.589 435.503C233.371 408.065 199.003 369.347 138.422 348.463C108.24 338.059 85.8001 344.432 70.7251 357.87Z" fill="#FF8A37" fill-opacity="0.53"/>
<path opacity="0.5" d="M58.5814 494.622C89.8832 516.352 100.929 531.273 107.666 541.183C86.7815 541.643 55.2531 547.096 32.6284 534.928C-17.372 508.034 27.2797 472.894 58.5814 494.622Z" fill="#FF9000" fill-opacity="0.19"/>
<path opacity="0.5" d="M509.056 486.772C532.919 502.684 551.885 523.074 559.563 531.642L506.95 532.801C476.864 517.652 467.954 491.009 471.479 480.945C475.004 470.88 485.197 470.863 509.056 486.772Z" fill="#FF9000" fill-opacity="0.19"/>
<path opacity="0.5" fill-rule="evenodd" clip-rule="evenodd" d="M482.719 473.487C488.849 474.237 497.473 478.289 509.408 486.247C533.34 502.205 552.349 522.64 560.036 531.221L560.956 532.246L506.807 533.439L506.666 533.371C491.508 525.737 481.666 515.201 476.058 505.279C473.256 500.32 471.503 495.507 470.682 491.283C469.857 487.072 469.949 483.395 470.877 480.733C471.789 478.131 473.159 476.107 475.137 474.84C477.12 473.568 479.629 473.115 482.719 473.487ZM475.821 475.908C474.156 476.978 472.929 478.728 472.076 481.156C471.248 483.528 471.129 486.955 471.926 491.04C472.722 495.116 474.422 499.799 477.162 504.653C482.633 514.329 492.246 524.654 507.097 532.163L558.165 531.038C549.972 521.964 531.591 502.565 508.704 487.304C496.781 479.35 488.376 475.458 482.565 474.748C479.679 474.397 477.491 474.839 475.821 475.908Z" fill="#FF8A37" fill-opacity="0.53"/>
<path d="M262.881 460.687L283.214 468.79L273.001 493.382L252.667 485.278L262.881 460.687Z" fill="url(#paint0_linear)"/>
<path d="M296.474 509.286C290.94 503.841 276.673 488.835 275.406 487.495C265.555 489.973 257.815 482.925 255.177 479.093C249.081 484.337 246.233 491.783 245.978 493.706L294.599 513.899C297.763 515.316 299.165 511.932 296.474 509.286Z" fill="#161616"/>
<path d="M275.406 487.495C265.554 489.973 257.814 482.925 255.176 479.093C254.337 479.814 253.565 480.559 252.857 481.312C256.266 485.974 265.899 494.11 277.157 489.336C276.251 488.387 275.628 487.727 275.406 487.495Z" fill="#FF562B"/>
<path d="M282.889 476.535C279.912 486.681 255.63 477.563 255.807 473.716C257.08 446.178 257.976 408.252 258.599 398.823C259.222 389.394 210.206 316.552 188.8 271.945C193.066 271.851 213.514 252.812 235.725 252.323C279.533 283.91 295.222 331.995 294.8 384.316C291.443 415.275 285.866 466.389 282.889 476.535Z" fill="#1B1B1B"/>
<path d="M282.889 476.535C279.912 486.681 255.63 477.563 255.807 473.716C257.08 446.178 257.976 408.252 258.599 398.823C259.222 389.394 210.206 316.552 188.8 271.945C193.066 271.851 213.514 252.812 235.725 252.323C279.533 283.91 295.222 331.995 294.8 384.316C291.443 415.275 285.866 466.389 282.889 476.535Z" fill="url(#paint1_linear)"/>
<path d="M282.889 476.535C279.912 486.681 255.63 477.563 255.807 473.716C257.08 446.178 257.976 408.252 258.599 398.823C259.222 389.394 210.206 316.552 188.8 271.945C193.066 271.851 213.514 252.812 235.725 252.323C279.533 283.91 295.222 331.995 294.8 384.316C291.443 415.275 285.866 466.389 282.889 476.535Z" fill="url(#paint2_linear)"/>
<path d="M194.415 447.239C190.666 447.321 187.689 450.512 187.774 454.339C187.858 458.165 190.972 461.222 194.721 461.139C198.469 461.057 201.446 457.866 201.362 454.039C201.278 450.213 198.163 447.156 194.415 447.239Z" fill="#19004B"/>
<path d="M193.668 459.444C193.629 459.445 193.59 459.445 193.551 459.446C193.433 459.41 193.355 459.412 193.237 459.375C192.923 459.304 192.759 458.956 192.83 458.642C192.901 458.327 193.248 458.125 193.563 458.234C193.642 458.272 193.72 458.27 193.799 458.308C194.113 458.379 194.316 458.687 194.244 459.001C194.171 459.237 193.942 459.438 193.668 459.444ZM196.009 459.314C195.775 459.319 195.537 459.168 195.453 458.896C195.368 458.586 195.517 458.231 195.827 458.146C195.904 458.105 195.982 458.103 196.06 458.063C196.369 457.939 196.685 458.088 196.809 458.398C196.933 458.708 196.785 459.062 196.475 459.186C196.359 459.228 196.282 459.269 196.166 459.31C196.087 459.312 196.048 459.313 196.009 459.314ZM191.335 458.167C191.179 458.17 191.021 458.095 190.901 457.981C190.822 457.905 190.742 457.828 190.662 457.752C190.462 457.522 190.453 457.131 190.721 456.891C190.951 456.691 191.342 456.721 191.543 456.951C191.583 457.028 191.663 457.066 191.742 457.142C191.982 457.371 191.99 457.762 191.761 458.001C191.647 458.121 191.492 458.163 191.335 458.167ZM198.164 457.821C198.047 457.824 197.89 457.788 197.77 457.674C197.531 457.444 197.484 457.094 197.712 456.815C197.749 456.736 197.827 456.696 197.864 456.617C198.053 456.339 198.404 456.292 198.681 456.481C198.959 456.671 199.007 457.06 198.817 457.299C198.74 457.379 198.665 457.498 198.627 457.576C198.475 457.736 198.32 457.818 198.164 457.821ZM190.034 455.851C189.761 455.857 189.522 455.667 189.438 455.396C189.396 455.279 189.393 455.162 189.391 455.045C189.345 454.734 189.573 454.416 189.884 454.37C190.195 454.324 190.513 454.552 190.559 454.864C190.561 454.941 190.602 455.018 190.604 455.136C190.689 455.446 190.462 455.764 190.151 455.849C190.112 455.85 190.073 455.85 190.034 455.851ZM199.204 455.376C199.165 455.377 199.165 455.377 199.126 455.378C198.813 455.346 198.571 455.038 198.604 454.725C198.602 454.647 198.639 454.568 198.637 454.451C198.669 454.137 198.936 453.859 199.25 453.891C199.563 453.923 199.803 454.191 199.81 454.504C199.813 454.62 199.776 454.738 199.779 454.856C199.745 455.129 199.516 455.369 199.204 455.376ZM190.209 453.152C190.131 453.154 190.053 453.155 190.013 453.117C189.698 453.007 189.534 452.659 189.644 452.344C189.681 452.226 189.718 452.147 189.755 452.029C189.865 451.714 190.213 451.589 190.529 451.699C190.844 451.849 190.969 452.198 190.819 452.474C190.782 452.553 190.744 452.632 190.707 452.711C190.675 453.025 190.443 453.147 190.209 453.152ZM198.794 452.729C198.56 452.734 198.362 452.621 198.24 452.389C198.199 452.312 198.158 452.234 198.118 452.157C197.955 451.887 198.064 451.494 198.333 451.332C198.603 451.17 198.958 451.28 199.12 451.549C199.161 451.665 199.241 451.742 199.283 451.858C199.407 452.168 199.297 452.522 199.027 452.645C198.95 452.686 198.872 452.727 198.794 452.729ZM191.763 451.008C191.568 451.013 191.41 450.938 191.29 450.784C191.088 450.515 191.12 450.163 191.389 449.962C191.465 449.882 191.581 449.84 191.658 449.76C191.927 449.559 192.28 449.63 192.482 449.937C192.644 450.207 192.575 450.6 192.305 450.762C192.228 450.803 192.15 450.843 192.113 450.923C191.997 450.964 191.88 451.006 191.763 451.008ZM197.031 450.736C196.914 450.738 196.796 450.702 196.717 450.665C196.638 450.627 196.559 450.59 196.48 450.553C196.204 450.402 196.079 450.054 196.228 449.738C196.378 449.461 196.727 449.336 197.004 449.487C197.083 449.524 197.202 449.599 197.281 449.676C197.559 449.865 197.645 450.215 197.456 450.492C197.419 450.61 197.227 450.731 197.031 450.736ZM194.204 450.056C193.891 450.063 193.652 449.833 193.606 449.522C193.56 449.211 193.826 448.892 194.139 448.885C194.256 448.883 194.373 448.88 194.49 448.878C194.802 448.871 195.082 449.138 195.089 449.45C195.096 449.763 194.867 450.042 194.516 450.049L194.477 450.05C194.398 450.013 194.32 450.014 194.204 450.056Z" fill="white"/>
<path d="M194.504 451.181C192.863 451.217 191.565 452.573 191.602 454.252C191.639 455.932 192.996 457.23 194.636 457.194C196.276 457.158 197.573 455.762 197.537 454.122C197.5 452.443 196.144 451.145 194.504 451.181Z" fill="#CCE3E3"/>
<path d="M194.5 451.181C192.86 451.217 191.562 452.574 191.599 454.253C191.636 455.932 192.993 457.23 194.633 457.194C196.273 457.158 197.57 455.762 197.534 454.122C197.497 452.443 196.14 451.145 194.5 451.181Z" fill="white"/>
<path d="M194.536 452.665C193.717 452.683 193.067 453.362 193.086 454.221C193.104 455.041 193.784 455.729 194.603 455.711C195.423 455.693 196.073 455.014 196.054 454.155C196.035 453.296 195.356 452.647 194.536 452.665Z" fill="#19004B"/>
<path fill-rule="evenodd" clip-rule="evenodd" d="M447.377 299.87C445.249 303.61 442.726 307.055 439.816 308.919C435.942 311.4 430.21 313.519 424.967 315.121C419.639 316.746 414.437 317.948 411.393 318.504L410.121 311.525C412.887 311.021 417.819 309.885 422.891 308.335C428.046 306.762 432.987 304.87 435.989 302.945C437.379 302.055 439.198 299.895 441.216 296.358C443.16 292.941 445.059 288.657 446.774 284.047C449.627 276.36 451.862 268.066 452.953 261.862C453.291 259.932 455.047 258.537 456.995 258.761C458.939 258.985 460.341 260.744 460.011 262.675C458.853 269.48 456.445 278.384 453.424 286.518C451.63 291.346 449.578 296.01 447.377 299.87Z" fill="#F0481D"/>
<path fill-rule="evenodd" clip-rule="evenodd" d="M446.644 299.451C448.812 295.644 450.844 291.025 452.63 286.223C455.635 278.132 458.027 269.279 459.178 262.533C459.418 261.109 458.389 259.774 456.899 259.602C455.427 259.433 454.053 260.492 453.786 262.008C452.688 268.267 450.437 276.611 447.568 284.341L446.774 284.047C449.627 276.36 451.862 268.066 452.953 261.862C453.291 259.932 455.051 258.537 456.995 258.761C458.939 258.985 460.341 260.744 460.011 262.675C458.853 269.48 456.445 278.384 453.424 286.518C451.63 291.346 449.578 296.01 447.377 299.87C445.249 303.61 442.726 307.055 439.816 308.919C435.942 311.4 430.215 313.519 424.967 315.121C420.097 316.607 415.334 317.739 412.227 318.347C411.936 318.403 411.662 318.455 411.405 318.502C411.401 318.503 411.397 318.504 411.393 318.504L410.121 311.525C410.134 311.522 410.151 311.519 410.168 311.516C412.942 311.008 417.849 309.876 422.895 308.335C428.046 306.762 432.987 304.87 435.989 302.945C437.379 302.055 439.198 299.895 441.216 296.358C443.16 292.941 445.064 288.657 446.774 284.047L447.568 284.341C445.845 288.978 443.926 293.307 441.953 296.776L441.953 296.777C439.923 300.338 438.019 302.652 436.445 303.658C433.339 305.649 428.305 307.568 423.142 309.145L446.644 299.451ZM411.101 312.2L412.073 317.514C415.151 316.911 419.884 315.787 424.72 314.311C429.955 312.713 435.591 310.621 439.356 308.207C442.086 306.459 444.528 303.166 446.644 299.451" fill="#FF724F"/>
<path d="M466.96 317.727C463.221 324.197 459.274 329.333 460.285 330.281C461.28 331.211 463.456 331.628 463.553 329.273C463.645 326.918 466.348 323.187 468.988 318.497C471.619 313.805 476.683 307.673 473.764 305.867C471.421 304.422 465.082 299.742 462.202 297.582C461.471 299.164 460.031 302.402 460.097 302.69C470.785 308.415 470.695 311.257 466.96 317.727Z" fill="#FF724F"/>
<path fill-rule="evenodd" clip-rule="evenodd" d="M466.07 306.708C464.647 305.548 462.664 304.305 459.999 302.876L460.198 302.503C462.876 303.936 464.885 305.195 466.338 306.38C467.79 307.565 468.691 308.688 469.136 309.853C470.022 312.194 469.004 314.608 467.14 317.833L466.96 317.726L467.14 317.833C465.982 319.84 464.796 321.729 463.749 323.398C463.111 324.415 462.522 325.352 462.024 326.183C461.358 327.289 460.854 328.209 460.573 328.907C460.432 329.258 460.354 329.538 460.341 329.75C460.325 329.963 460.37 330.07 460.43 330.126C460.893 330.559 461.628 330.864 462.231 330.798C462.527 330.766 462.787 330.647 462.977 330.418C463.175 330.187 463.319 329.821 463.341 329.264C463.365 328.64 463.561 327.939 463.875 327.175C464.188 326.408 464.622 325.566 465.132 324.657C465.612 323.796 466.167 322.87 466.755 321.888C466.788 321.832 466.821 321.775 466.858 321.719C467.482 320.673 468.144 319.562 468.804 318.392C469.394 317.335 470.11 316.205 470.83 315.074C470.912 314.944 470.994 314.814 471.076 314.684C471.878 313.421 472.658 312.165 473.272 311.001C473.881 309.833 474.307 308.779 474.411 307.917C474.46 307.489 474.427 307.12 474.306 306.812C474.189 306.507 473.98 306.249 473.654 306.046L473.875 305.686C474.278 305.935 474.548 306.264 474.7 306.659C474.853 307.049 474.884 307.492 474.831 307.966C474.72 308.909 474.262 310.02 473.645 311.198C473.027 312.379 472.234 313.649 471.432 314.91C471.35 315.041 471.268 315.17 471.187 315.3C470.471 316.433 469.759 317.553 469.172 318.6C468.508 319.775 467.847 320.89 467.218 321.936C467.185 321.992 467.153 322.048 467.12 322.103C466.532 323.087 465.981 324.008 465.5 324.863C464.991 325.768 464.569 326.592 464.268 327.335C463.962 328.079 463.786 328.727 463.764 329.281C463.736 329.901 463.572 330.367 463.304 330.69C463.028 331.017 462.663 331.177 462.279 331.219C461.523 331.301 460.672 330.932 460.141 330.435C459.946 330.254 459.898 329.993 459.917 329.718C459.937 329.443 460.035 329.116 460.18 328.75C460.473 328.017 460.998 327.071 461.659 325.965C462.17 325.118 462.759 324.176 463.401 323.156C464.444 321.495 465.618 319.626 466.776 317.621C468.652 314.375 469.546 312.133 468.737 310.003C468.333 308.934 467.492 307.868 466.07 306.708Z" fill="#00FFFF"/>
<path fill-rule="evenodd" clip-rule="evenodd" d="M473.115 273.511C474.821 274.471 475.428 276.633 474.466 278.341L451.711 318.872C450.546 320.947 448.568 322.441 446.248 322.989L427.818 327.338C424.205 328.192 418.922 329.191 413.86 325.788C408.992 322.517 405.224 315.781 402.441 303.987C401.988 302.08 403.17 300.17 405.077 299.719C406.985 299.269 408.895 300.45 409.344 302.357C412.028 313.728 415.268 318.186 417.82 319.9C420.171 321.482 422.714 321.254 426.193 320.433L444.618 316.084C445.001 315.993 445.33 315.747 445.526 315.398L468.281 274.868C469.242 273.159 471.405 272.552 473.115 273.511Z" fill="#F0481D"/>
<path fill-rule="evenodd" clip-rule="evenodd" d="M468.649 275.074C469.081 274.307 469.789 273.793 470.577 273.584L468.649 275.074ZM468.649 275.074L445.894 315.605L445.894 315.606C445.642 316.056 445.217 316.377 444.716 316.495L426.291 320.844C422.804 321.667 420.096 321.941 417.582 320.25L418.054 319.548C420.245 321.021 422.624 320.839 426.095 320.02L444.52 315.671C444.79 315.608 445.019 315.437 445.157 315.189C445.157 315.189 445.157 315.189 445.161 315.188L467.912 274.66L467.912 274.659C468.462 273.685 469.358 273.031 470.36 272.766L470.577 273.584L468.649 275.074ZM474.097 278.133C474.472 277.468 474.579 276.725 474.445 276.03L475.28 275.874C475.443 276.757 475.311 277.703 474.835 278.548L474.097 278.133ZM474.835 278.548L452.08 319.078C450.858 321.256 448.78 322.824 446.346 323.4L427.916 327.749C424.29 328.605 418.848 329.649 413.622 326.139C408.616 322.775 404.816 315.902 402.028 304.083L402.854 303.889C405.627 315.657 409.367 322.258 414.094 325.436C418.997 328.73 424.115 327.777 427.724 326.925L446.15 322.576C448.352 322.055 450.234 320.635 451.342 318.663L474.097 278.133L474.097 278.133" fill="#FF562B"/>
<path d="M462.51 534.047C512.389 532.948 551.933 491.623 550.834 441.743C549.735 391.865 508.409 352.321 458.53 353.419C408.651 354.518 369.107 395.844 370.206 445.723C371.305 495.602 412.63 535.146 462.51 534.047Z" fill="url(#paint3_linear)"/>
<path fill-rule="evenodd" clip-rule="evenodd" d="M457.472 353.443C457.46 352.859 457.923 352.374 458.507 352.362C508.97 351.25 550.78 391.257 551.892 441.72C553.004 492.183 512.996 533.993 462.533 535.105C461.949 535.118 461.465 534.654 461.452 534.07C461.439 533.486 461.902 533.002 462.486 532.989C511.782 531.903 550.862 491.062 549.776 441.767C548.69 392.472 507.849 353.391 458.554 354.477C457.97 354.49 457.485 354.027 457.472 353.443Z" fill="#050505"/>
<path d="M462.34 526.532C508.072 525.525 544.327 487.637 543.319 441.908C542.312 396.179 504.424 359.924 458.691 360.932C412.967 361.939 376.71 399.827 377.717 445.557C378.724 491.285 416.616 527.54 462.34 526.532Z" fill="#242424"/>
<path d="M462.28 523.803C506.502 522.829 541.56 486.191 540.586 441.969C539.611 397.748 502.974 362.69 458.752 363.664C414.534 364.638 379.475 401.276 380.449 445.497C381.424 489.719 418.062 524.777 462.28 523.803Z" fill="#202020"/>
<path d="M462.212 520.706C504.72 519.769 538.425 484.55 537.488 442.038C536.552 399.527 501.328 365.825 458.82 366.762C416.312 367.698 382.607 402.919 383.543 445.429C384.48 487.941 419.703 521.642 462.212 520.706Z" fill="#FFFBF6"/>
<path d="M463.743 520.657L462.111 446.58L444.418 518.96L443.503 518.739L461.196 446.358L425.373 511.691L424.546 511.24L460.373 445.904L408.858 499.74L408.179 499.086L459.69 445.254L395.999 483.92L395.512 483.118L459.202 444.449L387.673 465.314L387.412 464.41L458.941 443.545L384.448 445.186L384.427 444.244L458.92 442.603L386.537 424.908L386.763 423.994L459.142 441.689L393.81 405.864L394.261 405.038L459.593 440.864L405.893 389.476C406.114 389.253 406.337 389.032 406.56 388.812L460.247 440.183L421.94 377.088C422.212 376.931 422.485 376.775 422.759 376.62L461.049 439.695L440.535 369.363C440.838 369.281 441.142 369.202 441.447 369.124L461.954 439.432L460.352 366.743C460.667 366.742 460.982 366.743 461.296 366.746L462.897 439.41L480.049 369.242C480.353 369.322 480.657 369.403 480.959 369.486L463.808 439.635L498.34 376.662C498.614 376.817 498.887 376.973 499.158 377.131L464.635 440.086L514.072 388.424C514.297 388.642 514.521 388.861 514.744 389.082L465.314 440.738L526.302 403.713C526.465 403.981 526.627 404.25 526.787 404.519L465.806 441.542L534.268 421.571C534.358 421.872 534.447 422.173 534.533 422.474L466.067 442.446L537.454 440.873C537.466 441.186 537.475 441.5 537.483 441.814L466.088 443.387L535.699 460.405C535.631 460.712 535.561 461.018 535.49 461.323L465.862 444.302L529.009 478.928C528.865 479.206 528.72 479.483 528.574 479.76L465.415 445.128L517.761 495.217C517.551 495.451 517.339 495.683 517.126 495.915L464.761 445.807L502.636 508.193C502.374 508.365 502.11 508.536 501.845 508.705L463.955 446.296L484.551 516.898C484.253 516.996 483.954 517.092 483.654 517.186L463.055 446.561L464.686 520.612C464.372 520.629 464.058 520.644 463.743 520.657Z" fill="#EEE5D2"/>
<path d="M460.764 454.789C466.869 454.655 471.711 449.595 471.576 443.489C471.442 437.383 466.382 432.542 460.276 432.676C454.171 432.811 449.329 437.87 449.463 443.976C449.598 450.082 454.658 454.924 460.764 454.789Z" fill="#FF562B"/>
<path d="M460.707 452.427C465.51 452.321 469.313 448.344 469.207 443.542C469.101 438.741 465.127 434.934 460.324 435.04C455.526 435.146 451.715 439.124 451.82 443.925C451.926 448.727 455.909 452.533 460.707 452.427Z" fill="#12C65A"/>
<path d="M460.63 448.735C463.389 448.675 465.582 446.386 465.521 443.623C465.461 440.861 463.169 438.67 460.41 438.731C457.647 438.792 455.453 441.081 455.514 443.844C455.575 446.606 457.867 448.796 460.63 448.735Z" fill="#FFFBF6"/>
<path d="M152.624 533.317C202.503 532.219 242.047 490.893 240.948 441.013C239.849 391.134 198.524 351.591 148.645 352.69C98.7661 353.788 59.2225 395.114 60.3214 444.992C61.4203 494.872 102.746 534.416 152.624 533.317Z" fill="url(#paint4_linear)"/>
<path fill-rule="evenodd" clip-rule="evenodd" d="M59.2636 445.016C58.1519 394.553 98.1585 352.743 148.622 351.632C199.085 350.52 240.894 390.527 242.006 440.99C242.018 441.574 241.555 442.058 240.971 442.071C240.387 442.084 239.903 441.621 239.89 441.036C238.804 391.742 197.963 352.661 148.668 353.747C99.3738 354.833 60.2933 395.675 61.3793 444.969C62.4653 494.265 103.307 533.346 152.601 532.26C153.185 532.247 153.669 532.71 153.682 533.294C153.695 533.878 153.232 534.362 152.648 534.375C102.185 535.487 60.3754 495.48 59.2636 445.016Z" fill="#252525"/>
<path d="M152.46 525.803C198.19 524.795 234.444 486.907 233.436 441.178C232.429 395.449 194.541 359.194 148.811 360.202C103.082 361.209 66.8276 399.097 67.8351 444.827C68.8425 490.556 106.73 526.81 152.46 525.803Z" fill="#252525"/>
<path d="M152.399 523.073C196.619 522.099 231.678 485.461 230.703 441.239C229.729 397.018 193.091 361.96 148.871 362.934C104.65 363.908 69.5918 400.546 70.566 444.767C71.5403 488.989 108.178 524.048 152.399 523.073Z" fill="#1B1B1B"/>
<path d="M152.331 519.972C194.841 519.035 228.544 483.816 227.607 441.306C226.671 398.796 191.45 365.093 148.939 366.03C106.429 366.966 72.7267 402.187 73.6632 444.698C74.5998 487.207 109.82 520.908 152.331 519.972Z" fill="#FFFBF6"/>
<path d="M150.176 446.509L151.781 519.362L152.702 519.341L151.097 446.49L171.502 516.442L172.386 516.186L151.981 446.231L189.796 508.521L190.583 508.042L152.767 445.753L205.416 496.132L206.053 495.466L153.405 445.088L217.297 480.122L217.74 479.317L153.846 444.28L224.631 461.585L224.849 460.691L154.066 443.386L226.917 441.781L226.896 440.861L154.046 442.466L223.999 422.061L223.741 421.177L153.788 441.582L216.076 403.767L215.598 402.98L153.309 440.795L203.688 388.147L203.023 387.51L152.645 440.158L187.68 376.265L186.873 375.823L151.837 439.717L169.142 368.932L168.248 368.713L150.943 439.497L149.338 366.646L148.417 366.667L150.022 439.518L129.617 369.564L128.733 369.822L149.138 439.775L111.323 377.487L110.536 377.965L148.351 440.252L95.7033 389.875L95.0669 390.54L147.716 440.919L83.8214 405.883L83.3791 406.69L147.271 441.725L76.4882 424.42L76.2696 425.315L147.054 442.62L74.2029 444.225L74.2231 445.145L147.075 443.54L77.1211 463.946L77.3789 464.83L147.332 444.424L85.0439 482.24L85.5214 483.026L147.809 445.212L97.4312 497.86L98.0964 498.497L148.475 445.847L113.44 509.741L114.247 510.185L149.282 446.291L131.977 517.076L132.871 517.293L150.176 446.509Z" fill="#EEE5D2"/>
<path fill-rule="evenodd" clip-rule="evenodd" d="M151.944 436.394C148.092 436.619 145.048 437.627 142.854 440.32C142.027 441.336 141.573 442.075 141.366 442.693C141.168 443.279 141.182 443.785 141.369 444.375C141.568 445 141.954 445.701 142.521 446.675C142.591 446.796 142.664 446.921 142.74 447.049C143.239 447.904 143.838 448.928 144.489 450.193C148.518 452.977 149.971 455.591 150.021 457.89C150.07 460.185 148.711 461.929 147.72 462.93C143.388 467.312 142.464 471.156 143.451 473.978C144.447 476.821 147.487 478.934 151.751 479.615C153.474 479.89 160.522 477.123 170.995 477.925C178.096 478.467 186.716 479.107 196.194 479.813C200.666 480.142 205.331 480.488 210.116 480.848C239.965 483.073 274.547 485.719 296.964 487.956L296.839 489.212C274.441 486.975 239.875 484.328 210.022 482.103C205.238 481.747 200.574 481.401 196.101 481.068C186.622 480.362 178 479.722 170.899 479.18C160.466 478.381 153.342 481.142 151.552 480.86C147.034 480.138 143.469 477.841 142.263 474.393C141.049 470.923 142.327 466.593 146.825 462.045C147.744 461.116 148.8 459.69 148.762 457.917C148.724 456.174 147.618 453.852 143.646 451.142L143.513 451.051L143.441 450.908C142.779 449.611 142.172 448.574 141.654 447.688C141.578 447.558 141.504 447.432 141.433 447.308C140.879 446.358 140.416 445.536 140.169 444.756C139.91 443.94 139.88 443.158 140.172 442.291C140.453 441.456 141.021 440.577 141.878 439.525C144.385 436.447 147.841 435.373 151.87 435.137C154.838 434.963 158.203 435.243 161.812 435.543C163.06 435.647 164.337 435.753 165.636 435.844C213.799 439.207 249.232 440.912 289.27 442.837C292.923 443.013 296.616 443.191 300.359 443.372L300.299 444.63C296.555 444.449 292.862 444.271 289.208 444.096C249.171 442.17 213.725 440.464 165.549 437.1C164.199 437.006 162.891 436.897 161.626 436.792C158.049 436.495 154.815 436.226 151.944 436.394Z" fill="#12C65A"/>
<path d="M148.956 477.437C152.07 478.185 155.199 476.262 155.944 473.15C156.69 470.035 154.769 466.906 151.655 466.161C148.541 465.416 145.412 467.336 144.667 470.45C143.921 473.564 145.842 476.693 148.956 477.437Z" fill="#FF562B"/>
<path fill-rule="evenodd" clip-rule="evenodd" d="M155.121 472.953C155.758 470.293 154.118 467.621 151.459 466.984C148.799 466.348 146.127 467.988 145.49 470.648C144.854 473.307 146.494 475.98 149.153 476.615C151.813 477.251 154.485 475.613 155.121 472.953ZM144.667 470.45L144.673 470.452L144.667 470.45ZM155.945 473.15C155.199 476.262 152.071 478.185 148.956 477.437C145.842 476.693 143.922 473.564 144.667 470.45C145.413 467.336 148.542 465.416 151.656 466.161C154.77 466.906 156.69 470.035 155.945 473.15Z" fill="#FFC6B8"/>
<path fill-rule="evenodd" clip-rule="evenodd" d="M151.633 474.334C152.037 474.013 152.341 473.56 152.47 473.02C152.777 471.737 151.986 470.449 150.704 470.142C150.121 470.003 149.537 470.09 149.044 470.347C148.373 469.877 147.61 469.517 146.809 469.256C145.203 468.731 143.392 468.578 141.704 468.725L141.075 468.78L141.081 469.411C141.124 473.754 142.326 476.431 144.17 478.093C145.988 479.729 148.318 480.266 150.368 480.581L150.951 480.67L151.124 480.107C151.865 477.686 151.897 475.746 151.633 474.334ZM148.05 471.323C147.953 471.503 147.876 471.699 147.827 471.908C147.52 473.191 148.31 474.479 149.592 474.786C149.842 474.845 150.093 474.864 150.336 474.844C150.49 475.879 150.47 477.306 149.983 479.133C148.18 478.817 146.436 478.297 145.083 477.078C143.688 475.826 142.608 473.733 142.46 470.044C143.801 469.996 145.174 470.157 146.385 470.552C146.998 470.753 147.559 471.01 148.05 471.323Z" fill="#12C65A"/>
<path d="M150.88 454.059C156.986 453.924 161.827 448.865 161.692 442.759C161.558 436.653 156.499 431.812 150.393 431.946C144.286 432.081 139.445 437.14 139.58 443.246C139.714 449.352 144.774 454.193 150.88 454.059Z" fill="#FF562B"/>
<path d="M150.827 451.695C155.628 451.589 159.435 447.612 159.329 442.81C159.223 438.009 155.245 434.202 150.444 434.308C145.643 434.414 141.836 438.392 141.942 443.193C142.047 447.995 146.026 451.801 150.827 451.695Z" fill="#12C65A"/>
<path d="M150.747 448.004C153.51 447.943 155.7 445.654 155.639 442.892C155.578 440.128 153.289 437.938 150.526 437.999C147.764 438.06 145.574 440.349 145.634 443.112C145.695 445.875 147.984 448.065 150.747 448.004Z" fill="white"/>
<path fill-rule="evenodd" clip-rule="evenodd" d="M382.913 337.865C380.049 337.966 377.083 338.071 374.116 338.064C365.529 338.044 340.071 339.234 314.554 340.478C310.565 340.673 306.576 340.869 302.651 341.062C281.477 342.101 262.147 343.051 254.791 343.213C246.317 343.399 237.034 348.88 227.651 356.946C218.29 364.991 208.946 375.503 200.35 385.559C191.667 395.718 181.145 401.505 171.39 406.216C169.815 406.977 168.263 407.707 166.744 408.423C163.542 409.931 160.482 411.373 157.634 412.889C153.445 415.118 149.783 417.475 146.921 420.36C142.383 424.936 141.131 430.151 141.402 434.833C141.674 439.536 143.486 443.693 145.063 446.063C145.255 446.353 145.177 446.743 144.887 446.936C144.598 447.128 144.207 447.05 144.014 446.76C142.334 444.233 140.432 439.864 140.144 434.905C139.856 429.925 141.2 424.341 146.027 419.473C149.019 416.457 152.809 414.03 157.043 411.777C159.917 410.247 163.025 408.783 166.243 407.267C167.756 406.554 169.293 405.83 170.842 405.082C180.56 400.389 190.885 394.695 199.393 384.741C207.989 374.684 217.389 364.105 226.829 355.991C236.247 347.897 245.821 342.15 254.763 341.953C262.1 341.792 281.406 340.844 302.584 339.804C306.511 339.611 310.501 339.416 314.492 339.221C339.987 337.977 365.491 336.784 374.119 336.805C377.062 336.812 379.987 336.708 382.839 336.607C384.146 336.561 385.441 336.515 386.714 336.481C390.738 336.373 394.544 336.38 397.856 336.868C401.165 337.356 404.048 338.333 406.169 340.223C408.306 342.131 409.599 344.897 409.846 348.797C409.866 349.144 409.606 349.444 409.259 349.466C408.909 349.488 408.615 349.224 408.59 348.877C408.358 345.231 407.174 342.804 405.33 341.164C403.469 339.507 400.866 338.585 397.672 338.114C394.478 337.643 390.765 337.632 386.746 337.74C385.498 337.774 384.216 337.819 382.913 337.865Z" fill="#781800"/>
<path d="M197.654 298.116C190.278 297.677 187.79 302.467 187.469 304.917C198.767 305.984 207.722 311.612 214.174 314.476C220.627 317.34 223.97 315.576 225.264 314.608C226.558 313.639 230.265 311.303 237.373 309.831C244.481 308.359 259.719 309.151 265.007 310.35C270.295 311.548 276.339 312.919 272.854 308.298C269.37 303.676 255.063 302.488 251.122 302.763C247.183 303.038 233.622 301.645 223.651 301.114C213.68 300.581 206.874 298.664 197.654 298.116Z" fill="#FFA58E"/>
<path fill-rule="evenodd" clip-rule="evenodd" d="M245.913 314.817C242.411 316.136 238.681 316.754 235.835 316.817C233.206 316.875 230.985 317.241 228.783 317.662C228.409 317.733 228.035 317.806 227.657 317.88C225.828 318.239 223.948 318.607 221.873 318.813C219.595 319.038 217.889 318.298 216.713 317.229C215.574 316.191 214.967 314.88 214.75 313.941L216.946 313.433C217.075 313.99 217.475 314.874 218.231 315.561C218.95 316.216 220.029 316.73 221.65 316.569C223.609 316.375 225.37 316.031 227.194 315.674C227.579 315.598 227.967 315.522 228.36 315.447C230.603 315.019 232.969 314.626 235.786 314.563C238.388 314.506 241.865 313.933 245.119 312.707C248.39 311.475 251.289 309.639 252.922 307.157L254.806 308.395C252.802 311.442 249.398 313.504 245.913 314.817Z" fill="#F93200"/>
<path d="M193.504 305.933C201.998 307.974 208.918 312.143 214.174 314.477C216.616 315.561 218.613 315.982 220.222 316.034C220.222 316.034 221.15 306.994 216.622 306.154C213.176 305.516 210.946 304.401 208.104 303.335C205.262 302.271 199.786 301.076 196.997 302.453C194.767 303.554 193.739 305.232 193.504 305.933Z" fill="#FF8C6F"/>
<path fill-rule="evenodd" clip-rule="evenodd" d="M187.469 304.917C187.751 304.944 188.032 304.973 188.311 305.006C196.856 305.991 204.031 309.534 209.763 312.365C211.344 313.146 212.815 313.872 214.175 314.476C220.627 317.34 223.97 315.576 225.265 314.608C226.559 313.639 230.265 311.303 237.373 309.831C244.482 308.359 259.719 309.151 265.008 310.35C270.296 311.548 276.339 312.919 272.855 308.297C269.37 303.676 255.063 302.488 251.123 302.763C248.703 302.932 242.653 302.472 236.035 301.968C231.879 301.652 227.498 301.319 223.652 301.114C218.487 300.838 214.171 300.191 209.929 299.555C205.981 298.962 202.098 298.38 197.654 298.116C191.047 297.723 188.362 301.526 187.643 304.083C187.559 304.381 187.502 304.662 187.469 304.917ZM188.498 304.175C197.173 305.196 204.491 308.813 210.208 311.638C211.765 312.408 213.204 313.119 214.518 313.702C217.634 315.086 219.931 315.322 221.559 315.138C223.181 314.954 224.202 314.345 224.757 313.93C226.151 312.887 229.973 310.499 237.202 309.002C240.859 308.245 246.529 308.078 251.899 308.243C257.272 308.407 262.469 308.906 265.195 309.524C266.521 309.825 267.87 310.13 269.104 310.351C270.349 310.574 271.412 310.698 272.179 310.661C272.565 310.642 272.811 310.584 272.951 310.521C273 310.499 273.025 310.482 273.036 310.472C273.04 310.441 273.046 310.323 272.947 310.071C272.828 309.768 272.59 309.353 272.179 308.807C271.448 307.838 270.075 306.969 268.229 306.231C266.406 305.502 264.226 304.941 262.004 304.527C257.55 303.696 253.062 303.476 251.182 303.608C249.135 303.75 244.683 303.463 239.586 303.085C238.411 302.998 237.197 302.905 235.965 302.812C231.81 302.496 227.442 302.163 223.607 301.959C218.577 301.69 214.348 301.073 210.246 300.458C210.101 300.436 209.957 300.415 209.813 300.393C205.859 299.8 202.009 299.223 197.604 298.961C194.121 298.754 191.886 299.778 190.488 301.058C189.41 302.043 188.794 303.211 188.498 304.175ZM273.045 310.462C273.046 310.462 273.045 310.465 273.04 310.469C273.043 310.465 273.045 310.462 273.045 310.462Z" fill="#FF562B"/>
<path d="M223.514 305.331C222.261 301.831 218.656 297.67 217.01 296.027C213.501 289.176 221.246 288.166 224.025 290.414C226.803 292.662 230.947 299.709 231.842 302.208C232.737 304.707 234.578 312.015 236.805 317.844C238.588 322.507 245.949 345.354 249.407 356.195L241.083 359.527C237.336 348.273 229.522 324.597 228.244 319.922C226.645 314.079 225.079 309.705 223.514 305.331Z" fill="#FF562B"/>
<path fill-rule="evenodd" clip-rule="evenodd" d="M221.086 299.475C222.368 301.181 223.641 303.176 224.31 305.045L224.313 305.051C225.879 309.425 227.453 313.824 229.06 319.699C230.3 324.23 237.754 346.839 241.602 358.408L248.361 355.702C244.81 344.578 237.746 322.676 236.015 318.146C234.889 315.2 233.864 311.89 233.013 309.018C232.767 308.19 232.537 307.403 232.323 306.672C231.789 304.842 231.358 303.365 231.046 302.493C230.63 301.334 229.411 299.011 227.925 296.67C226.431 294.317 224.764 292.101 223.492 291.072C222.958 290.639 222.122 290.323 221.172 290.221C220.228 290.119 219.265 290.24 218.506 290.58C217.76 290.915 217.248 291.439 217.052 292.164C216.855 292.893 216.937 293.981 217.705 295.525C218.558 296.387 219.846 297.821 221.086 299.475ZM217.01 296.027C218.656 297.67 222.261 301.831 223.514 305.331C225.079 309.705 226.645 314.079 228.244 319.922C229.493 324.488 236.976 347.183 240.815 358.723C240.906 358.997 240.995 359.266 241.083 359.527L249.407 356.195C245.949 345.354 238.588 322.507 236.805 317.844C235.377 314.108 234.109 309.764 233.146 306.468C232.607 304.622 232.163 303.105 231.842 302.208C230.947 299.709 226.803 292.662 224.025 290.414C221.246 288.166 213.501 289.176 217.01 296.027Z" fill="#FF8C6E"/>
<path d="M233.559 324.385C236.775 324.314 239.324 321.65 239.253 318.434C239.183 315.219 236.518 312.669 233.303 312.74C230.087 312.811 227.538 315.475 227.609 318.691C227.68 321.907 230.344 324.456 233.559 324.385Z" fill="#F93200"/>
<path fill-rule="evenodd" clip-rule="evenodd" d="M226.876 339.093C230.791 336.307 234.225 334.922 236.28 334.65L236.524 336.501C234.888 336.717 231.744 337.921 227.959 340.614C225.328 342.487 222.417 345.059 219.527 348.469C218.286 349.932 217.348 352.724 216.138 354.507L213.012 351.988C214.168 350.283 216.635 349.017 217.825 347.592C220.906 343.9 224.034 341.116 226.876 339.093Z" fill="#FF562B"/>
<path d="M206.777 372.979L196.904 365.924L193.966 370.036L203.839 377.092L206.777 372.979Z" fill="#FFCEC1"/>
<path d="M210.731 360.07L208.661 358.516L199.033 371.347L201.104 372.9L210.731 360.07Z" fill="#FF562B"/>
<path d="M212.338 357.252L211.679 356.711C210.604 355.83 209.017 355.986 208.135 357.062L204.377 361.645C203.495 362.721 203.652 364.308 204.728 365.19L205.387 365.73C206.463 366.612 208.05 366.455 208.932 365.379L212.689 360.796C213.571 359.721 213.414 358.134 212.338 357.252Z" fill="#FFCEC1"/>
<path d="M216.179 352.879C216.431 352.585 216.397 352.144 216.104 351.892C215.811 351.64 215.368 351.673 215.117 351.967L210.557 357.279C210.305 357.573 210.339 358.015 210.633 358.267C210.926 358.519 211.368 358.485 211.62 358.192L216.179 352.879Z" fill="#FF562B"/>
<path fill-rule="evenodd" clip-rule="evenodd" d="M411.878 314.017C411.883 313.67 412.169 313.392 412.516 313.398C417.158 313.474 422.96 315.508 424.689 321.568C425.543 324.566 425.371 328.463 423.652 333.45C421.933 338.437 418.659 344.552 413.265 352.017C413.06 352.299 412.663 352.362 412.379 352.158C412.1 351.954 412.036 351.561 412.237 351.279C417.599 343.874 420.798 337.871 422.461 333.039C424.124 328.207 424.244 324.586 423.478 321.915C421.973 316.636 416.897 314.729 412.493 314.657C412.146 314.652 411.873 314.365 411.878 314.017ZM409.814 315.827L410.541 315.984C413.816 316.69 417.662 319.278 418.56 324.688C419.453 330.042 417.427 338.012 409.425 349.475L408.177 351.259L409.814 315.827ZM411 317.404L409.639 346.923C416.519 336.558 418.082 329.494 417.316 324.895C416.588 320.488 413.689 318.227 411 317.404Z" fill="#993F06"/>
<path fill-rule="evenodd" clip-rule="evenodd" d="M402.679 311.357C402.684 311.01 402.97 310.733 403.318 310.74C407.731 310.823 410.91 312.377 413.144 314.978C415.355 317.551 416.597 321.092 417.282 325.066C418.321 331.116 418.096 338.384 417.886 345.173C417.822 347.275 417.757 349.331 417.733 351.29C417.706 353.374 417.651 355.643 417.585 358.049C417.39 365.343 417.168 373.886 417.755 382.271C418.534 393.436 420.751 404.155 426.274 411.163C433.726 420.62 450.515 441.536 453.101 444.606C453.327 444.872 453.294 445.269 453.023 445.493C452.762 445.718 452.363 445.684 452.137 445.418C449.533 442.33 432.735 421.398 425.283 411.943L425.779 411.553L425.283 411.943C419.513 404.617 417.284 393.563 416.499 382.359C415.911 373.907 416.136 365.272 416.326 357.968C416.388 355.576 416.448 353.328 416.475 351.275C416.502 349.256 416.562 347.16 416.63 345.033C416.836 338.27 417.057 331.192 416.038 325.279C415.372 321.406 414.191 318.124 412.188 315.799C410.211 313.498 407.386 312.075 403.295 311.999C402.947 311.992 402.67 311.706 402.679 311.357Z" fill="#FF724F"/>
<path fill-rule="evenodd" clip-rule="evenodd" d="M402.768 305.175C417.814 348.08 444.354 399.791 463.136 440.259C463.195 440.423 463.262 440.584 463.324 440.742C464.273 443.072 464.994 444.839 462.287 446.113C459.4 447.473 458.074 445.881 456.382 442.677C455.874 441.72 453.026 436.797 449.087 429.976C431.628 399.789 397.842 337.37 397.842 337.37L281.979 472.126L275.19 472.924C244.281 466.534 166.469 450.647 149.977 446.674C148.316 446.274 147.424 444.407 147.73 442.726C148.088 440.76 149.932 439.675 151.904 440.004L271.989 460.029L232.94 335.127L240.052 334.322L392.439 321.532C390.229 314.616 393.179 307.665 400.204 305.84L402.768 305.175ZM307.839 336.718C290.759 338.132 260.161 339.929 246.674 340.659L281.493 450.096C308.861 417.404 369.3 347.949 379.668 336.052C363.76 334.782 329.19 334.951 307.839 336.718Z" fill="#FF562B"/>
<path d="M307.505 336.727C290.425 338.14 259.827 339.938 246.339 340.667L281.16 450.104C301.674 425.599 329.503 407.272 354.259 387.208L281.645 472.134L274.857 472.932C243.947 466.543 178.005 452.761 161.513 448.788C159.852 448.387 158.96 446.521 159.266 444.839C159.624 442.873 161.468 441.789 163.44 442.117L271.656 460.037L256.321 410.989L246.339 340.667L240.886 359.433L232.606 335.136L239.718 334.331L366.884 323.613C398.752 321.802 399.556 332.732 395.973 338.423C375.363 362.526 349.97 381.202 324.242 399.626C348.66 371.296 373.087 343.229 379.335 336.061C363.426 334.79 328.857 334.96 307.505 336.727Z" fill="#FF562B"/>
<path d="M243.778 333.989L268.527 331.903C281.51 336.049 291.504 337.342 297.408 337.5C280.194 338.74 257.456 340.066 246.341 340.667L246.294 340.815C244.993 338.832 243.947 336.306 243.778 333.989Z" fill="#FFA58E"/>
<path d="M246.383 340.945L246.343 340.666L246.475 341.081C246.444 341.036 246.413 340.99 246.383 340.945Z" fill="#C7DD7B"/>
<path d="M331.063 331.539C317.484 331.553 309.496 330.705 307.199 330.28C310.087 330.217 332.789 327.932 353.379 328.192C369.851 328.4 375.968 331.739 376.967 333.383C367.323 332.762 344.641 331.525 331.063 331.539Z" fill="#FFA58E"/>
<path d="M456.048 442.685C457.739 445.889 459.066 447.48 461.957 446.12C464.659 444.847 463.943 443.079 462.994 440.749C424.144 368.872 419.627 363.886 410.12 359.897C425.141 388.776 450.11 431.435 456.048 442.685Z" fill="#FF562B"/>
<path d="M149.198 446.868C147.881 448.072 147.567 449.073 147.574 449.423C146.526 449.446 145.69 449.674 145.503 450.728C145.317 451.782 145.111 451.996 144.286 452.644C143.46 453.292 142.42 453.735 141.777 453.119C141.133 452.503 140.496 452.098 139.88 452.741C139.264 453.385 139.698 454.005 140.994 455.656C142.29 457.307 143.083 455.19 144.118 454.537C145.154 453.885 147.485 454.883 148.343 455.704C149.201 456.524 148.804 457.583 150.692 457.541C152.581 457.5 153.019 458.33 154.073 458.516C155.127 458.703 157.43 458.442 157.795 455.916C158.159 453.388 155.814 451.76 153.851 448.445C151.889 445.129 150.844 445.362 149.198 446.868Z" fill="#FF562B"/>
<path fill-rule="evenodd" clip-rule="evenodd" d="M156.015 431.945C151.074 429.429 146.34 428.584 142.831 429.569C139.277 430.567 137.004 432.495 135.752 434.777C134.496 437.066 134.247 439.746 134.811 442.273C135.262 444.298 136.354 446.555 137.553 448.57C138.75 450.58 140.036 452.318 140.849 453.298L140.203 453.834C139.363 452.822 138.052 451.048 136.832 449C135.616 446.956 134.471 444.609 133.991 442.456C133.39 439.76 133.648 436.866 135.016 434.374C136.388 431.874 138.856 429.813 142.604 428.761C146.398 427.696 151.36 428.632 156.397 431.196C161.446 433.768 166.624 438.001 170.878 443.624L170.208 444.131C166.028 438.604 160.945 434.455 156.015 431.945Z" fill="#12C65A"/>
<path d="M150.931 449.348C151.742 449.331 152.385 448.658 152.367 447.847C152.349 447.036 151.677 446.393 150.866 446.411C150.055 446.428 149.412 447.1 149.43 447.912C149.447 448.723 150.119 449.366 150.931 449.348Z" fill="#00FFFF"/>
<path fill-rule="evenodd" clip-rule="evenodd" d="M151.432 468.388C151.497 468.176 151.728 466.618 153.52 462.099C153.785 461.427 154.31 460.452 154.836 459.467C155.473 458.272 156.118 457.063 156.332 456.369C156.61 455.472 156.373 455.111 155.902 454.39C155.706 454.091 155.471 453.73 155.214 453.244C154.337 451.584 152.444 451.416 150.98 451.658C149.801 451.853 148.751 451.773 148.278 451.736C148.164 451.728 148.083 451.722 148.042 451.723C147.832 451.727 147.212 452.161 148.275 452.767C149.338 453.373 150.191 453.985 151.482 455.426C151.602 455.559 151.721 455.689 151.838 455.816C152.99 457.067 153.944 458.104 152.847 460.224C152.799 460.319 152.75 460.412 152.703 460.505C151.576 462.68 149.556 468.253 149.976 469.05C150.415 469.88 150.843 470.29 151.464 469.857C152.084 469.423 151.866 469.008 151.432 468.388ZM154.238 456.624C153.712 455.628 152.005 453.735 151.217 452.912C152.047 452.474 153.105 452.87 153.972 454.111C154.839 455.352 155.068 456.186 154.238 456.624Z" fill="#12C65A"/>
<path d="M233.916 339.318L150.493 439.972C150.843 439.938 151.205 439.951 151.571 440.012L156.334 440.806L236.537 347.7L233.916 339.318Z" fill="#FF562B"/>
<path fill-rule="evenodd" clip-rule="evenodd" d="M150.493 439.972C150.839 439.939 151.198 439.951 151.561 440.01C151.564 440.011 151.568 440.012 151.571 440.012L156.333 440.806L236.804 347.373L234.183 338.991L150.493 439.972ZM152.186 439.257L156.003 439.893L235.856 347.177L233.84 340.731L152.186 439.257Z" fill="#FF562B"/>
<path d="M459.203 440.623L450.671 442.097C449.553 442.289 448.802 443.349 448.996 444.464C449.19 445.58 450.252 446.327 451.365 446.134L459.901 444.66C461.019 444.468 461.762 443.408 461.568 442.293C461.378 441.178 460.32 440.43 459.203 440.623Z" fill="#FFFBF6"/>
<path d="M297.626 469.702C300.012 469.002 301.378 466.501 300.678 464.114C299.978 461.729 297.477 460.362 295.091 461.062C293.017 461.67 291.714 463.64 291.868 465.712L262.576 501.443L267.387 505.215L297.626 469.702Z" fill="#FFC700"/>
<path d="M294.709 470.991L292.515 469.183L280.763 483.449L282.958 485.255L294.709 470.991Z" fill="#FEF0C2"/>
<path d="M279.54 507.128L279.54 507.128C280.072 507.353 280.32 507.97 280.093 508.504L277.535 514.495C277.309 515.03 276.693 515.276 276.161 515.051L247.151 502.676C247.151 502.676 247.151 502.676 247.151 502.676C246.618 502.447 246.371 501.834 246.597 501.3L249.154 495.308C249.381 494.774 249.997 494.528 250.529 494.753L279.54 507.128Z" fill="#FFC700" stroke="#C09706"/>
<path d="M261.935 511.52C265.113 512.873 268.788 511.395 270.143 508.219C271.498 505.04 270.021 501.364 266.843 500.007C263.665 498.655 259.99 500.133 258.635 503.308C257.28 506.488 258.757 510.159 261.935 511.52Z" fill="#FF562B"/>
<path d="M262.483 510.238C264.955 511.293 267.813 510.142 268.868 507.672C269.921 505.202 268.772 502.34 266.301 501.289C263.829 500.235 260.971 501.381 259.917 503.856C258.863 506.326 260.011 509.183 262.483 510.238Z" fill="#FEF0C2"/>
<path d="M295.615 462.655C294.204 462.938 293.288 464.311 293.571 465.723C293.854 467.134 295.228 468.048 296.64 467.765C298.051 467.483 298.966 466.109 298.682 464.698C298.4 463.287 297.026 462.372 295.615 462.655Z" fill="#252120"/>
<path d="M319.222 457.039L272.064 461.705L272.391 465.006L319.548 460.34L319.222 457.039Z" fill="#0F141A"/>
<path d="M304.133 488.183L299.467 441.026L296.166 441.353L300.833 488.51L304.133 488.183Z" fill="#0F141A"/>
<path d="M319.82 465.129L272.662 469.795L272.989 473.096L320.147 468.43L319.82 465.129Z" fill="#0F141A"/>
<path d="M296.044 488.781L291.378 441.623L288.076 441.95L292.743 489.107L296.044 488.781Z" fill="#0F141A"/>
<path fill-rule="evenodd" clip-rule="evenodd" d="M292.247 442.884C280.192 445.213 272.308 456.874 274.637 468.929C276.966 480.984 288.627 488.868 300.682 486.54C312.738 484.209 320.622 472.55 318.293 460.494C315.963 448.439 304.303 440.555 292.247 442.884ZM271.34 469.566C268.659 455.69 277.734 442.268 291.61 439.586C305.487 436.905 318.909 445.981 321.59 459.857C324.271 473.735 315.196 487.156 301.32 489.837C287.443 492.518 274.021 483.441 271.34 469.566Z" fill="#0D1116"/>
<path fill-rule="evenodd" clip-rule="evenodd" d="M292.167 442.468C304.452 440.095 316.335 448.129 318.708 460.414C321.082 472.701 313.047 484.583 300.763 486.954C288.478 489.328 276.595 481.292 274.222 469.009C271.848 456.725 279.883 444.842 292.167 442.468ZM291.691 440.002C278.044 442.639 269.119 455.839 271.755 469.485C274.392 483.132 287.593 492.057 301.24 489.42C314.886 486.786 323.811 473.585 321.175 459.938C318.538 446.291 305.337 437.365 291.691 440.002ZM274.637 468.929C272.308 456.874 280.192 445.213 292.247 442.884C304.303 440.555 315.963 448.439 318.293 460.494C320.622 472.55 312.738 484.209 300.682 486.54C288.627 488.868 276.966 480.984 274.637 468.929ZM291.61 439.586C277.734 442.268 268.659 455.69 271.34 469.566C274.021 483.441 287.443 492.518 301.32 489.837C315.196 487.156 324.271 473.735 321.59 459.857C318.909 445.981 305.487 436.905 291.61 439.586Z" fill="#12181E"/>
<path d="M297.093 467.883C298.474 467.478 299.265 466.03 298.86 464.649C298.455 463.267 297.007 462.476 295.626 462.881C294.244 463.287 293.453 464.735 293.859 466.116C294.263 467.497 295.712 468.289 297.093 467.883Z" fill="#252120"/>
<path d="M295.245 460.795C292.808 461.283 291.228 463.656 291.716 466.094C292.205 468.531 294.577 470.112 297.015 469.623C299.134 469.198 300.605 467.35 300.633 465.273L322.25 441.656L317.787 437.476L295.245 460.795Z" fill="#FFC700"/>
<path d="M295.473 462.856C294.061 463.139 293.146 464.513 293.429 465.924C293.712 467.335 295.086 468.25 296.497 467.967C297.908 467.684 298.823 466.311 298.54 464.899C298.257 463.488 296.884 462.573 295.473 462.856Z" fill="#FEF0C2"/>
<path d="M298.532 460.11L300.651 462.005L312.973 448.231L310.854 446.335L298.532 460.11Z" fill="#FEF0C2"/>
<path d="M338.354 441.793L338.541 441.893L338.354 441.793L335.284 447.541C335.011 448.051 334.376 448.244 333.866 447.971L306.048 433.108C305.538 432.835 305.346 432.201 305.618 431.69L308.689 425.942C308.962 425.431 309.597 425.239 310.107 425.512L337.924 440.375C338.435 440.648 338.627 441.282 338.354 441.793Z" fill="#FFC700"/>
<path d="M338.354 441.793L338.541 441.893L338.354 441.793ZM338.354 441.793L335.284 447.541C335.011 448.051 334.376 448.244 333.866 447.971L306.048 433.108C305.538 432.835 305.346 432.201 305.618 431.69L308.689 425.942C308.962 425.431 309.597 425.239 310.107 425.512L337.924 440.375C338.435 440.648 338.627 441.282 338.354 441.793Z" stroke="#C09706"/>
<path d="M325.729 430.467C322.682 428.839 318.892 429.989 317.264 433.036C315.636 436.083 316.787 439.873 319.834 441.501C322.88 443.129 326.671 441.979 328.299 438.932C329.927 435.885 328.777 432.095 325.729 430.467Z" fill="#FF562B"/>
<path d="M325.069 431.693C322.7 430.427 319.752 431.321 318.486 433.691C317.219 436.062 318.114 439.009 320.484 440.276C322.854 441.542 325.802 440.647 327.068 438.277C328.334 435.907 327.44 432.96 325.069 431.693Z" fill="#FEF0C2"/>
<path d="M239.203 332.865L228.418 335.45C226.781 335.842 225.772 337.487 226.165 339.125C226.557 340.762 228.202 341.771 229.839 341.378L240.624 338.793C242.261 338.4 243.27 336.756 242.878 335.118C242.485 333.481 240.84 332.472 239.203 332.865Z" fill="#FF562B"/>
<path fill-rule="evenodd" clip-rule="evenodd" d="M239.4 333.688L228.616 336.273C227.433 336.557 226.704 337.745 226.988 338.927C227.271 340.11 228.46 340.839 229.642 340.555L240.427 337.97C241.609 337.686 242.338 336.498 242.055 335.315C241.771 334.133 240.583 333.404 239.4 333.688ZM242.878 335.118C243.27 336.756 242.261 338.4 240.624 338.793L229.839 341.378C228.202 341.771 226.557 340.762 226.165 339.125C225.772 337.487 226.781 335.842 228.418 335.45L239.203 332.865C240.84 332.472 242.485 333.481 242.878 335.118Z" fill="#FFA58E"/>
<path d="M318.192 387.445L338.094 393.696L334.563 426.363L315.274 417.455L318.192 387.445Z" fill="url(#paint5_linear)"/>
<path d="M353.81 443.743C348.904 437.729 336.358 421.254 335.245 419.785C325.181 421.175 318.256 413.326 316.052 409.228C309.421 413.777 305.777 420.868 305.315 422.754L351.444 448.126C354.435 449.879 356.196 446.668 353.81 443.743Z" fill="#161616"/>
<path d="M335.241 419.784C325.178 421.175 318.253 413.326 316.048 409.228C315.136 409.854 314.288 410.509 313.502 411.179C316.382 416.187 325.07 425.324 336.782 421.808C335.985 420.763 335.437 420.043 335.241 419.784Z" fill="#FF562B"/>
<path d="M329.144 259.917C350.083 260.891 360.371 267.425 360.65 280.093C361.64 325.032 345.309 408.802 344.058 413.584C342.807 418.366 315.586 410.208 315.405 401.994C315.224 393.78 314.962 331.792 314.587 314.727C314.372 305.004 259.734 319.631 227.341 311.497C194.948 303.363 184.198 301.946 194.975 258.852C241.114 255.187 282.905 257.766 329.144 259.917Z" fill="#141414"/>
<path d="M329.144 259.917C350.083 260.891 360.371 267.425 360.65 280.093C361.64 325.032 345.309 408.802 344.058 413.584C342.807 418.366 315.586 410.208 315.405 401.994C315.224 393.78 314.962 331.792 314.587 314.727C314.372 305.004 259.734 319.631 227.341 311.497C194.948 303.363 184.198 301.946 194.975 258.852C241.114 255.187 282.905 257.766 329.144 259.917Z" fill="url(#paint6_linear)"/>
<path d="M329.144 259.917C350.083 260.891 360.371 267.425 360.65 280.093C361.64 325.032 345.309 408.802 344.058 413.584C342.807 418.366 315.586 410.208 315.405 401.994C315.224 393.78 314.962 331.792 314.587 314.727C314.372 305.004 259.734 319.631 227.341 311.497C194.948 303.363 184.198 301.946 194.975 258.852C241.114 255.187 282.905 257.766 329.144 259.917Z" fill="url(#paint7_linear)"/>
<path d="M420.76 285.614L429.172 270.245L435.833 279.36C440.019 277.008 457.366 274.441 452.774 293.343C451.808 297.316 426.119 291.329 420.76 285.614Z" fill="url(#paint8_linear)"/>
<path d="M434.694 271.833C421.352 261.36 384.734 227.565 384.734 227.565C380.366 210.9 377.475 163.463 366.996 151.719L345.582 191.106C345.582 191.106 356.758 237.442 366.52 250.422C369.405 254.26 400.171 275.895 423.589 288.727C428.187 291.246 437.653 274.159 434.694 271.833Z" fill="#FFBF30"/>
<path d="M434.694 271.833C421.352 261.36 384.734 227.565 384.734 227.565C380.366 210.9 377.475 163.463 366.996 151.719L345.582 191.106C345.582 191.106 356.758 237.442 366.52 250.422C369.405 254.26 400.171 275.895 423.589 288.727C428.187 291.246 437.653 274.159 434.694 271.833Z" fill="url(#paint9_linear)"/>
<path d="M434.694 271.833C421.352 261.36 384.734 227.565 384.734 227.565C380.366 210.9 377.475 163.463 366.996 151.719L345.582 191.106C345.582 191.106 356.758 237.442 366.52 250.422C369.405 254.26 400.171 275.895 423.589 288.727C428.187 291.246 437.653 274.159 434.694 271.833Z" fill="url(#paint10_linear)"/>
<path d="M366.52 250.422C369.406 254.259 400.171 275.894 423.589 288.726C428.187 291.245 437.653 274.158 434.694 271.833C421.352 261.36 384.734 227.565 384.734 227.565C380.366 210.899 377.475 163.462 366.996 151.719" stroke="#4BE9D9"/>
<path d="M351.214 113.682C351.214 113.682 351.376 117.77 351.949 119.695C354.439 128.065 360.994 132.223 367.697 133.138C367.697 133.138 366.326 146.628 365.26 154.102C357.653 158.503 342.916 154.94 344.837 145.158C346.759 135.376 349.292 123.464 351.214 113.682Z" fill="#F4B88E"/>
<path d="M351.214 113.682C351.214 113.682 351.376 117.77 351.949 119.695C354.439 128.065 360.994 132.223 367.697 133.138C367.697 133.138 366.326 146.628 365.26 154.102C357.653 158.503 342.916 154.94 344.837 145.158C346.759 135.376 349.292 123.464 351.214 113.682Z" fill="url(#paint11_linear)"/>
<path d="M351.214 113.682C351.214 113.682 351.376 117.77 351.949 119.695C354.439 128.065 360.994 132.223 367.697 133.138C367.697 133.138 366.326 146.628 365.26 154.102C357.653 158.503 342.916 154.94 344.837 145.158C346.759 135.376 349.292 123.464 351.214 113.682Z" fill="url(#paint12_linear)"/>
<path d="M191.414 297.824C193.499 301.481 196.603 285.968 214.422 289.541C232.241 293.114 240.456 275.15 256.248 274.802C272.041 274.455 278.284 260.809 278.94 258.195C281.869 246.525 323.964 212.56 331.512 216.021C331.512 216.021 353.271 208.1 361.339 196.845C367.268 188.573 374.459 158.678 365.843 149.765C363.228 158.365 345.148 150.509 345.011 144.28C262.008 146.109 164.651 250.888 191.414 297.824Z" fill="#FFC542"/>
<path d="M191.414 297.824C193.499 301.481 196.603 285.968 214.422 289.541C232.241 293.114 240.456 275.15 256.248 274.802C272.041 274.455 278.284 260.809 278.94 258.195C281.869 246.525 323.964 212.56 331.512 216.021C331.512 216.021 353.271 208.1 361.339 196.845C367.268 188.573 374.459 158.678 365.843 149.765C363.228 158.365 345.148 150.509 345.011 144.28C262.008 146.109 164.651 250.888 191.414 297.824Z" fill="url(#paint13_linear)"/>
<path d="M191.414 297.824C193.499 301.481 196.603 285.968 214.422 289.541C232.241 293.114 240.456 275.15 256.248 274.802C272.041 274.455 278.284 260.809 278.94 258.195C281.869 246.525 323.964 212.56 331.512 216.021C331.512 216.021 353.271 208.1 361.339 196.845C367.268 188.573 374.459 158.678 365.843 149.765C363.228 158.365 345.148 150.509 345.011 144.28C262.008 146.109 164.651 250.888 191.414 297.824Z" fill="#12C65A"/>
<path d="M330.224 215.203C322.676 211.742 280.581 245.707 277.652 257.377C276.996 259.991 270.753 273.636 254.96 273.984C239.167 274.332 230.952 292.296 213.134 288.723C195.315 285.15 192.239 301.932 190.154 298.275C163.391 251.339 260.72 145.29 343.723 143.462" stroke="#12C65A"/>
<path d="M197.718 181.34C217.277 143.23 276.638 105.866 284.535 99.1754C300.652 106.879 334.08 135.652 344.819 145.028C324.613 143.933 272.81 157.118 221.688 210.031C213.336 209.016 192.529 191.45 197.718 181.34Z" fill="#FF7654"/>
<path d="M197.718 181.34C217.277 143.23 276.638 105.866 284.535 99.1754C300.652 106.879 334.08 135.652 344.819 145.028C324.613 143.933 272.81 157.118 221.688 210.031C213.336 209.016 192.529 191.45 197.718 181.34Z" fill="url(#paint14_linear)"/>
<path fill-rule="evenodd" clip-rule="evenodd" d="M290.025 85.0461C290.001 85.3958 289.697 85.6592 289.347 85.6343C288.14 85.5486 285.309 86.0422 280.852 87.8384C276.424 89.6225 270.458 92.6646 263.007 97.5926C262.714 97.7857 262.32 97.7055 262.127 97.413C261.934 97.1205 262.014 96.7267 262.307 96.5336C269.814 91.5679 275.856 88.4824 280.377 86.6607C284.868 84.8512 287.926 84.2605 289.437 84.3678C289.787 84.3926 290.05 84.6963 290.025 85.0461Z" fill="#FF7957"/>
<path d="M289.62 84.4087L311.286 101.344C303.186 97.6143 293.722 97.5086 284.505 100.284C268.618 108.778 209.288 161.894 197.718 181.337C209.096 149.327 255.227 110.426 289.62 84.4087Z" fill="#FF5F37"/>
<path fill-rule="evenodd" clip-rule="evenodd" d="M289.623 84.1424L289.493 84.2406C272.293 97.2518 252.154 113.487 234.89 130.475C217.633 147.457 203.225 165.213 197.519 181.266L197.9 181.446C200.78 176.607 206.642 169.656 214.08 161.81C221.513 153.968 230.507 145.244 239.637 136.861C248.766 128.478 258.03 120.437 266.003 113.962C273.969 107.494 280.633 102.599 284.587 100.481C293.759 97.7237 303.16 97.8358 311.198 101.537L311.417 101.178L289.623 84.1424ZM309.872 100.507C302.061 97.3948 293.137 97.4648 284.445 100.082L284.424 100.088L284.406 100.098C280.414 102.232 273.713 107.157 265.736 113.634C257.756 120.115 248.485 128.161 239.35 136.549C230.216 144.937 221.214 153.668 213.773 161.519C207.178 168.476 201.799 174.752 198.638 179.489C204.74 164.039 218.625 147.074 235.187 130.777C252.389 113.85 272.454 97.6661 289.618 84.6763L309.872 100.507Z" fill="#FF5F37"/>
<path d="M284.323 100.129C300.439 107.833 334.127 135.552 344.866 144.928C333.123 113.592 315.713 104.309 304.716 96.595C295.934 90.4354 286.348 92.1325 284.323 100.129Z" fill="#FF7957"/>
<path fill-rule="evenodd" clip-rule="evenodd" d="M344.446 144.241C338.638 129.046 331.523 119.147 324.502 112.064C318.904 106.416 313.369 102.558 308.583 99.2217C307.259 98.2988 305.991 97.4157 304.797 96.5458L305.046 96.2034C306.231 97.0658 307.491 97.944 308.81 98.8641C313.599 102.202 319.175 106.088 324.803 111.766C331.986 119.014 339.258 129.182 345.139 144.878L344.802 145.111C339.437 140.427 328.293 131.2 316.476 122.183C304.655 113.161 292.179 104.363 284.144 100.521L284.326 100.14C292.407 104.002 304.915 112.827 316.733 121.846C328.109 130.528 338.862 139.403 344.446 144.241Z" fill="#00A3FF"/>
<path d="M232.085 168.649C233.95 170.906 234.93 173.141 235.027 175.355C235.125 177.552 234.303 179.37 232.56 180.809C231.08 182.032 229.458 182.506 227.696 182.23L233.401 189.137L229.487 192.37L212.73 172.081L216.36 169.083L217.681 170.407C217.689 168.486 218.456 166.896 219.983 165.636C221.788 164.144 223.744 163.652 225.85 164.161C227.956 164.67 229.979 166.098 231.918 168.445L232.085 168.649ZM227.936 171.597C226.81 170.234 225.697 169.383 224.599 169.045C223.508 168.7 222.503 168.908 221.582 169.668C220.354 170.683 219.897 171.85 220.213 173.169L225.168 179.169C226.445 179.74 227.697 179.518 228.925 178.504C230.794 176.96 230.464 174.658 227.936 171.597Z" fill="#FDF8D2"/>
<path d="M232.085 168.649C233.95 170.906 234.93 173.141 235.027 175.355C235.125 177.552 234.303 179.37 232.56 180.809C231.08 182.032 229.458 182.506 227.696 182.23L233.401 189.137L229.487 192.37L212.73 172.081L216.36 169.083L217.681 170.407C217.689 168.486 218.456 166.896 219.983 165.636C221.788 164.144 223.744 163.652 225.85 164.161C227.956 164.67 229.979 166.098 231.918 168.445L232.085 168.649ZM227.936 171.597C226.81 170.234 225.697 169.383 224.599 169.045C223.508 168.7 222.503 168.908 221.582 169.668C220.354 170.683 219.897 171.85 220.213 173.169L225.168 179.169C226.445 179.74 227.697 179.518 228.925 178.504C230.794 176.96 230.464 174.658 227.936 171.597Z" fill="url(#paint15_linear)"/>
<path d="M246.952 168.468L243.024 171.712L230.92 157.058L234.848 153.813L246.952 168.468ZM227.558 153.455C227.074 152.868 226.868 152.225 226.944 151.525C227.028 150.818 227.409 150.185 228.085 149.625C228.754 149.073 229.443 148.823 230.153 148.874C230.864 148.925 231.462 149.244 231.947 149.831C232.439 150.427 232.638 151.082 232.545 151.797C232.461 152.505 232.09 153.13 231.43 153.675C230.771 154.219 230.082 154.47 229.362 154.426C228.652 154.375 228.05 154.051 227.558 153.455Z" fill="#FDF8D2"/>
<path d="M246.952 168.468L243.024 171.712L230.92 157.058L234.848 153.813L246.952 168.468ZM227.558 153.455C227.074 152.868 226.868 152.225 226.944 151.525C227.028 150.818 227.409 150.185 228.085 149.625C228.754 149.073 229.443 148.823 230.153 148.874C230.864 148.925 231.462 149.244 231.947 149.831C232.439 150.427 232.638 151.082 232.545 151.797C232.461 152.505 232.09 153.13 231.43 153.675C230.771 154.219 230.082 154.47 229.362 154.426C228.652 154.375 228.05 154.051 227.558 153.455Z" fill="url(#paint16_linear)"/>
<path d="M254.436 156.978L261.601 151.06L264.208 154.216L252.045 164.261L250.076 161.877L249.453 147.082L242.763 152.608L240.145 149.439L251.887 139.74L253.8 142.056L254.436 156.978Z" fill="#FDF8D2"/>
<path d="M254.436 156.978L261.601 151.06L264.208 154.216L252.045 164.261L250.076 161.877L249.453 147.082L242.763 152.608L240.145 149.439L251.887 139.74L253.8 142.056L254.436 156.978Z" fill="url(#paint17_linear)"/>
<path d="M270.907 143.374L278.072 137.457L280.678 140.613L268.516 150.658L266.547 148.274L265.923 133.479L259.233 139.005L256.615 135.835L268.358 126.137L270.27 128.453L270.907 143.374Z" fill="#FDF8D2"/>
<path d="M270.907 143.374L278.072 137.457L280.678 140.613L268.516 150.658L266.547 148.274L265.923 133.479L259.233 139.005L256.615 135.835L268.358 126.137L270.27 128.453L270.907 143.374Z" fill="url(#paint18_linear)"/>
<path d="M293.979 129.627C293.507 129.424 293.015 129.094 292.501 128.637C292.426 130.477 291.63 132.023 290.112 133.276C288.677 134.461 287.142 135.031 285.508 134.983C283.883 134.928 282.548 134.268 281.504 133.004C280.222 131.451 279.81 129.786 280.271 128.008C280.74 126.223 282.06 124.427 284.228 122.621L286.03 121.133L285.336 120.293C284.777 119.616 284.153 119.22 283.466 119.104C282.787 118.981 282.073 119.229 281.324 119.848C280.664 120.393 280.276 120.979 280.158 121.608C280.048 122.231 280.221 122.817 280.676 123.367L276.762 126.6C276.061 125.751 275.674 124.75 275.601 123.595C275.528 122.44 275.802 121.264 276.424 120.067C277.038 118.862 277.941 117.766 279.133 116.782C280.939 115.291 282.746 114.565 284.556 114.604C286.367 114.627 287.951 115.46 289.309 117.103L294.555 123.455C295.712 124.838 296.775 125.73 297.744 126.13L297.934 126.36L293.979 129.627ZM288.494 129.578C289.071 129.101 289.5 128.534 289.778 127.879C290.05 127.214 290.124 126.568 290.001 125.941L287.92 123.422L286.457 124.63C284.498 126.248 284.014 127.787 285.007 129.245L285.183 129.487C285.586 129.974 286.089 130.235 286.694 130.267C287.298 130.3 287.898 130.07 288.494 129.578Z" fill="#FDF8D2"/>
<path d="M293.979 129.627C293.507 129.424 293.015 129.094 292.501 128.637C292.426 130.477 291.63 132.023 290.112 133.276C288.677 134.461 287.142 135.031 285.508 134.983C283.883 134.928 282.548 134.268 281.504 133.004C280.222 131.451 279.81 129.786 280.271 128.008C280.74 126.223 282.06 124.427 284.228 122.621L286.03 121.133L285.336 120.293C284.777 119.616 284.153 119.22 283.466 119.104C282.787 118.981 282.073 119.229 281.324 119.848C280.664 120.393 280.276 120.979 280.158 121.608C280.048 122.231 280.221 122.817 280.676 123.367L276.762 126.6C276.061 125.751 275.674 124.75 275.601 123.595C275.528 122.44 275.802 121.264 276.424 120.067C277.038 118.862 277.941 117.766 279.133 116.782C280.939 115.291 282.746 114.565 284.556 114.604C286.367 114.627 287.951 115.46 289.309 117.103L294.555 123.455C295.712 124.838 296.775 125.73 297.744 126.13L297.934 126.36L293.979 129.627ZM288.494 129.578C289.071 129.101 289.5 128.534 289.778 127.879C290.05 127.214 290.124 126.568 290.001 125.941L287.92 123.422L286.457 124.63C284.498 126.248 284.014 127.787 285.007 129.245L285.183 129.487C285.586 129.974 286.089 130.235 286.694 130.267C287.298 130.3 287.898 130.07 288.494 129.578Z" fill="url(#paint19_linear)"/>
<path d="M334.468 145.444C335.685 145.321 340.822 144.466 344.792 144.882C354.281 194.505 284.476 217.632 221.521 209.952L225.643 205.849C268.068 208.357 346.639 197.114 334.468 145.444Z" fill="url(#paint20_linear)"/>
<path d="M372.555 132.405C377.382 126.552 382.23 94.8907 382.23 94.8907L349.95 92.928C350.741 104.57 347.405 114.659 354.045 125.464C358.95 132.418 367.728 138.258 372.555 132.405Z" fill="#F4B88E"/>
<path d="M372.555 132.405C377.382 126.552 382.23 94.8907 382.23 94.8907L349.95 92.928C350.741 104.57 347.405 114.659 354.045 125.464C358.95 132.418 367.728 138.258 372.555 132.405Z" fill="url(#paint21_linear)"/>
<path d="M372.555 132.405C377.382 126.552 382.23 94.8907 382.23 94.8907L349.95 92.928C350.741 104.57 347.405 114.659 354.045 125.464C358.95 132.418 367.728 138.258 372.555 132.405Z" fill="url(#paint22_linear)"/>
<path d="M374.676 127.683C378.204 117.206 382.234 94.8906 382.234 94.8906L376.469 94.5401C378.73 102.991 376.216 120.157 374.676 127.683Z" fill="url(#paint23_linear)"/>
<path d="M355.171 112.566C358.762 107.278 360.143 103.169 359.085 99.8046C363.945 102.53 377.375 112.247 383.784 101.624C390.192 91.0013 375.153 87.4731 369.764 88.1048C362.672 81.6473 355.683 86.0412 355.198 88.5117C352.872 88.0457 342.042 92.8978 342.061 100.585C342.08 108.54 349.243 120.719 348.335 128.158C350.213 123.904 350.372 117.325 351.439 115.073C347.179 109.638 354.229 105.036 355.171 112.566Z" fill="url(#paint24_linear)"/>
<path d="M355.171 112.566C358.762 107.278 360.143 103.169 359.085 99.8046C363.945 102.53 377.375 112.247 383.784 101.624C390.192 91.0013 375.153 87.4731 369.764 88.1048C362.672 81.6473 355.683 86.0412 355.198 88.5117C352.872 88.0457 342.042 92.8978 342.061 100.585C342.08 108.54 349.243 120.719 348.335 128.158C350.213 123.904 350.372 117.325 351.439 115.073C347.179 109.638 354.229 105.036 355.171 112.566Z" fill="#1E1E1E"/>
<path d="M359.595 100.115C360.154 100.37 360.849 100.765 361.653 101.236C370.287 105.805 378.273 108.196 382.539 103.362C376.331 110.393 366.79 104.249 361.653 101.236C360.97 100.875 360.284 100.5 359.595 100.115Z" fill="url(#paint25_linear)"/>
<path d="M360.292 100.25C361.409 100.762 363.125 101.696 365.176 102.625C372.878 105.794 380.099 105.979 383.907 101.668C378.67 107.599 370.705 105.129 365.176 102.625C363.56 101.959 361.923 101.164 360.292 100.25Z" fill="url(#paint26_linear)"/>
<path d="M359.084 99.8055C372.744 104.914 381.243 103.147 383.784 101.625C384.899 99.7774 385.362 98.145 385.343 96.7111C384.15 99.2271 377.226 103.369 359.084 99.8055Z" fill="url(#paint27_linear)"/>
<path fill-rule="evenodd" clip-rule="evenodd" d="M357.999 113.723C358.018 114.565 357.494 116.292 355.621 116.873C352.196 117.937 349.171 119.383 346.898 118.135C344.626 116.887 342.354 115.084 339.878 110.757C337.402 106.43 335.598 104.124 335.682 102.449C336.685 103.13 349.875 112.673 357.999 113.723ZM345.574 112.051C346.732 112.47 352.332 115.115 350.31 115.977C348.866 116.591 347.84 117.419 347.16 116.52C346.638 115.83 343.453 111.002 345.574 112.051Z" fill="#0C55DE"/>
<path fill-rule="evenodd" clip-rule="evenodd" d="M357.999 113.723C358.018 114.565 357.494 116.292 355.621 116.873C352.196 117.937 349.171 119.383 346.898 118.135C344.626 116.887 342.354 115.084 339.878 110.757C337.402 106.43 335.598 104.124 335.682 102.449C336.685 103.13 349.875 112.673 357.999 113.723ZM345.574 112.051C346.732 112.47 352.332 115.115 350.31 115.977C348.866 116.591 347.84 117.419 347.16 116.52C346.638 115.83 343.453 111.002 345.574 112.051Z" fill="#0DBD54"/>
<path d="M335.681 102.572C335.674 102.259 335.82 101.537 335.894 101.215C337.455 100.234 342.788 105.323 346.188 107.358C349.587 109.392 355.701 107.58 358.055 106.419C360.41 105.257 366.969 105.234 371.514 104.011C376.058 102.787 375.874 103.103 383.3 101.207C377.212 108.469 372.967 108.537 367.02 108.141C361.074 107.745 358.646 111.708 358.001 113.723C345.23 112.356 337.864 105.283 336.882 104.277C335.899 103.271 335.689 102.964 335.681 102.572Z" fill="#0C55DE"/>
<path d="M335.681 102.572C335.674 102.259 335.82 101.537 335.894 101.215C337.455 100.234 342.788 105.323 346.188 107.358C349.587 109.392 355.701 107.58 358.055 106.419C360.41 105.257 366.969 105.234 371.514 104.011C376.058 102.787 375.874 103.103 383.3 101.207C377.212 108.469 372.967 108.537 367.02 108.141C361.074 107.745 358.646 111.708 358.001 113.723C345.23 112.356 337.864 105.283 336.882 104.277C335.899 103.271 335.689 102.964 335.681 102.572Z" fill="#0DBD54"/>
<path d="M388.467 94.5733C387.736 96.9428 384.338 102.38 376.597 105.169C372.912 106.739 369.021 106.338 367.473 106.048C365.925 105.757 363.02 104.699 358.277 109.173C357.626 109.687 357.194 110.346 357.002 110.824C356.809 111.301 356.474 111.444 355.672 111.232C354.869 111.02 348.839 109.869 342.497 106.317C338.401 103.945 336.961 102.422 335.893 101.215C336.328 98.8924 339.441 87.9899 353.892 82.1516C368.343 76.3133 384.915 83.8181 388.467 94.5733Z" fill="#114DBD"/>
<path d="M388.467 94.5733C387.736 96.9428 384.338 102.38 376.597 105.169C372.912 106.739 369.021 106.338 367.473 106.048C365.925 105.757 363.02 104.699 358.277 109.173C357.626 109.687 357.194 110.346 357.002 110.824C356.809 111.301 356.474 111.444 355.672 111.232C354.869 111.02 348.839 109.869 342.497 106.317C338.401 103.945 336.961 102.422 335.893 101.215C336.328 98.8924 339.441 87.9899 353.892 82.1516C368.343 76.3133 384.915 83.8181 388.467 94.5733Z" fill="#141414"/>
<path d="M351.625 95.2263C348.468 96.1751 344.749 98.5939 343.248 99.9021C341.322 101.581 342.934 101.864 345.838 101.521C347.236 100.097 351.378 97.1359 356.756 96.6813C357.784 94.8192 354.783 94.277 351.625 95.2263Z" fill="#2A2A2A"/>
<path d="M351.088 87.4609C354.097 86.0526 353.729 88.0247 353.168 89.1867C351.782 89.4609 347.995 91.3112 343.944 96.5186C341.77 97.5466 340.748 97.5632 341.9 95.8068C343.051 94.0499 347.326 89.2214 351.088 87.4609Z" fill="#2A2A2A"/>
<path d="M367.546 86.1498C371.695 86.5989 371.393 89.419 370.894 90.1061C368.374 88.2036 362.938 90.1967 360.535 91.4311C353.74 89.9721 363.398 85.7006 367.546 86.1498Z" fill="#2B2B2B"/>
<path d="M372.882 85.8558C370.419 83.9762 375.697 84.6573 377.414 85.3497C378.746 85.8862 381.164 87.6347 379.693 88.0977C378.092 86.5633 375.036 86.3883 373.708 86.4926C373.39 86.2801 373.11 86.0644 372.882 85.8558Z" fill="#2A2A2A"/>
<path d="M381.097 93.4373C384.307 94.8407 382.553 96.8542 381.474 96.9186C379.691 97.0384 377.682 96.3583 376.119 95.5575C377.339 96.1724 380.085 97.0817 381.314 95.7995C382.539 94.5173 380.919 93.4243 379.954 93.0379C380.35 93.146 380.734 93.2781 381.097 93.4373Z" fill="#2A2A2A"/>
<path d="M372.806 98.3144C376.974 97.8839 378.202 101.319 372.346 103.18C366.839 104.93 360.709 105.546 357.662 104.764C363.28 105.142 369.62 103.47 372.904 101.517C375.53 99.9554 373.934 98.7311 372.806 98.3144Z" fill="#2A2A2A"/>
<path d="M352.488 106.731C349.993 107.413 347.345 106.547 346.332 106.028C353.347 107.631 352.58 104.158 352.189 103.612C354.502 104.21 353.713 106.446 352.488 106.731Z" fill="#2A2A2A"/>
<path fill-rule="evenodd" clip-rule="evenodd" d="M345.839 101.523C347.337 100.083 351.617 97.0994 356.758 96.6826C355.731 98.5446 351.691 100.582 347.703 101.252C347.042 101.362 346.416 101.455 345.839 101.523ZM353.17 89.1879C351.779 91.1258 348.559 94.7135 343.946 96.5199C345.391 94.5856 349.259 90.4105 353.17 89.1879ZM360.537 91.4324C362.563 92.0999 367.47 92.7694 370.895 90.1074C368.436 88.4955 362.965 90.3189 360.537 91.4324ZM379.334 88.1758C379.474 88.1569 379.596 88.131 379.697 88.0989C379.003 87.3387 376.834 85.9533 373.709 86.4938C375.205 87.4918 377.541 88.4162 379.334 88.1758ZM381.35 95.7052C380.538 97.065 377.525 96.1738 376.123 95.5583C374.787 94.8727 373.776 94.0978 373.517 93.6607C373.162 92.829 376.875 92.1944 379.958 93.0391C380.831 93.442 382.114 94.4297 381.35 95.7052ZM363.424 100.254C359.759 101.499 354.314 103.581 357.123 104.6C357.29 104.661 357.471 104.716 357.664 104.766C363.137 105.363 369.565 103.338 372.772 101.576C375.336 100.167 373.865 98.8152 372.808 98.3153C369.11 98.6973 366.991 99.2783 364.429 99.9803C364.103 100.07 363.769 100.161 363.424 100.254Z" fill="#1E1E1E"/>
<path d="M345.133 104.325C346.55 103.563 348.463 103.223 350.155 103.294C350.607 103.285 351.462 103.367 352.208 103.608C352.66 104.227 353.107 105.642 351.612 106.156C349.679 106.821 347.636 106.484 346.005 106.001C344.545 105.395 344.464 104.684 345.133 104.325Z" fill="#1E1E1E"/>
<path d="M354.843 119.468L350.018 119.915C351.453 128.845 367.987 132.351 368.172 140.758C368.236 143.688 368.437 148.18 367.677 151.296L370.385 151.236C370.385 151.236 372.037 141.091 371.422 138.626C371.294 132.83 356.313 126.069 354.843 119.468Z" fill="#FF491B"/>
<path d="M372.151 135.396L366.554 136.323C366.054 136.406 365.799 136.969 366.066 137.399L368.133 140.732C368.283 140.974 368.564 141.104 368.846 141.06L371.535 140.644C371.826 140.599 372.059 140.381 372.121 140.094L372.962 136.249C373.069 135.758 372.647 135.314 372.151 135.396Z" fill="#FF7957"/>
<path d="M349.08 119.34C348.995 118.599 348.91 117.71 348.878 117.358C349.023 117.369 349.379 117.439 349.644 117.633C349.845 119.047 350.002 119.277 350.35 119.303C350.698 119.329 352.924 119.363 354.033 119.14C354.92 118.961 354.793 117.725 354.619 117.13L355.558 116.85L355.832 118.444C355.985 119.329 355.642 119.827 355.191 120.013C354.741 120.197 351.908 120.686 350.728 120.686C349.548 120.685 349.186 120.265 349.08 119.34Z" fill="#114DBD"/>
<path fill-rule="evenodd" clip-rule="evenodd" d="M366.998 148.808C367.24 149.453 367.355 150.602 367.004 151.605C366.832 152.098 366.658 152.371 366.537 152.56C366.412 152.756 366.344 152.862 366.395 153.031C366.497 153.362 366.712 153.736 367.557 153.734C368.403 153.732 370.161 153.979 370.484 154.07C370.807 154.161 371.75 153.903 371.509 153.258C371.267 152.614 371.017 151.478 371.257 150.595C371.496 149.711 371.618 149.563 371.862 149.266C372.105 148.969 372.201 148.29 371.115 148.071C370.028 147.851 367.961 147.648 367.534 147.745C367.107 147.842 366.672 148.131 366.998 148.808ZM368.089 148.29C367.838 148.263 367.614 148.445 367.588 148.695C367.562 148.946 367.744 149.169 367.994 149.196L370.756 149.484C371.006 149.509 371.23 149.328 371.256 149.078C371.282 148.827 371.1 148.603 370.85 148.577L368.089 148.29Z" fill="#FF491B"/>
<path d="M427.11 300.185L421.25 311.486L433.45 318.78C440.875 317.403 444.869 315.361 446.266 316.332C447.878 317.457 450.899 318.722 450.118 321.094C457.161 319.691 460.279 308.277 448.711 302.794C445.478 301.118 435.933 302.71 434.738 302.667C433.781 302.633 429.253 300.998 427.11 300.185Z" fill="url(#paint28_linear)"/>
<path d="M333.911 263.856C320.848 248.254 308.315 201.112 303.889 174.018C303.317 148.069 332.588 144.905 334.728 147.117C336.868 149.329 357.284 245.161 359.085 248.264C360.886 251.368 425.791 294.335 429.076 298.536C432.365 302.737 423.147 315.537 420.265 313.842C417.382 312.148 345.741 277.985 333.911 263.856Z" fill="#FFBF30"/>
<path d="M333.911 263.856C320.848 248.254 308.315 201.112 303.889 174.018C303.317 148.069 332.588 144.905 334.728 147.117C336.868 149.329 357.284 245.161 359.085 248.264C360.886 251.368 425.791 294.335 429.076 298.536C432.365 302.737 423.147 315.537 420.265 313.842C417.382 312.148 345.741 277.985 333.911 263.856Z" fill="url(#paint29_linear)"/>
<path d="M333.911 263.856C320.848 248.254 308.315 201.112 303.889 174.018C303.317 148.069 332.588 144.905 334.728 147.117C336.868 149.329 357.284 245.161 359.085 248.264C360.886 251.368 425.791 294.335 429.076 298.536C432.365 302.737 423.147 315.537 420.265 313.842C417.382 312.148 345.741 277.985 333.911 263.856Z" fill="url(#paint30_linear)"/>
<path d="M333.911 263.856C320.848 248.254 308.315 201.112 303.889 174.018C303.317 148.069 332.588 144.905 334.728 147.117C336.868 149.329 357.284 245.161 359.085 248.264C360.886 251.368 425.791 294.335 429.076 298.536C432.365 302.737 423.147 315.537 420.265 313.842C417.382 312.148 345.741 277.985 333.911 263.856Z" fill="url(#paint31_linear)"/>
<path d="M333.912 263.857C345.741 277.985 417.387 312.148 420.265 313.843C423.147 315.537 432.365 302.738 429.08 298.536C425.791 294.335 360.886 251.368 359.085 248.265C357.284 245.161 336.869 149.33 334.728 147.118" stroke="#4BE9D9"/>
<path d="M607.279 515.646C613.342 507.642 614.05 490.481 613.646 482.901C618.012 484.842 622.944 493.614 624.865 497.757H626.684C625.167 481.385 613.949 476.533 612.433 475.927C590.299 486.539 602.73 508.369 607.279 515.646Z" fill="#C4C4C4"/>
<path d="M607.279 515.646C613.342 507.642 614.05 490.481 613.646 482.901C618.012 484.842 622.944 493.614 624.865 497.757H626.684C625.167 481.385 613.949 476.533 612.433 475.927C590.299 486.539 602.73 508.369 607.279 515.646Z" fill="#0DB751"/>
<path fill-rule="evenodd" clip-rule="evenodd" d="M603.987 489.553C604.849 484.561 606.964 481.858 608.702 480.91L608.889 481.253C607.292 482.124 605.223 484.697 604.372 489.62C603.522 494.537 603.894 501.781 607.162 511.949L606.79 512.068C603.509 501.86 603.124 494.55 603.987 489.553Z" fill="white"/>
<path d="M653.971 489.269C649.362 490.966 644.167 495.837 642.146 498.061C641.944 498.162 641.358 498.304 640.63 498.061C644.269 490.481 653.365 482.003 655.487 482.901C663.371 486.236 667.009 501.7 667.616 505.641C662.46 506.854 654.881 491.694 653.971 489.269Z" fill="#0DB751"/>
<path fill-rule="evenodd" clip-rule="evenodd" d="M650.408 488.025C650.318 488.089 650.231 488.152 650.144 488.214L649.917 487.896C650.004 487.834 650.093 487.77 650.184 487.705C651.196 486.979 652.435 486.093 653.554 485.494C654.162 485.169 654.751 484.92 655.259 484.834C655.767 484.748 656.244 484.819 656.551 485.203C656.682 485.368 656.878 485.682 657.121 486.103C657.365 486.527 657.664 487.072 658.003 487.706C658.681 488.974 659.523 490.605 660.422 492.362C660.811 493.12 661.21 493.9 661.61 494.685C663.069 497.542 664.557 500.456 665.666 502.516L665.322 502.701C664.211 500.637 662.72 497.718 661.26 494.86C660.86 494.076 660.462 493.296 660.074 492.54C659.175 490.784 658.334 489.156 657.658 487.891C657.32 487.258 657.024 486.717 656.782 486.298C656.538 485.875 656.356 485.585 656.245 485.448C656.067 485.225 655.77 485.144 655.325 485.219C654.879 485.295 654.335 485.52 653.739 485.839C652.643 486.424 651.425 487.297 650.408 488.025Z" fill="white"/>
<path d="M643.663 475.017C637.356 482.779 634.971 493.815 634.567 498.364C629.109 468.953 648.514 452.58 650.03 451.67C655.488 459.857 651.546 465.315 643.663 475.017Z" fill="#0DB751"/>
<path fill-rule="evenodd" clip-rule="evenodd" d="M643.872 466.346C646.014 461.762 647.877 457.007 648.936 454.031L649.304 454.161C648.241 457.148 646.374 461.914 644.226 466.511C642.081 471.101 639.644 475.55 637.437 477.88L637.154 477.611C639.312 475.333 641.726 470.939 643.872 466.346Z" fill="white"/>
<path d="M620.923 445C633.779 465.133 635.78 489.167 635.174 498.667C634.264 499.577 632.02 500.85 630.322 498.667C622.439 482.597 620.923 457.431 620.923 445Z" fill="#C4C4C4"/>
<path d="M620.923 445C633.779 465.133 635.78 489.167 635.174 498.667C634.264 499.577 632.02 500.85 630.322 498.667C622.439 482.597 620.923 457.431 620.923 445Z" fill="#3ECD77"/>
<path fill-rule="evenodd" clip-rule="evenodd" d="M631.945 497.463C630.977 476.144 624.878 456.478 621.954 449.319L622.316 449.171C625.254 456.363 631.364 476.073 632.336 497.445L631.945 497.463Z" fill="white"/>
<path d="M665.19 468.345C651.607 474.41 642.35 490.479 639.419 497.756C639.115 486.538 657.914 456.521 667.616 458.642C680.048 462.281 675.803 479.261 673.983 482.596C669.436 466.829 666.403 467.739 665.19 468.345Z" fill="#C4C4C4"/>
<path d="M665.19 468.345C651.607 474.41 642.35 490.479 639.419 497.756C639.115 486.538 657.914 456.521 667.616 458.642C680.048 462.281 675.803 479.261 673.983 482.596C669.436 466.829 666.403 467.739 665.19 468.345Z" fill="#3ECD77"/>
<path fill-rule="evenodd" clip-rule="evenodd" d="M671.836 465.252C673.407 467.715 674.474 470.971 675.083 473.456L674.703 473.549C674.098 471.081 673.044 467.872 671.507 465.462C669.963 463.042 667.991 461.501 665.545 462.169C661.17 463.363 650.799 469.985 645.058 484.791L644.693 484.65C650.474 469.742 660.934 463.022 665.442 461.792C668.15 461.053 670.271 462.797 671.836 465.252Z" fill="white"/>
<path d="M620.316 497.454H649.423L654.275 512.311L647.604 536.264H621.529L614.858 512.311L620.316 497.454Z" fill="#936500"/>
<path fill-rule="evenodd" clip-rule="evenodd" d="M654.275 512.702H614.858V511.92H654.275V512.702Z" fill="white"/>
<path d="M49.1448 64.8988C49.1448 82.5159 63.2253 96.7975 80.5928 96.7975C97.9638 96.7975 112.044 82.5159 112.044 64.8988C112.044 47.2816 97.9638 33 80.5928 33C63.2253 33 49.1448 47.2816 49.1448 64.8988Z" fill="#79570B"/>
<path d="M46 64.8988C46 82.5159 60.0805 96.7975 77.448 96.7975C94.819 96.7975 108.9 82.5159 108.9 64.8988C108.9 47.2816 94.819 33 77.448 33C60.0805 33 46 47.2816 46 64.8988Z" fill="#FFD578"/>
<path d="M53.6384 64.8988C53.6384 78.298 64.3002 89.1599 77.448 89.1599C90.5993 89.1599 101.261 78.298 101.261 64.8988C101.261 51.4999 90.5993 40.6377 77.448 40.6377C64.3002 40.6377 53.6384 51.4999 53.6384 64.8988Z" fill="white"/>
<path d="M75.8184 81.5416C75.8184 80.7757 76.4391 80.1547 77.2053 80.1547C77.9716 80.1547 78.5922 80.7757 78.5922 81.5416V84.3154C78.5922 85.0814 77.9716 85.7023 77.2053 85.7023C76.4391 85.7023 75.8184 85.0814 75.8184 84.3154V81.5416Z" fill="#FEB618"/>
<path fill-rule="evenodd" clip-rule="evenodd" d="M76.4148 80.403C76.2553 80.6273 76.1651 80.9005 76.1651 81.1949V84.6622C76.1651 84.9565 76.2553 85.2294 76.4148 85.4541C76.0542 85.2034 75.8184 84.787 75.8184 84.3154V81.5416C75.8184 81.0701 76.0542 80.6537 76.4148 80.403Z" fill="#FEB618"/>
<path d="M75.8184 45.4821C75.8184 44.7162 76.4391 44.0952 77.2053 44.0952C77.9716 44.0952 78.5922 44.7162 78.5922 45.4821V48.256C78.5922 49.0219 77.9716 49.6429 77.2053 49.6429C76.4391 49.6429 75.8184 49.0219 75.8184 48.256V45.4821Z" fill="#FEB618"/>
<path fill-rule="evenodd" clip-rule="evenodd" d="M76.4148 44.3435C76.2553 44.5678 76.1651 44.8411 76.1651 45.1354V48.6027C76.1651 48.8971 76.2553 49.1699 76.4148 49.3946C76.0542 49.1439 75.8184 48.7275 75.8184 48.256V45.4822C75.8184 45.0106 76.0542 44.5942 76.4148 44.3435Z" fill="#FEB618"/>
<path d="M58.4821 66.2857C57.7159 66.2857 57.0952 65.6647 57.0952 64.8988C57.0952 64.1328 57.7159 63.5119 58.4821 63.5119H61.2559C62.0222 63.5119 62.6428 64.1328 62.6428 64.8988C62.6428 65.6647 62.0222 66.2857 61.2559 66.2857H58.4821Z" fill="#FEB618"/>
<path fill-rule="evenodd" clip-rule="evenodd" d="M57.8649 66.1418C57.4107 65.915 57.0952 65.4435 57.0952 64.8988C57.0952 64.1328 57.7159 63.5119 58.4821 63.5119H59.0022C58.1389 63.5119 57.4419 64.2105 57.4419 65.0721C57.4419 65.4861 57.6049 65.8627 57.8649 66.1418Z" fill="#13394E"/>
<path d="M96.2752 66.2857C97.0415 66.2857 97.6621 65.6647 97.6621 64.8988C97.6621 64.1328 97.0415 63.5119 96.2752 63.5119H93.5014C92.7351 63.5119 92.1145 64.1328 92.1145 64.8988C92.1145 65.6647 92.7351 66.2857 93.5014 66.2857H96.2752Z" fill="#FEB618"/>
<path fill-rule="evenodd" clip-rule="evenodd" d="M96.8924 66.1418C97.3466 65.915 97.6621 65.4435 97.6621 64.8988C97.6621 64.1328 97.0415 63.5119 96.2752 63.5119H95.7551C96.6185 63.5119 97.3154 64.2105 97.3154 65.0721C97.3154 65.4861 97.1524 65.8627 96.8924 66.1418Z" fill="#FEB618"/>
<path d="M82.9505 64.9563C83.2626 64.733 83.696 64.8041 83.9214 65.1155L84.1259 65.4032C84.3478 65.7118 84.2785 66.1414 83.9734 66.3664L77.663 70.9966C77.4272 71.17 77.0943 71.1142 76.9279 70.8732L76.5777 70.3683C76.3627 70.0573 76.4391 69.6312 76.7442 69.4107L82.9505 64.9563Z" fill="#FEB618"/>
<path fill-rule="evenodd" clip-rule="evenodd" d="M83.9214 65.1155C83.696 64.8041 83.2626 64.733 82.9505 64.9563L76.7546 69.4038C76.4425 69.627 76.3732 70.0601 76.5951 70.3711L76.7962 70.653C76.5743 70.342 76.6471 69.9086 76.9557 69.6853L83.1551 65.2382C83.4637 65.0149 83.8971 65.086 84.1225 65.397L83.9214 65.1155Z" fill="#79570B"/>
<path d="M76.1929 59.0044C76.1929 58.6213 76.5015 58.311 76.8863 58.311H77.233C77.6144 58.311 77.9265 58.6213 77.9265 59.0044V70.4464C77.9265 70.8295 77.6144 71.1398 77.233 71.1398H76.8863C76.5015 71.1398 76.1929 70.8295 76.1929 70.4464V59.0044Z" fill="#FEB618"/>
<path fill-rule="evenodd" clip-rule="evenodd" d="M76.8863 58.311C76.5015 58.311 76.1929 58.6213 76.1929 59.0044V70.4464C76.1929 70.8295 76.5015 71.1398 76.8863 71.1398H77.233C76.8482 71.1398 76.5396 70.8295 76.5396 70.4464V59.0044C76.5396 58.6213 76.8482 58.311 77.233 58.311H76.8863Z" fill="#79570B"/>
<path d="M511 57.1935C511 52.1163 506.884 48 501.806 48H406.194C401.116 48 397 52.1163 397 57.1935V76.8065C397 81.8837 401.116 86 406.194 86H501.806C506.884 86 511 81.8837 511 76.8065V57.1935Z" fill="white"/>
<path fill-rule="evenodd" clip-rule="evenodd" d="M423.16 86H504.258C507.981 86 511 82.9814 511 79.2581H410.484H397C397 82.9814 400.019 86 403.742 86H405.006L398.532 93.9677L423.16 86Z" fill="white"/>
<path d="M480.968 66.3871C480.968 68.4183 482.614 70.0645 484.645 70.0645C486.676 70.0645 488.323 68.4183 488.323 66.3871C488.323 64.3559 486.676 62.7097 484.645 62.7097C482.614 62.7097 480.968 64.3559 480.968 66.3871Z" fill="#FF4B1E"/>
<path d="M484.645 70.0645C482.614 70.0645 480.968 68.4183 480.968 66.3871C480.968 64.3559 482.614 62.7097 484.645 62.7097C483.726 63.8331 482.439 66.8774 484.645 70.0645Z" fill="#FDC9C9"/>
<path d="M460.129 66.3871C460.129 68.4183 461.775 70.0645 463.806 70.0645C465.838 70.0645 467.484 68.4183 467.484 66.3871C467.484 64.3559 465.838 62.7097 463.806 62.7097C461.775 62.7097 460.129 64.3559 460.129 66.3871Z" fill="#FF4B1E"/>
<path d="M463.806 70.0645C461.775 70.0645 460.129 68.4183 460.129 66.3871C460.129 64.3559 461.775 62.7097 463.806 62.7097C462.887 63.8331 461.6 66.8774 463.806 70.0645Z" fill="#FDC9C9"/>
<path d="M439.903 66.3871C439.903 68.4183 441.549 70.0645 443.581 70.0645C445.612 70.0645 447.258 68.4183 447.258 66.3871C447.258 64.3559 445.612 62.7097 443.581 62.7097C441.549 62.7097 439.903 64.3559 439.903 66.3871Z" fill="#FF4B1E"/>
<path d="M443.581 70.0645C441.55 70.0645 439.903 68.4183 439.903 66.3871C439.903 64.3559 441.55 62.7097 443.581 62.7097C442.661 63.8331 441.374 66.8774 443.581 70.0645Z" fill="#FDC9C9"/>
<path d="M419.677 66.3871C419.677 68.4183 421.324 70.0645 423.355 70.0645C425.386 70.0645 427.032 68.4183 427.032 66.3871C427.032 64.3559 425.386 62.7097 423.355 62.7097C421.324 62.7097 419.677 64.3559 419.677 66.3871Z" fill="#FF4B1E"/>
<path d="M423.355 70.0645C421.324 70.0645 419.677 68.4183 419.677 66.3871C419.677 64.3559 421.324 62.7097 423.355 62.7097C422.436 63.8331 421.148 66.8774 423.355 70.0645Z" fill="#FDC9C9"/>
<defs>
<linearGradient id="paint0_linear" x1="269.794" y1="463.278" x2="280.208" y2="469.173" gradientUnits="userSpaceOnUse">
<stop stop-color="#FFA261"/>
<stop offset="1" stop-color="#F4B88E"/>
</linearGradient>
<linearGradient id="paint1_linear" x1="241.629" y1="428.996" x2="333.108" y2="377.271" gradientUnits="userSpaceOnUse">
<stop/>
<stop offset="1" stop-color="#152B43" stop-opacity="0"/>
</linearGradient>
<linearGradient id="paint2_linear" x1="281.481" y1="273.38" x2="246.094" y2="283.806" gradientUnits="userSpaceOnUse">
<stop stop-color="#161616"/>
<stop offset="1" stop-color="#282828" stop-opacity="0"/>
</linearGradient>
<linearGradient id="paint3_linear" x1="545.677" y1="409.442" x2="380.077" y2="472.612" gradientUnits="userSpaceOnUse">
<stop stop-color="#020202"/>
<stop offset="1" stop-color="#0A0A0A"/>
</linearGradient>
<linearGradient id="paint4_linear" x1="235.791" y1="408.712" x2="70.1918" y2="471.882" gradientUnits="userSpaceOnUse">
<stop stop-color="#0D0D0D"/>
<stop offset="1" stop-color="#242424"/>
</linearGradient>
<linearGradient id="paint5_linear" x1="332.297" y1="395.102" x2="342.006" y2="402.096" gradientUnits="userSpaceOnUse">
<stop stop-color="#FFA261"/>
<stop offset="1" stop-color="#F4B88E"/>
</linearGradient>
<linearGradient id="paint6_linear" x1="211.482" y1="318.064" x2="272.985" y2="299.935" gradientUnits="userSpaceOnUse">
<stop/>
<stop offset="0.964205" stop-color="#152B43" stop-opacity="0"/>
</linearGradient>
<linearGradient id="paint7_linear" x1="354.758" y1="299.418" x2="288.806" y2="289.845" gradientUnits="userSpaceOnUse">
<stop stop-color="#151515"/>
<stop offset="1" stop-color="#3F3F3F" stop-opacity="0"/>
</linearGradient>
<linearGradient id="paint8_linear" x1="448.878" y1="276.547" x2="428.854" y2="287.876" gradientUnits="userSpaceOnUse">
<stop stop-color="#FFC69E"/>
<stop offset="1" stop-color="#FF9C58"/>
</linearGradient>
<linearGradient id="paint9_linear" x1="370.956" y1="247.841" x2="420.719" y2="224.913" gradientUnits="userSpaceOnUse">
<stop stop-color="#FF9330"/>
<stop offset="1" stop-color="#FFBF30" stop-opacity="0"/>
</linearGradient>
<linearGradient id="paint10_linear" x1="439.138" y1="200.138" x2="421.948" y2="229.425" gradientUnits="userSpaceOnUse">
<stop stop-color="#12C65A"/>
<stop offset="1" stop-color="#2ECF6E"/>
</linearGradient>
<linearGradient id="paint11_linear" x1="361.992" y1="133.586" x2="346.305" y2="137.698" gradientUnits="userSpaceOnUse">
<stop stop-color="#F4B88E"/>
<stop offset="0.978667" stop-color="#FFA261"/>
</linearGradient>
<linearGradient id="paint12_linear" x1="367.579" y1="133.834" x2="363.055" y2="136.69" gradientUnits="userSpaceOnUse">
<stop stop-color="#FF8A37"/>
<stop offset="1" stop-color="#FAAD78" stop-opacity="0"/>
</linearGradient>
<linearGradient id="paint13_linear" x1="247.909" y1="231.148" x2="254.481" y2="208.476" gradientUnits="userSpaceOnUse">
<stop stop-color="#FFB40B"/>
<stop offset="1" stop-color="#FFC542" stop-opacity="0"/>
</linearGradient>
<linearGradient id="paint14_linear" x1="270.684" y1="183.362" x2="241.078" y2="146.739" gradientUnits="userSpaceOnUse">
<stop stop-color="#FF491B"/>
<stop offset="1" stop-color="#FF633B" stop-opacity="0.38"/>
</linearGradient>
<linearGradient id="paint15_linear" x1="244.481" y1="136.083" x2="266.037" y2="162.182" gradientUnits="userSpaceOnUse">
<stop stop-color="#FFC700"/>
<stop offset="1" stop-color="white" stop-opacity="0"/>
</linearGradient>
<linearGradient id="paint16_linear" x1="244.482" y1="136.083" x2="266.037" y2="162.182" gradientUnits="userSpaceOnUse">
<stop stop-color="#FFC700"/>
<stop offset="1" stop-color="white" stop-opacity="0"/>
</linearGradient>
<linearGradient id="paint17_linear" x1="244.481" y1="136.083" x2="266.037" y2="162.182" gradientUnits="userSpaceOnUse">
<stop stop-color="#FFC700"/>
<stop offset="1" stop-color="white" stop-opacity="0"/>
</linearGradient>
<linearGradient id="paint18_linear" x1="244.481" y1="136.083" x2="266.037" y2="162.182" gradientUnits="userSpaceOnUse">
<stop stop-color="#FFC700"/>
<stop offset="1" stop-color="white" stop-opacity="0"/>
</linearGradient>
<linearGradient id="paint19_linear" x1="244.481" y1="136.083" x2="266.037" y2="162.182" gradientUnits="userSpaceOnUse">
<stop stop-color="#FFC700"/>
<stop offset="1" stop-color="white" stop-opacity="0"/>
</linearGradient>
<linearGradient id="paint20_linear" x1="337.637" y1="185.908" x2="187.93" y2="222.417" gradientUnits="userSpaceOnUse">
<stop stop-color="#FF4717"/>
<stop offset="1" stop-color="#FF491B"/>
</linearGradient>
<linearGradient id="paint21_linear" x1="347.071" y1="115.362" x2="363.896" y2="116.269" gradientUnits="userSpaceOnUse">
<stop stop-color="#FEA568"/>
<stop offset="1" stop-color="#F4B88E"/>
</linearGradient>
<linearGradient id="paint22_linear" x1="353.43" y1="126.349" x2="358.378" y2="123.51" gradientUnits="userSpaceOnUse">
<stop stop-color="#FF9F5B"/>
<stop offset="0.961909" stop-color="#F4B88E" stop-opacity="0"/>
</linearGradient>
<linearGradient id="paint23_linear" x1="377.886" y1="113.685" x2="376.54" y2="113.506" gradientUnits="userSpaceOnUse">
<stop stop-color="#FFCAA6"/>
<stop offset="1" stop-color="#FFCAA6" stop-opacity="0"/>
</linearGradient>
<linearGradient id="paint24_linear" x1="347.118" y1="117.825" x2="364.296" y2="96.3565" gradientUnits="userSpaceOnUse">
<stop offset="0.0300609" stop-color="#872E1E"/>
<stop offset="1" stop-color="#B6250C"/>
</linearGradient>
<linearGradient id="paint25_linear" x1="381.262" y1="106.128" x2="344.044" y2="110.91" gradientUnits="userSpaceOnUse">
<stop stop-color="#FFCB7C" stop-opacity="0.89"/>
<stop offset="1" stop-color="#FC340E"/>
</linearGradient>
<linearGradient id="paint26_linear" x1="382.626" y1="104.434" x2="345.41" y2="109.216" gradientUnits="userSpaceOnUse">
<stop stop-color="#FFCB7C" stop-opacity="0.89"/>
<stop offset="1" stop-color="#FC340E"/>
</linearGradient>
<linearGradient id="paint27_linear" x1="386.041" y1="93.7882" x2="357.068" y2="100.158" gradientUnits="userSpaceOnUse">
<stop stop-color="#FFC700" stop-opacity="0.58"/>
<stop offset="1" stop-color="#D0A715" stop-opacity="0"/>
</linearGradient>
<linearGradient id="paint28_linear" x1="445.216" y1="300.969" x2="423.724" y2="313.676" gradientUnits="userSpaceOnUse">
<stop stop-color="#FFD6B9"/>
<stop offset="1" stop-color="#FFA769"/>
</linearGradient>
<linearGradient id="paint29_linear" x1="315.653" y1="228.388" x2="349.787" y2="224.571" gradientUnits="userSpaceOnUse">
<stop offset="0.0344023" stop-color="#FFA030"/>
<stop offset="1" stop-color="#FFBF30" stop-opacity="0"/>
</linearGradient>
<linearGradient id="paint30_linear" x1="358.552" y1="198.255" x2="325.489" y2="219.389" gradientUnits="userSpaceOnUse">
<stop stop-color="#FFF270"/>
<stop offset="1" stop-color="#FFBF30" stop-opacity="0"/>
</linearGradient>
<linearGradient id="paint31_linear" x1="404.109" y1="311.121" x2="392.293" y2="273.784" gradientUnits="userSpaceOnUse">
<stop stop-color="#12C65A"/>
<stop offset="1" stop-color="#4FD283"/>
</linearGradient>
</defs>
</svg>
