<svg width="20" height="20" viewBox="0 0 20 20" fill="none" xmlns="http://www.w3.org/2000/svg">
<path d="M10 6.66668C8.15834 6.66668 6.66668 8.15834 6.66668 10C6.66668 11.8417 8.15834 13.3333 10 13.3333C11.8417 13.3333 13.3333 11.8417 13.3333 10C13.3333 8.15834 11.8417 6.66668 10 6.66668ZM17.45 9.16668C17.0667 5.69168 14.3083 2.93334 10.8333 2.55001V0.833344H9.16668V2.55001C5.69168 2.93334 2.93334 5.69168 2.55001 9.16668H0.833344V10.8333H2.55001C2.93334 14.3083 5.69168 17.0667 9.16668 17.45V19.1667H10.8333V17.45C14.3083 17.0667 17.0667 14.3083 17.45 10.8333H19.1667V9.16668H17.45ZM10 15.8333C6.77918 15.8333 4.16668 13.2208 4.16668 10C4.16668 6.77918 6.77918 4.16668 10 4.16668C13.2208 4.16668 15.8333 6.77918 15.8333 10C15.8333 13.2208 13.2208 15.8333 10 15.8333Z" fill="#B1B1B1"/>
</svg>
